<svg width="80" height="80" viewBox="0 0 80 80" fill="none" xmlns="http://www.w3.org/2000/svg">
<g clip-path="url(#clip0_363_656)">
<path d="M9.85367 72.1201C11.7146 70.2592 11.7146 67.242 9.85367 65.3811C7.99273 63.5201 4.97555 63.5201 3.11445 65.3811C1.25352 67.242 1.25352 70.2592 3.11445 72.1201" stroke="white" stroke-width="1.5" stroke-miterlimit="10" stroke-linecap="round" stroke-linejoin="round"/>
<path d="M76.8854 72.1201C78.7463 70.2592 78.7463 67.242 76.8854 65.3811C75.0245 63.5201 72.0073 63.5201 70.1462 65.3811C68.2853 67.242 68.2853 70.2592 70.1462 72.1201" stroke="white" stroke-width="1.5" stroke-miterlimit="10" stroke-linecap="round" stroke-linejoin="round"/>
<path d="M12.4905 43.7605L6.48413 54.2958V63.9852" stroke="white" stroke-width="1.5" stroke-miterlimit="10" stroke-linecap="round" stroke-linejoin="round"/>
<path d="M67.5095 43.7605L73.5159 54.2958V63.9852" stroke="white" stroke-width="1.5" stroke-miterlimit="10" stroke-linecap="round" stroke-linejoin="round"/>
<path d="M39.9999 49.3718L35.2346 59.2201H44.7652L39.9999 68.7507" stroke="white" stroke-width="1.5" stroke-miterlimit="10" stroke-linecap="round" stroke-linejoin="round"/>
<path d="M63.8266 44.6063C66.4584 44.6063 68.5919 42.4728 68.5919 39.841C68.5919 37.2092 66.4584 35.0757 63.8266 35.0757C61.1948 35.0757 59.0613 37.2092 59.0613 39.841C59.0613 42.4728 61.1948 44.6063 63.8266 44.6063Z" stroke="white" stroke-width="1.5" stroke-miterlimit="10" stroke-linecap="round" stroke-linejoin="round"/>
<path d="M16.1735 44.6063C18.8053 44.6063 20.9388 42.4728 20.9388 39.841C20.9388 37.2092 18.8053 35.0757 16.1735 35.0757C13.5417 35.0757 11.4082 37.2092 11.4082 39.841C11.4082 42.4728 13.5417 44.6063 16.1735 44.6063Z" stroke="white" stroke-width="1.5" stroke-miterlimit="10" stroke-linecap="round" stroke-linejoin="round"/>
<path d="M39.9999 20.7801C42.6317 20.7801 44.7652 18.6466 44.7652 16.0148C44.7652 13.383 42.6317 11.2495 39.9999 11.2495C37.3681 11.2495 35.2346 13.383 35.2346 16.0148C35.2346 18.6466 37.3681 20.7801 39.9999 20.7801Z" stroke="white" stroke-width="1.5" stroke-miterlimit="10" stroke-linecap="round" stroke-linejoin="round"/>
<path d="M40 78.2812C29.4728 78.2812 20.9387 69.7473 20.9387 59.22V39.8411H59.0611V59.22C59.0612 69.7473 50.5272 78.2812 40 78.2812Z" stroke="white" stroke-width="1.5" stroke-miterlimit="10" stroke-linecap="round" stroke-linejoin="round"/>
<path d="M30.4692 39.841V30.3105H49.5305V39.841" stroke="white" stroke-width="1.5" stroke-miterlimit="10" stroke-linecap="round" stroke-linejoin="round"/>
<path d="M54.2959 30.3106H25.704C23.0723 30.3106 20.9387 28.1772 20.9387 25.5453V20.78C20.9387 10.2528 29.4728 1.71875 40 1.71875C50.5272 1.71875 59.0612 10.2528 59.0612 20.78V25.5453C59.0612 28.177 56.9276 30.3106 54.2959 30.3106Z" stroke="white" stroke-width="1.5" stroke-miterlimit="10" stroke-linecap="round" stroke-linejoin="round"/>
</g>
<defs>
<clipPath id="clip0_363_656">
<rect width="80" height="80" fill="white"/>
</clipPath>
</defs>
</svg>
