<svg width="80" height="80" viewBox="0 0 80 80" fill="none" xmlns="http://www.w3.org/2000/svg">
<mask id="mask0_363_735" style="mask-type:luminance" maskUnits="userSpaceOnUse" x="0" y="0" width="80" height="80">
<path d="M0 7.62939e-06H80V80H0V7.62939e-06Z" fill="white"/>
</mask>
<g mask="url(#mask0_363_735)">
<path d="M54.0625 59.5313C54.925 59.5313 55.625 60.2313 55.625 61.0938C55.625 61.9563 54.925 62.6562 54.0625 62.6562C53.2 62.6562 52.5 61.9563 52.5 61.0938C52.5 60.2313 53.2 59.5313 54.0625 59.5313Z" fill="white"/>
<path d="M40 42.3406C32.236 42.3406 25.9407 36.0453 25.9407 28.2812C25.9407 20.5171 32.236 14.2218 40 14.2218C47.7641 14.2218 54.0579 20.5171 54.0579 28.2812C54.0579 36.0453 47.7641 42.3406 40 42.3406Z" stroke="white" stroke-width="1.5" stroke-miterlimit="10" stroke-linecap="round" stroke-linejoin="round"/>
<path d="M44.6875 28.2812C44.6875 30.8703 42.5891 32.9688 40 32.9688C37.4109 32.9688 35.3125 30.8703 35.3125 28.2812C35.3125 25.6922 37.4109 23.5938 40 23.5938C42.5891 23.5938 44.6875 25.6922 44.6875 28.2812Z" stroke="white" stroke-width="1.5" stroke-miterlimit="10" stroke-linecap="round" stroke-linejoin="round"/>
<path d="M15.625 28.2812V22.0312C15.625 20.3047 14.2266 18.9062 12.5 18.9062H9.375C7.64844 18.9062 6.25 20.3047 6.25 22.0312V34.5312C6.25 36.2578 7.64844 37.6562 9.375 37.6562H12.5C14.2266 37.6562 15.625 36.2578 15.625 34.5312V28.2812Z" stroke="white" stroke-width="1.5" stroke-miterlimit="10" stroke-linecap="round" stroke-linejoin="round"/>
<path d="M73.75 28.2812V22.0312C73.75 20.3047 72.3516 18.9062 70.625 18.9062H67.5C65.7734 18.9062 64.375 20.3047 64.375 22.0312V34.5312C64.375 36.2578 65.7734 37.6562 67.5 37.6562H70.625C72.3516 37.6562 73.75 36.2578 73.75 34.5312V28.2812Z" stroke="white" stroke-width="1.5" stroke-miterlimit="10" stroke-linecap="round" stroke-linejoin="round"/>
<path d="M1.5625 28.2812H6.25" stroke="white" stroke-width="1.5" stroke-miterlimit="10" stroke-linecap="round" stroke-linejoin="round"/>
<path d="M15.625 28.2812H25.9375" stroke="white" stroke-width="1.5" stroke-miterlimit="10" stroke-linecap="round" stroke-linejoin="round"/>
<path d="M54.0625 28.2812H64.375" stroke="white" stroke-width="1.5" stroke-miterlimit="10" stroke-linecap="round" stroke-linejoin="round"/>
<path d="M73.75 28.2812H78.4375" stroke="white" stroke-width="1.5" stroke-miterlimit="10" stroke-linecap="round" stroke-linejoin="round"/>
<path d="M1.5625 9.53125H20.3125" stroke="white" stroke-width="1.5" stroke-miterlimit="10" stroke-linecap="round" stroke-linejoin="round"/>
<path d="M59.6875 9.53125H78.4375" stroke="white" stroke-width="1.5" stroke-miterlimit="10" stroke-linecap="round" stroke-linejoin="round"/>
<path d="M10.9375 9.53125V18.9062" stroke="white" stroke-width="1.5" stroke-miterlimit="10" stroke-linecap="round" stroke-linejoin="round"/>
<path d="M69.0625 9.53125V18.9062" stroke="white" stroke-width="1.5" stroke-miterlimit="10" stroke-linecap="round" stroke-linejoin="round"/>
<path d="M40 51.7188V42.3438" stroke="white" stroke-width="1.5" stroke-miterlimit="10" stroke-linecap="round" stroke-linejoin="round"/>
<path d="M25.9375 61.0938H44.6875" stroke="white" stroke-width="1.5" stroke-miterlimit="10" stroke-linecap="round" stroke-linejoin="round"/>
<path d="M41.5625 70.4688C41.5625 71.3317 40.863 72.0312 40 72.0312C39.1372 72.0312 38.4375 71.3317 38.4375 70.4688C38.4375 69.6058 39.1372 68.9063 40 68.9063C40.863 68.9063 41.5625 69.6058 41.5625 70.4688Z" fill="white"/>
<path d="M47.0312 70.4688H60.3125C62.0391 70.4688 63.4375 69.0703 63.4375 67.3438V54.8438C63.4375 53.1172 62.0391 51.7188 60.3125 51.7188H19.6875C17.9609 51.7188 16.5625 53.1172 16.5625 54.8438V67.3438C16.5625 69.0703 17.9609 70.4688 19.6875 70.4688H32.9688" stroke="white" stroke-width="1.5" stroke-miterlimit="10" stroke-linecap="round" stroke-linejoin="round"/>
</g>
</svg>
