<svg width="250" height="250" viewBox="0 0 250 250" fill="none" xmlns="http://www.w3.org/2000/svg">
<path d="M129.8 28.5H130C151.691 28.5 161.228 37.0048 163.542 45.2686C165.921 53.7632 161.371 64.074 150.74 69.3672L150.625 69.4238L150.515 69.4893C145.654 72.3718 141.513 76.3275 138.413 81.0547C135.314 85.781 133.335 91.1543 132.628 96.7627L132.294 99.4102L134.759 100.433C139.012 102.198 142.769 104.977 145.701 108.528L147.542 110.758L150.078 109.371C167.823 99.6745 186.037 96.9522 199.51 100.604C206.203 102.418 211.654 105.775 215.434 110.553C219.201 115.315 221.5 121.727 221.5 130C221.5 151.686 212.974 161.226 204.694 163.542C196.184 165.922 185.88 161.368 180.639 150.751L180.569 150.61L180.487 150.477L179.92 149.575C177.023 145.116 173.217 141.312 168.747 138.417H168.748C163.981 135.327 158.579 133.349 152.944 132.628L150.307 132.291L149.274 134.741C147.483 138.995 144.699 142.757 141.157 145.713L138.958 147.549L140.323 150.067C150.027 167.97 152.721 186.183 149.049 199.614C147.224 206.286 143.858 211.709 139.072 215.468C134.301 219.216 127.879 221.5 119.6 221.5C98.1324 221.5 88.6586 212.988 86.3604 204.69C83.9961 196.154 88.5413 185.82 99.1602 180.533L99.2949 180.466L99.4248 180.387C104.194 177.474 108.264 173.547 111.348 168.885C114.431 164.222 116.451 158.94 117.263 153.408L117.667 150.654L115.075 149.641C110.745 147.947 106.937 145.144 104.033 141.514L102.213 139.238L99.6455 140.616C81.7322 150.228 63.5884 152.922 50.2314 149.285C43.598 147.479 38.2158 144.141 34.4863 139.388C30.7672 134.648 28.5 128.258 28.5 120C28.5 98.2901 36.9448 88.7338 45.1328 86.4043C53.5334 84.0143 63.7673 88.5171 69.0664 99.1602L69.1309 99.2881L69.2051 99.4102C71.9452 103.943 75.6143 107.839 79.9668 110.844L80.8467 111.433C85.5847 114.507 90.959 116.471 96.5654 117.173L99.2461 117.508L100.25 115C101.944 110.765 104.738 107.059 108.343 104.267L110.7 102.441L109.273 99.8242C99.6274 82.1317 96.9256 63.9408 100.566 50.4756C102.376 43.7851 105.72 38.3379 110.473 34.5605C115.061 30.914 121.185 28.645 129.035 28.5068L129.8 28.5ZM125 111.5C122.33 111.5 119.719 112.293 117.5 113.775C115.28 115.259 113.55 117.367 112.528 119.833C111.506 122.299 111.238 125.015 111.759 127.634V127.637C112.281 130.253 113.565 132.657 115.454 134.546C117.342 136.434 119.748 137.72 122.365 138.241H122.366C124.985 138.762 127.701 138.494 130.167 137.472C132.633 136.45 134.741 134.72 136.225 132.5C137.707 130.281 138.5 127.672 138.5 125C138.5 121.42 137.076 117.985 134.547 115.454L134.545 115.452C132.014 112.923 128.582 111.5 125 111.5Z" stroke="white" stroke-width="7"/>
<circle cx="125" cy="125" r="121.5" stroke="white" stroke-width="7"/>
</svg>
