<svg width="24" height="24" viewBox="0 0 24 24" fill="none" xmlns="http://www.w3.org/2000/svg">
<path d="M12 13C13.6569 13 15 11.6569 15 10C15 8.34315 13.6569 7 12 7C10.3431 7 9 8.34315 9 10C9 11.6569 10.3431 13 12 13Z" stroke="white" stroke-width="1.5" stroke-linecap="round" stroke-linejoin="round"/>
<path d="M8.617 18.5943C9.76316 19.8029 10.3362 20.4072 11.0428 20.645C11.6432 20.8472 12.3568 20.8472 12.9572 20.645C13.6638 20.4072 14.2368 19.8029 15.383 18.5943C17.9839 15.8519 20 13.1368 20 10C20 5.58172 16.4183 2 12 2C7.58172 2 4 5.58172 4 10C4 13.1368 6.01611 15.8519 8.617 18.5943Z" stroke="white" stroke-width="1.5" stroke-linecap="round" stroke-linejoin="round"/>
</svg>
