<svg width="22" height="22" viewBox="0 0 22 22" fill="none" xmlns="http://www.w3.org/2000/svg">
<g clip-path="url(#clip0_2611_1862)">
<path fill-rule="evenodd" clip-rule="evenodd" d="M10.8 0C7.86672 0 7.49952 0.01224 6.34752 0.0648C5.19768 0.11736 4.41216 0.30024 3.72528 0.56736C3.00528 0.83808 2.35224 1.26288 1.81224 1.81296C1.26304 2.35234 0.837978 3.00492 0.56664 3.72528C0.30096 4.41216 0.11736 5.1984 0.0648 6.34824C0.01296 7.49952 0 7.866 0 10.8C0 13.734 0.01224 14.1005 0.0648 15.2525C0.11736 16.4023 0.30024 17.1878 0.56736 17.8747C0.83808 18.5947 1.26288 19.2478 1.81296 19.7878C2.35235 20.337 3.00493 20.762 3.72528 21.0334C4.41216 21.2998 5.19768 21.4826 6.34752 21.5352C7.49952 21.5878 7.86672 21.6 10.8 21.6C13.7333 21.6 14.1005 21.5878 15.2525 21.5352C16.4023 21.4826 17.1878 21.2998 17.8747 21.0326C18.5947 20.7619 19.2478 20.3371 19.7878 19.787C20.337 19.2476 20.762 18.5951 21.0334 17.8747C21.2998 17.1878 21.4826 16.4023 21.5352 15.2525C21.5878 14.1005 21.6 13.7333 21.6 10.8C21.6 7.86672 21.5878 7.49952 21.5352 6.34752C21.4826 5.19768 21.2998 4.41216 21.0326 3.72528C20.7614 3.00461 20.3364 2.35175 19.787 1.81224C19.2476 1.26304 18.5951 0.837978 17.8747 0.56664C17.1878 0.30096 16.4016 0.11736 15.2518 0.0648C14.1005 0.01296 13.734 0 10.8 0ZM10.8 1.94616C13.6836 1.94616 14.0256 1.95696 15.1646 2.0088C16.2173 2.05704 16.789 2.232 17.1698 2.38104C17.6738 2.57616 18.0338 2.81088 18.4118 3.18816C18.7898 3.56616 19.0238 3.92616 19.219 4.43016C19.3673 4.81104 19.543 5.38272 19.5912 6.43536C19.643 7.5744 19.6538 7.9164 19.6538 10.8C19.6538 13.6836 19.643 14.0256 19.5912 15.1646C19.543 16.2173 19.368 16.789 19.219 17.1698C19.0462 17.6389 18.7703 18.0634 18.4118 18.4118C18.0634 18.7704 17.639 19.0462 17.1698 19.219C16.789 19.3673 16.2173 19.543 15.1646 19.5912C14.0256 19.643 13.6843 19.6538 10.8 19.6538C7.91568 19.6538 7.5744 19.643 6.43536 19.5912C5.38272 19.543 4.81104 19.368 4.43016 19.219C3.96104 19.0462 3.53664 18.7703 3.18816 18.4118C2.82973 18.0634 2.55394 17.6389 2.38104 17.1698C2.23272 16.789 2.05704 16.2173 2.0088 15.1646C1.95696 14.0256 1.94616 13.6836 1.94616 10.8C1.94616 7.9164 1.95696 7.5744 2.0088 6.43536C2.05704 5.38272 2.232 4.81104 2.38104 4.43016C2.57616 3.92616 2.81088 3.56616 3.18816 3.18816C3.53659 2.82964 3.96102 2.55383 4.43016 2.38104C4.81104 2.23272 5.38272 2.05704 6.43536 2.0088C7.5744 1.95696 7.9164 1.94616 10.8 1.94616Z" fill="white"/>
<path fill-rule="evenodd" clip-rule="evenodd" d="M10.7992 14.4037C10.326 14.4037 9.85741 14.3106 9.42021 14.1294C8.983 13.9483 8.58574 13.6829 8.25111 13.3483C7.91649 13.0136 7.65105 12.6164 7.46995 12.1791C7.28885 11.742 7.19565 11.2734 7.19565 10.8001C7.19565 10.3269 7.28885 9.85832 7.46995 9.4211C7.65105 8.98389 7.91649 8.58664 8.25111 8.25201C8.58574 7.91739 8.983 7.65195 9.42021 7.47084C9.85741 7.28975 10.326 7.19654 10.7992 7.19654C11.755 7.19654 12.6715 7.5762 13.3474 8.25201C14.0232 8.92781 14.4028 9.84441 14.4028 10.8001C14.4028 11.7559 14.0232 12.6725 13.3474 13.3483C12.6715 14.024 11.755 14.4037 10.7992 14.4037ZM10.7992 5.24894C9.32697 5.24894 7.915 5.83379 6.87395 6.87485C5.8329 7.9159 5.24805 9.32787 5.24805 10.8001C5.24805 12.2724 5.8329 13.6844 6.87395 14.7254C7.915 15.7665 9.32697 16.3513 10.7992 16.3513C12.2715 16.3513 13.6835 15.7665 14.7245 14.7254C15.7656 13.6844 16.3504 12.2724 16.3504 10.8001C16.3504 9.32787 15.7656 7.9159 14.7245 6.87485C13.6835 5.83379 12.2715 5.24894 10.7992 5.24894ZM17.9653 5.14814C17.9653 5.49616 17.8271 5.82992 17.5811 6.076C17.335 6.3221 17.0013 6.46034 16.6531 6.46034C16.3051 6.46034 15.9714 6.3221 15.7253 6.076C15.4793 5.82992 15.3409 5.49616 15.3409 5.14814C15.3409 4.80013 15.4793 4.46636 15.7253 4.22027C15.9714 3.97419 16.3051 3.83594 16.6531 3.83594C17.0013 3.83594 17.335 3.97419 17.5811 4.22027C17.8271 4.46636 17.9653 4.80013 17.9653 5.14814Z" fill="white"/>
</g>
<defs>
<clipPath id="clip0_2611_1862">
<rect width="21.6" height="21.6" fill="white"/>
</clipPath>
</defs>
</svg>
