<svg width="22" height="22" viewBox="0 0 22 22" fill="none" xmlns="http://www.w3.org/2000/svg">
<g clip-path="url(#clip0_2611_1865)">
<path d="M21.6 1.58824V20.0118C21.6 20.433 21.4327 20.8369 21.1348 21.1348C20.8369 21.4327 20.433 21.6 20.0118 21.6H1.58824C1.16701 21.6 0.763036 21.4327 0.465184 21.1348C0.167332 20.8369 0 20.433 0 20.0118V1.58824C0 1.16701 0.167332 0.763036 0.465184 0.465184C0.763036 0.167332 1.16701 0 1.58824 0H20.0118C20.433 0 20.8369 0.167332 21.1348 0.465184C21.4327 0.763036 21.6 1.16701 21.6 1.58824ZM6.35294 8.25882H3.17647V18.4235H6.35294V8.25882ZM6.63882 4.76471C6.6405 4.52443 6.59483 4.28618 6.50442 4.06356C6.41402 3.84094 6.28064 3.63829 6.11194 3.46722C5.94322 3.29614 5.74244 3.15996 5.52109 3.06648C5.29975 2.97299 5.06215 2.92402 4.82189 2.92235H4.76471C4.27608 2.92235 3.80748 3.11646 3.46196 3.46196C3.11646 3.80748 2.92235 4.27608 2.92235 4.76471C2.92235 5.25332 3.11646 5.72194 3.46196 6.06745C3.80748 6.41296 4.27608 6.60706 4.76471 6.60706C5.005 6.61297 5.2441 6.57148 5.46835 6.48496C5.6926 6.39842 5.8976 6.26856 6.07164 6.10278C6.24569 5.93699 6.38536 5.73854 6.48268 5.51876C6.58 5.29898 6.63306 5.06218 6.63882 4.82189V4.76471ZM18.4235 12.2485C18.4235 9.19271 16.4795 8.00471 14.5482 8.00471C13.9159 7.97304 13.2863 8.10773 12.7223 8.39532C12.1582 8.68292 11.6794 9.11338 11.3337 9.64376H11.2447V8.25882H8.25882V18.4235H11.4353V13.0171C11.3894 12.4634 11.5638 11.914 11.9206 11.4882C12.2776 11.0623 12.788 10.7945 13.3411 10.7428H13.4618C14.472 10.7428 15.2216 11.3781 15.2216 12.9791V18.4235H18.3982L18.4235 12.2485Z" fill="white"/>
</g>
<defs>
<clipPath id="clip0_2611_1865">
<rect width="21.6" height="21.6" fill="white"/>
</clipPath>
</defs>
</svg>
