<svg width="94" height="84" viewBox="0 0 94 84" fill="none" xmlns="http://www.w3.org/2000/svg">
<path d="M6.56305 75.4472C6.95235 75.573 7.24728 75.7579 7.45569 75.9977C7.6641 76.2337 7.76634 76.5168 7.76634 76.8392C7.76634 77.1617 7.6641 77.4409 7.45569 77.6768C7.24728 77.9128 6.95235 78.0937 6.56305 78.2195C6.17375 78.3453 5.7176 78.4082 5.18674 78.4082H3.67673V75.2584H5.18674C5.7176 75.2584 6.17375 75.3214 6.56305 75.4511V75.4472ZM6.62204 77.7437C6.95236 77.5274 7.11751 77.2285 7.11751 76.8392C7.11751 76.4499 6.95235 76.1432 6.61811 75.923C6.28386 75.7028 5.80805 75.5927 5.18674 75.5927H4.30983V78.0701H5.18674C5.81198 78.0701 6.29172 77.96 6.62204 77.7476V77.7437Z" fill="#009934"/>
<path d="M13.5942 78.4043L12.4381 77.1184H11.6713V78.4043H11.0382V75.2545H12.6072C12.9729 75.2545 13.2836 75.2938 13.5352 75.3764C13.7869 75.459 13.9796 75.5691 14.1015 75.7067C14.2273 75.8444 14.2902 76.0017 14.2902 76.1825C14.2902 76.3988 14.1919 76.5915 14.0032 76.7567C13.8105 76.9218 13.5195 77.0319 13.1341 77.087L14.3532 78.4043H13.5942ZM11.6713 76.7881H12.6033C12.9454 76.7881 13.2049 76.7331 13.3779 76.623C13.551 76.5129 13.6375 76.3674 13.6375 76.1825C13.6375 75.9977 13.551 75.8522 13.3819 75.75C13.2128 75.6477 12.9533 75.5966 12.6072 75.5966H11.6752V76.7881H11.6713Z" fill="#009934"/>
<path d="M18.6785 78.2313C18.3089 78.0937 18.014 77.901 17.7977 77.6572C17.5814 77.4134 17.4753 77.1342 17.4753 76.8274C17.4753 76.5207 17.5814 76.2455 17.7977 75.9977C18.014 75.7539 18.3089 75.5612 18.6785 75.4236C19.0482 75.286 19.4611 75.2191 19.9094 75.2191C20.3576 75.2191 20.7784 75.2899 21.148 75.4236C21.5177 75.5612 21.8126 75.75 22.0249 75.9938C22.2373 76.2376 22.3474 76.5168 22.3474 76.8235C22.3474 77.1302 22.2412 77.4094 22.0249 77.6532C21.8126 77.897 21.5177 78.0858 21.148 78.2234C20.7784 78.3611 20.3616 78.4279 19.9094 78.4279C19.4571 78.4279 19.0482 78.3611 18.6785 78.2234V78.2313ZM20.8295 77.9246C21.1009 77.8223 21.3132 77.6768 21.4705 77.4841C21.6278 77.2954 21.7025 77.0752 21.7025 76.8235C21.7025 76.5718 21.6238 76.3516 21.4705 76.1629C21.3171 75.9741 21.1009 75.8286 20.8335 75.7264C20.5621 75.6242 20.2593 75.573 19.9133 75.573C19.5672 75.573 19.2645 75.6242 18.9931 75.7264C18.7257 75.8286 18.5095 75.9741 18.3561 76.1629C18.1988 76.3516 18.1241 76.5718 18.1241 76.8235C18.1241 77.0752 18.2027 77.2915 18.3561 77.4841C18.5134 77.6729 18.7257 77.8184 18.9971 77.9246C19.2684 78.0268 19.5751 78.0779 19.9133 78.0779C20.2515 78.0779 20.5582 78.0268 20.8295 77.9246Z" fill="#009934"/>
<path d="M29.4412 78.4043H28.8081L26.26 75.8955V78.4043H25.6269V75.2506H26.26L28.8081 77.7515V75.2506H29.4412V78.4043Z" fill="#009934"/>
<path d="M33.5897 75.5888V76.6426H35.3592V76.9808H33.5897V78.0661H35.5676V78.4043H32.9566V75.2506H35.5676V75.5888H33.5897Z" fill="#009934"/>
<path d="M43.9437 78.3257C43.6921 78.2509 43.4915 78.1487 43.35 78.0189C43.2045 77.8892 43.1298 77.7358 43.1258 77.5667H43.8022C43.8258 77.7122 43.9202 77.8381 44.0853 77.9403C44.2505 78.0425 44.4903 78.0937 44.8049 78.0937C45.1195 78.0937 45.3437 78.0465 45.5206 77.9482C45.6936 77.8498 45.7801 77.724 45.7801 77.5707C45.7801 77.4487 45.729 77.3544 45.6268 77.2757C45.5245 77.1971 45.3987 77.142 45.2453 77.1027C45.092 77.0634 44.8836 77.0201 44.624 76.9769C44.3016 76.9218 44.046 76.8668 43.8533 76.8156C43.6606 76.7606 43.4955 76.678 43.3578 76.56C43.2202 76.4421 43.1533 76.2887 43.1533 76.0921C43.1533 75.9191 43.2202 75.7696 43.3539 75.6359C43.4876 75.5023 43.6763 75.4 43.9201 75.3292C44.164 75.2584 44.4431 75.2191 44.7577 75.2191C45.2139 75.2191 45.5875 75.2938 45.8745 75.4393C46.1655 75.5848 46.3267 75.7814 46.3661 76.0253H45.67C45.6464 75.9073 45.5481 75.8011 45.379 75.7067C45.206 75.6163 44.9779 75.5691 44.6948 75.5691C44.4314 75.5691 44.2151 75.6124 44.046 75.7028C43.8769 75.7932 43.7943 75.9151 43.7943 76.0764C43.7943 76.1904 43.8454 76.2848 43.9437 76.3556C44.0421 76.4263 44.1679 76.4814 44.3134 76.5207C44.4589 76.56 44.6634 76.6033 44.9308 76.6505C45.2532 76.7055 45.5088 76.7645 45.7054 76.8196C45.902 76.8746 46.0672 76.9611 46.2088 77.0752C46.3464 77.1932 46.4172 77.3465 46.4172 77.5471C46.4172 77.7004 46.3543 77.8459 46.2284 77.9796C46.1026 78.1133 45.9178 78.2234 45.67 78.3099C45.4223 78.3925 45.1352 78.4358 44.801 78.4358C44.4667 78.4358 44.1954 78.4004 43.9398 78.3257H43.9437Z" fill="#009934"/>
<path d="M50.4279 75.5888V76.6426H52.1974V76.9808H50.4279V78.0661H52.4058V78.4043H49.7948V75.2506H52.4058V75.5888H50.4279Z" fill="#009934"/>
<path d="M58.3594 78.4043L57.2033 77.1184H56.4365V78.4043H55.8034V75.2545H57.3724C57.7381 75.2545 58.0488 75.2938 58.3004 75.3764C58.5521 75.459 58.7448 75.5691 58.8667 75.7067C58.9925 75.8444 59.0554 76.0017 59.0554 76.1825C59.0554 76.3988 58.9571 76.5915 58.7684 76.7567C58.5757 76.9218 58.2847 77.0319 57.8993 77.087L59.1184 78.4043H58.3594ZM56.4365 76.7881H57.3685C57.7106 76.7881 57.9701 76.7331 58.1431 76.623C58.3162 76.5129 58.4027 76.3674 58.4027 76.1825C58.4027 75.9977 58.3162 75.8522 58.1471 75.75C57.978 75.6477 57.7184 75.5966 57.3724 75.5966H56.4404V76.7881H56.4365Z" fill="#009934"/>
<path d="M66.4877 75.2545L64.6552 78.4043H63.9238L62.0914 75.2545H62.7677L64.2935 77.9718L65.8192 75.2545H66.4877Z" fill="#009934"/>
<path d="M70.2547 75.2545V78.4043H69.6216V75.2545H70.2547Z" fill="#009934"/>
<path d="M73.8571 75.9977C74.0695 75.7539 74.3605 75.5612 74.7301 75.4236C75.0998 75.286 75.5087 75.2152 75.9609 75.2152C76.4918 75.2152 76.9519 75.2978 77.3451 75.4629C77.7383 75.6281 78.0293 75.864 78.2102 76.1668H77.4513C77.3176 75.9781 77.121 75.8326 76.8693 75.7303C76.6176 75.6281 76.3149 75.577 75.9609 75.577C75.607 75.577 75.316 75.6281 75.0486 75.7303C74.7773 75.8326 74.5689 75.9781 74.4155 76.1668C74.2622 76.3556 74.1875 76.5758 74.1875 76.8274C74.1875 77.0791 74.2661 77.2954 74.4155 77.4841C74.565 77.6729 74.7812 77.8184 75.0486 77.9206C75.316 78.0229 75.6228 78.074 75.9609 78.074C76.2991 78.074 76.6176 78.0229 76.8693 77.9206C77.121 77.8184 77.3176 77.6729 77.4513 77.4841H78.2102C78.0293 77.7869 77.7423 78.0189 77.3451 78.1841C76.9519 78.3493 76.4879 78.4279 75.9609 78.4279C75.5087 78.4279 75.0998 78.3611 74.7301 78.2234C74.3605 78.0858 74.0695 77.897 73.8571 77.6532C73.6448 77.4094 73.5347 77.1342 73.5347 76.8274C73.5347 76.5207 73.6409 76.2455 73.8571 75.9977Z" fill="#009934"/>
<path d="M82.2209 75.5888V76.6426H83.9905V76.9808H82.2209V78.0661H84.1989V78.4043H81.5878V75.2506H84.1989V75.5888H82.2209Z" fill="#009934"/>
<path d="M88.2765 78.3257C88.0248 78.2509 87.8243 78.1487 87.6827 78.0189C87.5372 77.8892 87.4625 77.7358 87.4586 77.5667H88.1349C88.1585 77.7122 88.2529 77.8381 88.418 77.9403C88.5832 78.0425 88.8231 78.0937 89.1377 78.0937C89.4523 78.0937 89.6764 78.0465 89.8533 77.9482C90.0264 77.8498 90.1129 77.724 90.1129 77.5707C90.1129 77.4487 90.0618 77.3544 89.9595 77.2757C89.8573 77.1971 89.7314 77.142 89.5781 77.1027C89.4247 77.0634 89.2163 77.0201 88.9568 76.9769C88.6343 76.9218 88.3787 76.8668 88.186 76.8156C87.9934 76.7606 87.8282 76.678 87.6906 76.56C87.5529 76.4421 87.4861 76.2887 87.4861 76.0921C87.4861 75.9191 87.5529 75.7696 87.6866 75.6359C87.8203 75.5023 88.0091 75.4 88.2529 75.3292C88.4967 75.2584 88.7759 75.2191 89.0905 75.2191C89.5466 75.2191 89.9202 75.2938 90.2073 75.4393C90.4943 75.5848 90.6595 75.7814 90.6988 76.0253H90.0028C89.9792 75.9073 89.8809 75.8011 89.7118 75.7067C89.5388 75.6163 89.3107 75.5691 89.0276 75.5691C88.7641 75.5691 88.5478 75.6124 88.3787 75.7028C88.2096 75.7932 88.1271 75.9151 88.1271 76.0764C88.1271 76.1904 88.1782 76.2848 88.2765 76.3556C88.3748 76.4263 88.5006 76.4814 88.6461 76.5207C88.7916 76.56 88.9961 76.6033 89.2635 76.6505C89.5859 76.7055 89.8415 76.7645 90.0382 76.8196C90.2348 76.8746 90.3999 76.9611 90.5415 77.0752C90.6791 77.1932 90.7499 77.3465 90.7499 77.5471C90.7499 77.7004 90.687 77.8459 90.5612 77.9796C90.4353 78.1133 90.2505 78.2234 90.0028 78.3099C89.755 78.3925 89.468 78.4358 89.1337 78.4358C88.7995 78.4358 88.5282 78.4004 88.2726 78.3257H88.2765Z" fill="#009934"/>
<path d="M58.4028 65.1602V66.7056H51.4505C50.9904 66.7056 51.014 67.5039 51.0887 67.8146C51.1438 68.0505 51.4387 68.082 51.651 68.1016C53.2594 68.2392 55.1508 67.9247 56.7316 68.1016C58.6427 68.3218 59.0084 71.3654 57.463 72.2581C57.345 72.3249 56.8928 72.5294 56.7866 72.5294H49.4843V71.0587L49.559 70.984H56.5389C56.5822 70.984 56.7827 70.8149 56.8024 70.7481C56.8692 70.52 56.8889 69.6903 56.5271 69.647C54.8716 69.5369 53.0942 69.7571 51.4544 69.6352C49.85 69.5133 49.2091 68.1095 49.559 66.6427C49.7163 65.9821 50.5067 65.1484 51.2067 65.1484H58.4107L58.4028 65.1602Z" fill="#000264"/>
<path d="M70.6796 66.8315C70.7071 66.5523 70.7779 66.277 70.9627 66.0607C71.1004 65.8917 71.2065 65.7226 71.3874 65.5889C71.5801 65.4473 71.8003 65.3529 72.0284 65.29C72.4256 65.1838 72.8424 65.176 73.2514 65.1681C74.4193 65.1484 75.5832 65.1327 76.7511 65.1131C77.3292 65.1052 77.919 65.0973 78.4735 65.2586C79.0279 65.4198 79.5588 65.7776 79.7829 66.3085C79.9324 66.6663 79.9363 67.0674 79.9363 67.4567C79.9363 69.1516 79.9363 70.8464 79.9363 72.5373C79.4054 72.5373 78.8746 72.5373 78.3437 72.5373C78.3437 71.5739 78.3437 70.6104 78.3437 69.647C76.354 69.647 74.3681 69.647 72.3784 69.647C72.3351 69.647 72.2919 69.647 72.2604 69.6745C72.2172 69.7099 72.2132 69.7729 72.2132 69.8279C72.2132 70.7323 72.2132 71.6328 72.2132 72.5373C71.6981 72.5373 71.183 72.5373 70.6678 72.5373C70.6678 70.7953 70.6678 69.0572 70.6678 67.3152C70.6678 67.1579 70.6678 66.9927 70.6875 66.8315H70.6796ZM72.2172 67.0831C72.1621 67.3741 72.1896 67.7045 72.2289 67.9836C72.2329 68.0112 72.2368 68.0426 72.2565 68.0662C72.2879 68.1016 72.3391 68.1056 72.3862 68.1056C74.3681 68.1056 76.354 68.1056 78.3359 68.1056C78.3359 67.8067 78.3398 67.5078 78.3437 67.209C78.3437 67.1146 78.3437 67.0163 78.3005 66.9298C78.2454 66.8236 78.1314 66.7568 78.0173 66.7292C77.6988 66.6585 77.3213 66.7332 76.9989 66.7371C76.6371 66.7371 76.2753 66.7332 75.9135 66.7214C75.19 66.6978 74.4664 66.6585 73.7468 66.6624C73.4204 66.6624 73.0941 66.6703 72.7677 66.7017C72.5789 66.7174 72.2958 66.7646 72.2368 66.9848C72.229 67.0202 72.2211 67.0517 72.2132 67.0871L72.2172 67.0831Z" fill="#000264"/>
<path d="M28.2972 72.5373V68.1016H29.8937V70.9919H35.3518C35.5838 70.9919 35.6625 70.5475 35.6782 70.3706C35.7411 69.5645 35.7293 68.2904 35.6782 67.4803C35.6664 67.3073 35.6349 66.7056 35.4029 66.7056H28.3011V65.1602H35.6035C36.3467 65.1602 37.1646 66.1669 37.2236 66.8787C37.2904 67.6455 37.3258 70.5043 37.1567 71.1531C37.0034 71.7351 36.2208 72.5373 35.5995 72.5373H28.2972Z" fill="#000264"/>
<path d="M40.3101 65.1602V70.7677C40.3101 70.7913 40.4242 70.9486 40.4595 70.9683H46.2912C46.3226 70.9408 46.4406 70.8307 46.4406 70.8189V65.1602H48.0371V70.6694C48.0371 71.6211 47.2743 72.4862 46.3187 72.5412C44.4076 72.4233 42.3235 72.6906 40.432 72.5412C39.559 72.4704 38.7136 71.68 38.7136 70.7717V65.2389L38.7883 65.1642H40.3101V65.1602Z" fill="#000264"/>
<path d="M12.9961 65.1602V72.5373H11.4507V69.7217L11.376 69.647H5.32025V72.5373H3.72372V68.1016H11.376L11.4507 68.0269V65.1602H12.9961Z" fill="#000264"/>
<path d="M25.2574 72.5373V67.0792C25.2574 66.9848 25.0254 66.7056 24.935 66.7056H17.5343V65.1602H25.1866C25.3439 65.1602 25.9141 65.467 26.0596 65.5849C26.7556 66.1394 26.8225 66.8393 26.8579 67.6769C26.9286 69.2223 26.7989 70.8189 26.8579 72.3682L26.7792 72.5412H25.2574V72.5373Z" fill="#000264"/>
<path d="M90.6991 72.5373H89.1537V67.3269C89.1537 67.2837 89.075 66.9298 89.0475 66.8826C89.0082 66.8158 88.8391 66.7017 88.7801 66.7017H81.4267V65.1563H89.0279C89.7711 65.1563 90.6991 66.2456 90.6991 66.977V72.5333V72.5373Z" fill="#000264"/>
<path d="M69.1693 65.1602H59.8969V66.7056H69.1693V65.1602Z" fill="#000264"/>
<path d="M16.0872 65.1602H14.4906V72.5373H16.0872V65.1602Z" fill="#000264"/>
<path d="M19.1268 68.1016H17.5303V72.5373H19.1268V68.1016Z" fill="#000264"/>
<path d="M65.2801 68.1016H63.7347V72.5373H65.2801V68.1016Z" fill="#000264"/>
<path d="M82.9721 68.1016H81.4267V72.5373H82.9721V68.1016Z" fill="#000264"/>
<path d="M5.32025 65.1602V66.6309L5.24553 66.7056H3.72372V65.1602H5.32025Z" fill="#000264"/>
<path d="M50.6637 31.476V46.871C50.6637 47.394 50.2469 47.8187 49.7396 47.8187H44.2344C43.7232 47.8187 43.3103 47.394 43.3103 46.871V31.4642C43.3103 31.2951 43.44 31.1614 43.6052 31.1614C43.6878 31.1614 43.7586 31.1968 43.8057 31.2479C44.6237 32.0501 45.7404 32.5495 46.9752 32.5495C48.2099 32.5495 49.3149 32.0619 50.1328 31.2597C50.1918 31.1968 50.2626 31.1614 50.357 31.1614C50.5222 31.1614 50.6637 31.3069 50.6637 31.476Z" fill="#000264"/>
<path d="M49.7397 8.77858H49.4566C49.3858 8.77858 49.3268 8.71566 49.3268 8.65668V8.27524C49.3268 8.20053 49.2796 8.14155 49.2089 8.14155H44.7575C44.6867 8.14155 44.6277 8.20446 44.6277 8.27524V8.65668C44.6277 8.7196 44.5805 8.77858 44.5097 8.77858H44.2384C43.7272 8.77858 43.3143 9.20721 43.3143 9.73414V25.3297C43.3143 25.5028 43.4441 25.6365 43.6092 25.6365C43.6918 25.6365 43.7626 25.6011 43.8098 25.5499C44.6277 24.7399 45.7445 24.2365 46.9792 24.2365C48.214 24.2365 49.3032 24.7163 50.1251 25.5381C50.1605 25.5893 50.1959 25.6129 50.2431 25.6365C50.2784 25.6482 50.3138 25.66 50.361 25.66C50.538 25.66 50.6677 25.5106 50.6677 25.3415V9.73414C50.6677 9.20721 50.2509 8.77858 49.7437 8.77858H49.7397ZM47.4354 8.77858H46.5113C46.4169 8.77858 46.3461 8.70387 46.3461 8.61736C46.3461 8.51905 46.4169 8.44433 46.5113 8.44433H47.4354C47.5297 8.44433 47.6005 8.51905 47.6005 8.61736C47.6005 8.70387 47.5297 8.77858 47.4354 8.77858Z" fill="#000264"/>
<path opacity="0.2" d="M43.0667 27.0678C43.0667 27.1032 43.0667 27.1268 43.0549 27.1504C43.0549 27.174 43.0431 27.1858 43.0431 27.1976C42.9251 27.5908 42.8661 27.9919 42.8661 28.4323C42.8661 28.7784 42.9015 29.1087 42.9841 29.4272C42.9959 29.4626 43.0077 29.5098 43.0077 29.5452C43.0077 29.7103 42.8779 29.8558 42.7128 29.8558H42.406V47.8344H39.2956V8.75499H42.406V26.7454H42.8111C42.9644 26.7808 43.0706 26.9105 43.0706 27.0639L43.0667 27.0678Z" fill="#009934"/>
<path opacity="0.2" d="M50.955 26.9263C50.955 26.9617 50.955 26.9852 50.9668 27.0088C50.9668 27.0324 50.9786 27.0442 50.9786 27.056C51.0927 27.4493 51.1477 27.8504 51.1477 28.2908C51.1477 28.6368 51.1123 28.9671 51.0337 29.2857C51.0219 29.321 51.0101 29.3682 51.0101 29.4036C51.0101 29.5688 51.1359 29.7143 51.2932 29.7143H51.5881V47.6929H54.5649V8.61343H51.5881V26.6038H51.2028C51.0534 26.6392 50.9511 26.769 50.9511 26.9223L50.955 26.9263Z" fill="#009934"/>
<path d="M38.3875 8.29098C38.5684 9.06565 38.5684 9.87178 38.5684 10.67C38.5684 25.55 38.5605 40.4299 38.5605 55.3098C38.5605 55.5693 38.5212 55.8839 38.2813 55.9783C38.006 56.0844 37.7465 55.8013 37.5892 55.5497C36.3309 53.5796 35.0725 51.6095 33.8102 49.6394C33.5114 49.1754 33.2125 48.6995 33.0474 48.1726C32.8625 47.5788 32.8625 46.9497 32.8625 46.3284C32.8625 31.1574 32.8665 15.9826 32.8704 0.811706C32.8704 0.544308 32.953 0.155008 33.2243 0.0252412C33.358 -0.037676 33.4839 0.0252412 33.5782 0.123549C33.708 0.261181 33.7984 0.446 33.9007 0.607225C34.3411 1.29931 34.7815 1.9914 35.218 2.68742C35.6584 3.37951 36.0988 4.0716 36.5353 4.76762C36.728 5.07434 36.9207 5.37713 37.1173 5.68385C37.5931 6.43493 38.0768 7.1978 38.3206 8.05111C38.3442 8.13369 38.3639 8.21627 38.3835 8.29885L38.3875 8.29098Z" fill="#009934"/>
<path d="M55.5912 8.29098C55.4103 9.06565 55.4103 9.87178 55.4103 10.67C55.4103 25.55 55.4182 40.4299 55.4182 55.3098C55.4182 55.5693 55.4575 55.8839 55.6974 55.9783C55.9727 56.0844 56.2322 55.8013 56.3895 55.5497C57.6478 53.5796 58.9062 51.6095 60.1685 49.6394C60.4673 49.1754 60.7662 48.6995 60.9313 48.1726C61.1161 47.5788 61.1161 46.9497 61.1161 46.3284C61.1161 31.1574 61.1122 15.9826 61.1083 0.811706C61.1083 0.544308 61.0257 0.155008 60.7544 0.0252412C60.6207 -0.037676 60.4948 0.0252412 60.4005 0.123549C60.2707 0.261181 60.1803 0.446 60.078 0.607225C59.6376 1.29931 59.1972 1.9914 58.7607 2.68742C58.3242 3.38345 57.8798 4.0716 57.4434 4.76762C57.2507 5.07434 57.058 5.37713 56.8614 5.68385C56.3856 6.43493 55.9019 7.1978 55.6581 8.05111C55.6345 8.13369 55.6148 8.21627 55.5952 8.29885L55.5912 8.29098Z" fill="#009934"/>
<path d="M31.3445 31.0749V31.1103C31.262 31.9754 30.5266 32.6517 29.6458 32.6517H25.9769C25.4185 32.6517 24.9309 32.3922 24.6242 31.9754L24.4001 31.6057C24.4001 31.6057 24.4001 31.5939 24.3883 31.5821L22.9176 29.0537C20.7587 28.9947 18.6196 29.1834 16.4843 28.7705C13.9558 28.2947 10.6566 26.6825 9.59094 24.2012C9.52015 24.0478 9.17411 23.2495 9.44937 23.2495H11.6908V21.7199L0 19.5374L11.2858 19.4313C12.0565 16.5253 15.7726 16.4388 16.4489 19.4313L27.8527 19.5374L16.1736 21.7317V23.1788L29.3823 23.2849H29.8227C30.5935 23.3793 31.1873 24.0085 31.258 24.7792L31.2698 25.0977L31.3288 30.7092V30.721L31.3406 31.067L31.3445 31.0749Z" fill="#000264"/>
<path d="M62.6223 31.0749V31.1103C62.7049 31.9754 63.4402 32.6517 64.321 32.6517H67.9899C68.5483 32.6517 69.0359 32.3922 69.3426 31.9754L69.5668 31.6057C69.5668 31.6057 69.5668 31.5939 69.5786 31.5821L71.0493 29.0537C73.2081 28.9947 75.3473 29.1834 77.4825 28.7705C80.011 28.2947 83.3102 26.6825 84.3759 24.2012C84.4467 24.0478 84.7927 23.2495 84.5175 23.2495H82.276V21.7199L93.9668 19.5374L82.6811 19.4313C81.9103 16.5253 78.1943 16.4388 77.5179 19.4313L66.1142 19.5374L77.7932 21.7317V23.1788L64.5845 23.2849H64.1441C63.3734 23.3793 62.7796 24.0085 62.7088 24.7792L62.697 25.0977L62.638 30.7092V30.721L62.6262 31.067L62.6223 31.0749Z" fill="#000264"/>
<path d="M47.829 28.3773C47.829 28.4048 47.829 28.4284 47.8251 28.4559C47.8093 28.625 47.7464 28.7784 47.6481 28.9042C47.6284 28.8964 47.6048 28.8964 47.5813 28.8964C47.4358 28.8964 47.3178 29.0143 47.3178 29.1598C47.2155 29.2031 47.1015 29.2267 46.9835 29.2267C46.7633 29.2267 46.5588 29.1402 46.4094 29.0025C46.2403 28.8492 46.1342 28.625 46.1342 28.3773C46.1342 28.3655 46.1342 28.3537 46.1342 28.3419C46.142 28.1492 46.2128 27.9762 46.3229 27.8346C46.3583 27.8504 46.3937 27.8582 46.433 27.8582C46.5785 27.8582 46.6965 27.7403 46.6965 27.5948C46.6965 27.5869 46.6965 27.579 46.6965 27.5712C46.7869 27.5397 46.8813 27.5201 46.9796 27.5201C47.2195 27.5201 47.4358 27.6184 47.5891 27.7796C47.7385 27.9329 47.829 28.1414 47.829 28.3694V28.3773Z" fill="#010263"/>
<path d="M46.7317 24.6888C49.1737 24.5551 51.0454 26.6549 50.605 29.0694C50.2039 31.2872 47.8603 32.6753 45.7211 31.8731C43.9279 31.2007 42.9449 29.2935 43.4246 27.4257C43.81 25.9275 45.1745 24.7753 46.7317 24.6927V24.6888ZM46.8772 25.1213C44.4234 25.2078 42.9488 27.8858 44.1718 30.021C45.3672 32.1051 48.3046 32.227 49.6613 30.2373C51.1634 28.0352 49.5354 25.027 46.8733 25.1213H46.8772Z" fill="#040403"/>
<path d="M46.8655 26.9813C46.2442 27.0246 45.7172 27.5043 45.6111 28.1178C45.3869 29.3722 46.8144 30.2727 47.8289 29.4783C48.9221 28.6211 48.2496 26.883 46.8655 26.9813ZM46.02 28.6958C45.9139 28.3616 45.9768 27.9762 46.193 27.697C46.1813 27.6655 46.1734 27.6341 46.1734 27.5987C46.1734 27.4532 46.2914 27.3352 46.4368 27.3352C46.5076 27.3352 46.5705 27.3628 46.6177 27.4099C46.8537 27.3234 47.1447 27.347 47.357 27.4965C47.4514 27.5672 47.534 27.6734 47.589 27.7874C47.589 27.7874 47.589 27.7953 47.593 27.7953C47.6244 27.8464 47.6441 27.9133 47.6559 27.9762C47.6559 27.988 47.6677 28.1453 47.6677 28.1453C47.593 28.1138 47.5497 28.0509 47.4946 27.9959C47.3452 27.8464 47.1211 27.7717 46.9166 27.7835C46.7003 27.7953 46.4998 27.8897 46.3385 28.0391C46.252 28.1217 46.1773 28.2239 46.1301 28.3419C46.0751 28.4677 46.0515 28.6054 46.0672 28.7391C46.0475 28.7391 46.024 28.7155 46.0161 28.6958H46.02ZM47.5851 28.6211C47.5222 28.7509 47.3177 28.8806 47.1761 28.9121C47.1447 28.9121 46.9834 28.9435 47.0385 28.8806C47.0582 28.8492 47.1565 28.8374 47.1997 28.8177C47.2744 28.7863 47.3609 28.7312 47.416 28.6801C47.4475 28.6486 47.534 28.5424 47.5536 28.5307C47.6283 28.5189 47.6087 28.5857 47.5851 28.625V28.6211ZM46.9638 27.8582C46.952 27.8897 46.8144 27.9211 46.7829 27.9447C46.72 27.9762 46.6335 28.0195 46.5784 28.0745C46.547 28.106 46.4604 28.2239 46.4172 28.2239C46.3425 28.2239 46.429 28.0942 46.4486 28.0627C46.547 27.9447 46.7396 27.8386 46.8969 27.8268C46.9166 27.8268 46.9716 27.815 46.9598 27.8582H46.9638ZM47.8446 29.1598C47.8446 29.3053 47.7267 29.4233 47.5812 29.4233C47.4986 29.4233 47.4239 29.384 47.3767 29.325C47.1643 29.4036 46.9284 29.4036 46.7396 29.3093C46.602 29.2385 46.484 29.1323 46.4093 29.0025C46.3661 28.9318 46.3385 28.857 46.3228 28.7745C46.311 28.7115 46.311 28.6447 46.3346 28.5818C46.429 28.6761 46.5155 28.7745 46.6256 28.8492C46.8183 28.9671 47.0542 28.9986 47.2705 28.9357C47.4868 28.8728 47.6677 28.7115 47.7974 28.5267C47.8092 28.5031 47.821 28.4795 47.8328 28.4559C47.8918 28.338 47.9311 28.2121 47.9036 28.0784C47.9036 28.0548 47.9036 28.047 47.9154 28.0352C47.9351 28.0352 47.9587 28.0666 47.9705 28.0981C47.9901 28.1414 48.0019 28.1925 48.0137 28.2475C48.0452 28.5267 47.9744 28.8138 47.825 29.0419C47.8446 29.0772 47.8525 29.1166 47.8525 29.1598H47.8446Z" fill="#040403"/>
<path d="M48.1984 29.5255V29.6042C48.0961 30.1114 48.0804 30.6659 47.9782 31.1732C47.9782 31.185 47.9742 31.2086 47.9703 31.2164C47.9585 31.24 47.8091 31.2833 47.7698 31.2911C46.8771 31.5389 45.8665 31.3423 45.1587 30.7485L48.2023 29.5255H48.1984Z" fill="#010263"/>
<path d="M45.7446 27.2448L45.9687 25.5499C45.9845 25.5224 46.2794 25.4477 46.3305 25.4359C47.1091 25.2668 48.0686 25.4162 48.7056 25.9078C48.7292 25.9235 48.8 25.9707 48.7607 25.9982C47.7579 26.419 46.7513 26.8397 45.7407 27.2448H45.7446Z" fill="#010263"/>
<path d="M48.1353 31.1496L48.5875 27.8779L49.9166 28.8964C49.9284 28.9239 49.9009 29.0497 49.893 29.089C49.7121 29.907 49.1223 30.6462 48.3909 31.0395C48.3594 31.0552 48.151 31.1614 48.1392 31.1496H48.1353Z" fill="#010263"/>
<path d="M45.8073 25.6247L45.3708 28.861L44.0614 27.8543C44.0614 27.8543 44.0496 27.8425 44.0496 27.8307C44.0338 27.7599 44.1164 27.5004 44.14 27.4178C44.372 26.6943 44.9461 26.014 45.6343 25.6836C45.6618 25.6719 45.7916 25.6089 45.8073 25.6247Z" fill="#010263"/>
<path d="M49.9485 28.7194L47.3532 26.7414L48.8553 26.1201C48.9104 26.1005 48.9222 26.0847 48.9772 26.1201C49.0755 26.1909 49.2171 26.3521 49.2997 26.4505C49.8148 27.0718 50.0586 27.9172 49.9524 28.7194H49.9485Z" fill="#010263"/>
<path d="M46.5784 30.0131L45.088 30.6069C45.0291 30.6266 45.0251 30.6423 44.9701 30.599C44.6358 30.3395 44.3212 29.8165 44.1758 29.4233C44.0145 28.9829 43.9516 28.4835 44.0185 28.0155C44.0303 28.0076 44.2229 28.1571 44.2465 28.1767C45.0291 28.7705 45.7959 29.384 46.5705 29.9856V30.0131H46.5784Z" fill="#010263"/>
<path d="M59.4253 83.9882H57.0777C56.6963 83.9882 56.3777 83.6461 56.3777 83.2725V81.3142C56.3777 80.9249 56.7592 80.5749 57.1445 80.5749H59.2995C59.7438 80.571 60.1135 80.9131 60.1135 81.3614V83.2765C60.1135 83.6422 59.8067 83.9921 59.4214 83.9921L59.4253 83.9882ZM59.2955 83.304C59.3938 83.304 59.4646 83.2214 59.4646 83.1349V81.4204C59.4646 81.3103 59.3545 81.2631 59.2601 81.267H57.2075C57.1052 81.267 57.0344 81.3535 57.0344 81.4558V83.1388C57.0344 83.2371 57.121 83.3079 57.2114 83.3079H59.2995L59.2955 83.304Z" fill="#000264"/>
<path d="M65.4457 82.7338V84H64.789V82.0456H67.6085C67.7068 82.0456 67.7736 81.967 67.7776 81.8805V81.4637C67.7776 81.3653 67.6989 81.2985 67.6006 81.2985H64.789V80.571H67.6793C68.0961 80.6103 68.4303 80.9485 68.4303 81.3693V81.9631C68.4303 82.372 68.1 82.6905 67.6989 82.7259C67.5888 82.7377 67.4866 82.7259 67.3686 82.7338L68.4343 83.9921H67.5495L66.5625 82.7299H65.4418L65.4457 82.7338Z" fill="#000264"/>
<path d="M63.5699 80.571H64.2227V83.2843C64.2109 83.65 63.9199 83.9882 63.5385 83.9882H61.3836C60.9825 83.9882 60.6915 83.654 60.6718 83.2686V80.5671H61.3246V83.127C61.3324 83.2253 61.3993 83.3 61.4976 83.3H63.393C63.4952 83.3 63.5621 83.2214 63.566 83.1231V80.571H63.5699Z" fill="#000264"/>
<path d="M55.8151 81.8687C55.7954 82.3012 55.4572 82.6512 55.0247 82.6552H54.3523V84H53.6916V82.6591L52.9248 82.6512C52.4883 82.6512 52.158 82.2737 52.158 81.8372V80.5671H52.8147V81.7861C52.8265 81.8687 52.8816 81.9591 52.9799 81.9591H55.005C55.0955 81.9591 55.1466 81.8726 55.1623 81.7979V80.5671H55.819V81.8608L55.8151 81.8687Z" fill="#000264"/>
<path d="M81.336 82.6355V83.1074C81.336 83.1978 81.3949 83.2647 81.4854 83.2725H84.238V83.9921H81.4382C80.9781 83.9646 80.6517 83.5792 80.6517 83.1231L80.6596 81.3929C80.6596 80.9446 81.0332 80.5828 81.4815 80.571H84.2341V81.2946H81.4657C81.3871 81.3142 81.332 81.3811 81.332 81.4637V81.9198H84.0532V82.6355H81.332H81.336Z" fill="#000264"/>
<path d="M80.1169 83.1664C80.1169 83.6186 79.7079 84.0118 79.2439 83.9882H76.4795V83.2686H79.2911C79.3697 83.2607 79.4405 83.2017 79.4405 83.1231V82.7849C79.4405 82.7141 79.3815 82.6355 79.3029 82.6355H77.317C76.8609 82.6355 76.4795 82.2698 76.4795 81.8136V81.3889C76.4795 80.9367 76.853 80.5789 77.3052 80.5671H80.0854V81.2906H77.2974C77.2187 81.3024 77.1558 81.3614 77.1558 81.4401V81.7664C77.1558 81.8451 77.2227 81.9237 77.3052 81.9237H79.3107C79.7394 81.9237 80.1169 82.3209 80.1208 82.7456V83.1624L80.1169 83.1664Z" fill="#000264"/>
<path d="M72.7596 82.7338H71.6978V83.9882H71.0215V82.0142H73.841C73.9314 82.0142 73.9904 81.9434 73.9943 81.8569V81.444C73.9943 81.3536 73.9117 81.2906 73.8252 81.2906H71.0215V80.5671H73.8567C74.3089 80.5946 74.6707 80.9603 74.6707 81.4086V81.8805C74.6707 82.2934 74.3561 82.6434 73.955 82.7181C73.8528 82.7377 73.7544 82.7259 73.6443 82.7338L74.6825 83.9843H73.7898L72.7635 82.7299L72.7596 82.7338Z" fill="#000264"/>
<path d="M75.9055 83.9882H75.2291V80.5671L75.9055 80.571V83.9882Z" fill="#000264"/>
<path d="M49.3309 82.6394H48.4775V81.9159H50.0151L50.0112 83.6264C50.0112 83.8309 49.8303 83.9764 49.6376 83.9843H47.1327C46.6883 83.9804 46.3226 83.6107 46.3226 83.1664V81.4283C46.3226 80.9564 46.6962 80.5789 47.1641 80.5632H50.0151V81.2867H47.1917C47.0934 81.2867 47.0029 81.3614 47.0029 81.4676V83.068C47.0029 83.1742 47.0855 83.2529 47.1877 83.2607H49.3348V82.6355L49.3309 82.6394Z" fill="#000264"/>
<path d="M41.7378 80.571H41.0536V83.9921H41.7378V80.571Z" fill="#000264"/>
<path d="M45.1939 83.9882V81.4676C45.1939 81.3575 45.0877 81.2828 44.9855 81.2946H42.1817V80.5671H45.0444C45.5281 80.5907 45.8781 80.9761 45.8742 81.4558V83.9882H45.1939Z" fill="#000264"/>
<path d="M42.1817 83.9882V81.9001L42.5317 81.8962L42.862 81.9001V83.9882H42.1817Z" fill="#000264"/>
<path d="M26.3071 83.9882H23.9595C23.5781 83.9882 23.2596 83.6461 23.2596 83.2725V81.3142C23.2596 80.9249 23.641 80.5749 24.0264 80.5749H26.1813C26.6257 80.571 26.9953 80.9131 26.9953 81.3614V83.2765C26.9953 83.6422 26.6886 83.9921 26.3032 83.9921L26.3071 83.9882ZM26.1774 83.304C26.2757 83.304 26.3465 83.2214 26.3465 83.1349V81.4204C26.3465 81.3103 26.2364 81.2631 26.142 81.267H24.0893C23.9871 81.267 23.9163 81.3535 23.9163 81.4558V83.1388C23.9163 83.2371 24.0028 83.3079 24.0932 83.3079H26.1813L26.1774 83.304Z" fill="#000264"/>
<path d="M33.6018 82.6355V83.1074C33.6018 83.1978 33.6608 83.2647 33.7513 83.2725H36.5039V83.9921H33.7041C33.244 83.9646 32.9176 83.5792 32.9176 83.1231L32.9255 81.3929C32.9255 80.9446 33.299 80.5828 33.7473 80.571H36.4999V81.2946H33.7316C33.6529 81.3142 33.5979 81.3811 33.5979 81.4637V81.9198H36.3191V82.6355H33.5979H33.6018Z" fill="#000264"/>
<path d="M11.2779 82.6355V83.1074C11.2779 83.1978 11.3369 83.2647 11.4273 83.2725H14.1799V83.9921H11.3801C10.92 83.9646 10.5937 83.5792 10.5937 83.1231L10.6015 81.3929C10.6015 80.9446 10.9751 80.5828 11.4234 80.571H14.176V81.2946H11.4076C11.329 81.3142 11.274 81.3811 11.274 81.4637V81.9198H13.9951V82.6355H11.274H11.2779Z" fill="#000264"/>
<path d="M38.6901 82.7338H37.6284V83.9882H36.952V82.0142H39.7715C39.8619 82.0142 39.9209 81.9434 39.9249 81.8569V81.444C39.9249 81.3536 39.8423 81.2906 39.7558 81.2906H36.952V80.5671H39.7872C40.2394 80.5946 40.6012 80.9603 40.6012 81.4086V81.8805C40.6012 82.2934 40.2866 82.6434 39.8855 82.7181C39.7833 82.7377 39.685 82.7259 39.5749 82.7338L40.613 83.9843H39.7204L38.694 82.7299L38.6901 82.7338Z" fill="#000264"/>
<path d="M20.9042 82.7338H19.8425V83.9882H19.1661V82.0142H21.9856C22.076 82.0142 22.135 81.9434 22.1389 81.8569V81.444C22.1389 81.3536 22.0564 81.2906 21.9699 81.2906H19.1661V80.5671H22.0013C22.4535 80.5946 22.8153 80.9603 22.8153 81.4086V81.8805C22.8153 82.2934 22.5007 82.6434 22.0996 82.7181C21.9974 82.7377 21.8991 82.7259 21.789 82.7338H20.9081H20.9042Z" fill="#000264"/>
<path d="M32.473 80.571C32.4376 80.7126 31.4073 83.8466 31.4073 83.8466C31.3876 83.9135 31.3169 83.9882 31.2539 83.9882H30.8332C30.7506 83.9882 30.6759 83.9292 30.6523 83.8466L30.0074 81.7193C29.9995 81.6917 29.9877 81.6681 29.9799 81.6563C29.972 81.6445 29.9169 81.6839 29.9091 81.7153L29.2524 83.8113C29.217 83.9174 29.158 83.9921 29.0518 83.9921H28.6861C28.58 83.9921 28.5131 83.9174 28.4816 83.8191L27.4435 80.5749H28.112C28.1907 80.7834 28.8277 83.0956 28.8788 83.0523C28.8867 83.0444 28.9103 83.0169 28.9142 83.0051L29.5945 80.7794C29.6338 80.6497 29.7125 80.571 29.854 80.571H30.086C30.1765 80.571 30.2905 80.6221 30.322 80.7283L30.9905 82.9933C30.9983 83.0208 31.0259 83.0444 31.0377 83.0523C31.0495 83.0602 31.073 83.0248 31.077 83.013L31.8241 80.5749H32.4769L32.473 80.571Z" fill="#000264"/>
<path d="M14.6281 83.9921V83.2253V81.5384V81.0193C14.6281 80.8817 14.6753 80.744 14.7854 80.6615C15.0134 80.4884 15.328 80.5749 15.4578 80.8266L16.6729 83.1939L17.2667 82.0378L17.8998 80.807C18.0177 80.6064 18.2537 80.516 18.4739 80.6103C18.6037 80.6654 18.7177 80.7991 18.7177 80.9525V83.9921H18.0767V81.7586L17.3964 83.0916L17.0661 83.7483C16.9757 83.9253 16.7987 84.0197 16.5982 83.9843C16.4723 83.9607 16.3622 83.8899 16.3033 83.7719L15.4971 82.1833L15.2769 81.7625V83.9961H14.6359L14.6281 83.9921Z" fill="#000264"/>
</svg>
