<svg width="145" height="130" viewBox="0 0 145 130" fill="none" xmlns="http://www.w3.org/2000/svg">
<path d="M10.1275 116.422C10.7282 116.617 11.1833 116.902 11.5049 117.272C11.8265 117.636 11.9843 118.073 11.9843 118.57C11.9843 119.068 11.8265 119.499 11.5049 119.863C11.1833 120.227 10.7282 120.506 10.1275 120.7C9.52674 120.895 8.82286 120.992 8.00368 120.992H5.67358V116.131H8.00368C8.82286 116.131 9.52674 116.228 10.1275 116.428V116.422ZM10.2185 119.966C10.7282 119.632 10.983 119.171 10.983 118.57C10.983 117.97 10.7282 117.496 10.2124 117.157C9.69664 116.817 8.96242 116.647 8.00368 116.647H6.65053V120.47H8.00368C8.96849 120.47 9.70878 120.3 10.2185 119.972V119.966Z" fill="white"/>
<path d="M20.977 120.986L19.193 119.001H18.0098V120.986H17.0328V116.125H19.454C20.0183 116.125 20.4976 116.186 20.886 116.313C21.2743 116.441 21.5717 116.611 21.7598 116.823C21.954 117.035 22.051 117.278 22.051 117.557C22.051 117.891 21.8993 118.188 21.6081 118.443C21.3107 118.698 20.8617 118.868 20.2671 118.953L22.1481 120.986H20.977ZM18.0098 118.492H19.4479C19.9758 118.492 20.3763 118.407 20.6433 118.237C20.9103 118.067 21.0438 117.842 21.0438 117.557C21.0438 117.272 20.9103 117.047 20.6493 116.89C20.3884 116.732 19.9879 116.653 19.454 116.653H18.0158V118.492H18.0098Z" fill="white"/>
<path d="M28.8228 120.719C28.2524 120.506 27.7973 120.209 27.4636 119.833C27.1298 119.456 26.966 119.026 26.966 118.552C26.966 118.079 27.1298 117.654 27.4636 117.272C27.7973 116.896 28.2524 116.598 28.8228 116.386C29.3932 116.174 30.0303 116.07 30.7221 116.07C31.4138 116.07 32.0631 116.18 32.6335 116.386C33.2039 116.598 33.659 116.89 33.9866 117.266C34.3143 117.642 34.4842 118.073 34.4842 118.546C34.4842 119.02 34.3204 119.45 33.9866 119.827C33.659 120.203 33.2039 120.494 32.6335 120.706C32.0631 120.919 31.4199 121.022 30.7221 121.022C30.0243 121.022 29.3932 120.919 28.8228 120.706V120.719ZM32.142 120.245C32.5607 120.087 32.8883 119.863 33.131 119.566C33.3738 119.274 33.4891 118.935 33.4891 118.546C33.4891 118.158 33.3677 117.818 33.131 117.527C32.8944 117.236 32.5607 117.011 32.148 116.853C31.7294 116.695 31.2621 116.617 30.7281 116.617C30.1942 116.617 29.7269 116.695 29.3082 116.853C28.8956 117.011 28.5619 117.236 28.3252 117.527C28.0825 117.818 27.9672 118.158 27.9672 118.546C27.9672 118.935 28.0886 119.268 28.3252 119.566C28.5679 119.857 28.8956 120.081 29.3143 120.245C29.733 120.403 30.2063 120.482 30.7281 120.482C31.25 120.482 31.7233 120.403 32.142 120.245Z" fill="white"/>
<path d="M45.4308 120.986H44.4538L40.5218 117.114V120.986H39.5449V116.119H40.5218L44.4538 119.978V116.119H45.4308V120.986Z" fill="white"/>
<path d="M51.8325 116.641V118.267H54.5631V118.789H51.8325V120.464H54.8847V120.986H50.8556V116.119H54.8847V116.641H51.8325Z" fill="white"/>
<path d="M67.8094 120.864C67.4211 120.749 67.1116 120.591 66.8932 120.391C66.6687 120.191 66.5534 119.954 66.5473 119.693H67.591C67.6274 119.918 67.773 120.112 68.0279 120.27C68.2827 120.427 68.6529 120.506 69.1383 120.506C69.6238 120.506 69.9696 120.433 70.2427 120.282C70.5097 120.13 70.6432 119.936 70.6432 119.699C70.6432 119.511 70.5643 119.365 70.4065 119.244C70.2488 119.123 70.0546 119.038 69.8179 118.977C69.5813 118.916 69.2597 118.85 68.8592 118.783C68.3616 118.698 67.9672 118.613 67.6699 118.534C67.3725 118.449 67.1177 118.322 66.9053 118.14C66.6929 117.958 66.5898 117.721 66.5898 117.418C66.5898 117.151 66.6929 116.92 66.8992 116.714C67.1056 116.507 67.3968 116.35 67.773 116.24C68.1492 116.131 68.5801 116.07 69.0655 116.07C69.7694 116.07 70.3458 116.186 70.7888 116.41C71.2378 116.635 71.4866 116.938 71.5473 117.314H70.4733C70.4369 117.132 70.2852 116.969 70.0242 116.823C69.7573 116.683 69.4053 116.611 68.9684 116.611C68.5619 116.611 68.2281 116.677 67.9672 116.817C67.7063 116.956 67.5789 117.145 67.5789 117.393C67.5789 117.569 67.6577 117.715 67.8094 117.824C67.9611 117.933 68.1553 118.018 68.3798 118.079C68.6043 118.14 68.9199 118.206 69.3325 118.279C69.8301 118.364 70.2245 118.455 70.5279 118.54C70.8313 118.625 71.0861 118.759 71.3046 118.935C71.517 119.117 71.6262 119.353 71.6262 119.663C71.6262 119.899 71.5291 120.124 71.3349 120.33C71.1407 120.537 70.8556 120.706 70.4733 120.84C70.091 120.967 69.648 121.034 69.1323 121.034C68.6165 121.034 68.1978 120.979 67.8034 120.864H67.8094Z" fill="white"/>
<path d="M77.8156 116.641V118.267H80.5462V118.789H77.8156V120.464H80.8678V120.986H76.8387V116.119H80.8678V116.641H77.8156Z" fill="white"/>
<path d="M90.0545 120.986L88.2706 119.001H87.0873V120.986H86.1104V116.125H88.5315C89.0958 116.125 89.5752 116.186 89.9635 116.313C90.3519 116.441 90.6492 116.611 90.8373 116.823C91.0315 117.035 91.1286 117.278 91.1286 117.557C91.1286 117.891 90.9769 118.188 90.6856 118.443C90.3883 118.698 89.9392 118.868 89.3446 118.953L91.2256 120.986H90.0545ZM87.0873 118.492H88.5254C89.0533 118.492 89.4538 118.407 89.7208 118.237C89.9878 118.067 90.1213 117.842 90.1213 117.557C90.1213 117.272 89.9878 117.047 89.7269 116.89C89.4659 116.732 89.0655 116.653 88.5315 116.653H87.0934V118.492H87.0873Z" fill="white"/>
<path d="M102.597 116.125L99.7694 120.986H98.6407L95.813 116.125H96.8567L99.2111 120.318L101.565 116.125H102.597Z" fill="white"/>
<path d="M108.41 116.125V120.986H107.433V116.125H108.41Z" fill="white"/>
<path d="M113.968 117.272C114.296 116.896 114.745 116.598 115.316 116.386C115.886 116.174 116.517 116.064 117.215 116.064C118.034 116.064 118.744 116.192 119.351 116.447C119.958 116.702 120.407 117.066 120.686 117.533H119.515C119.308 117.242 119.005 117.017 118.617 116.859C118.228 116.702 117.761 116.623 117.215 116.623C116.669 116.623 116.22 116.702 115.807 116.859C115.388 117.017 115.067 117.242 114.83 117.533C114.593 117.824 114.478 118.164 114.478 118.552C114.478 118.941 114.6 119.274 114.83 119.566C115.061 119.857 115.394 120.081 115.807 120.239C116.22 120.397 116.693 120.476 117.215 120.476C117.737 120.476 118.228 120.397 118.617 120.239C119.005 120.081 119.308 119.857 119.515 119.566H120.686C120.407 120.033 119.964 120.391 119.351 120.646C118.744 120.901 118.028 121.022 117.215 121.022C116.517 121.022 115.886 120.919 115.316 120.706C114.745 120.494 114.296 120.203 113.968 119.827C113.641 119.45 113.471 119.026 113.471 118.552C113.471 118.079 113.635 117.654 113.968 117.272Z" fill="white"/>
<path d="M126.875 116.641V118.267H129.606V118.789H126.875V120.464H129.927V120.986H125.898V116.119H129.927V116.641H126.875Z" fill="white"/>
<path d="M136.22 120.864C135.831 120.749 135.522 120.591 135.303 120.391C135.079 120.191 134.964 119.954 134.957 119.693H136.001C136.038 119.918 136.183 120.112 136.438 120.27C136.693 120.427 137.063 120.506 137.548 120.506C138.034 120.506 138.38 120.433 138.653 120.282C138.92 120.13 139.053 119.936 139.053 119.699C139.053 119.511 138.974 119.365 138.817 119.244C138.659 119.123 138.465 119.038 138.228 118.977C137.991 118.916 137.67 118.85 137.269 118.783C136.772 118.698 136.377 118.613 136.08 118.534C135.783 118.449 135.528 118.322 135.315 118.14C135.103 117.958 135 117.721 135 117.418C135 117.151 135.103 116.92 135.309 116.714C135.516 116.507 135.807 116.35 136.183 116.24C136.559 116.131 136.99 116.07 137.476 116.07C138.18 116.07 138.756 116.186 139.199 116.41C139.642 116.635 139.897 116.938 139.957 117.314H138.883C138.847 117.132 138.695 116.969 138.434 116.823C138.167 116.683 137.815 116.611 137.379 116.611C136.972 116.611 136.638 116.677 136.377 116.817C136.116 116.956 135.989 117.145 135.989 117.393C135.989 117.569 136.068 117.715 136.22 117.824C136.371 117.933 136.565 118.018 136.79 118.079C137.015 118.14 137.33 118.206 137.743 118.279C138.24 118.364 138.635 118.455 138.938 118.54C139.241 118.625 139.496 118.759 139.715 118.935C139.927 119.117 140.036 119.353 140.036 119.663C140.036 119.899 139.939 120.124 139.745 120.33C139.551 120.537 139.266 120.706 138.883 120.84C138.501 120.967 138.058 121.034 137.542 121.034C137.027 121.034 136.608 120.979 136.214 120.864H136.22Z" fill="white"/>
<path d="M90.1214 100.549V102.933H79.3933C78.6833 102.933 78.7197 104.165 78.835 104.645C78.92 105.009 79.3751 105.057 79.7027 105.087C82.1845 105.3 85.1032 104.814 87.5425 105.087C90.4916 105.427 91.0559 110.124 88.6712 111.501C88.4891 111.604 87.7913 111.92 87.6275 111.92H76.3593V109.651L76.4746 109.535H87.2452C87.312 109.535 87.6214 109.274 87.6518 109.171C87.7549 108.819 87.7853 107.539 87.227 107.472C84.6724 107.302 81.9297 107.642 79.3993 107.454C76.9236 107.266 75.9345 105.1 76.4746 102.836C76.7173 101.817 77.937 100.53 79.0171 100.53H90.1336L90.1214 100.549Z" fill="white"/>
<path d="M109.066 103.128C109.108 102.697 109.217 102.272 109.502 101.938C109.715 101.677 109.879 101.416 110.158 101.21C110.455 100.992 110.795 100.846 111.147 100.749C111.76 100.585 112.403 100.573 113.034 100.561C114.836 100.53 116.632 100.506 118.434 100.476C119.326 100.464 120.237 100.452 121.092 100.7C121.948 100.949 122.767 101.501 123.113 102.32C123.343 102.873 123.349 103.492 123.349 104.092C123.349 106.708 123.349 109.323 123.349 111.932C122.53 111.932 121.711 111.932 120.892 111.932C120.892 110.445 120.892 108.959 120.892 107.472C117.822 107.472 114.757 107.472 111.687 107.472C111.62 107.472 111.553 107.472 111.505 107.515C111.438 107.569 111.432 107.666 111.432 107.751C111.432 109.147 111.432 110.537 111.432 111.932C110.637 111.932 109.842 111.932 109.047 111.932C109.047 109.244 109.047 106.562 109.047 103.874C109.047 103.631 109.047 103.376 109.078 103.128H109.066ZM111.438 103.516C111.353 103.965 111.396 104.475 111.456 104.905C111.462 104.948 111.468 104.996 111.499 105.033C111.547 105.087 111.626 105.094 111.699 105.094C114.757 105.094 117.822 105.094 120.88 105.094C120.88 104.632 120.886 104.171 120.892 103.71C120.892 103.564 120.892 103.413 120.825 103.279C120.74 103.115 120.564 103.012 120.388 102.97C119.897 102.861 119.314 102.976 118.817 102.982C118.258 102.982 117.7 102.976 117.142 102.958C116.025 102.921 114.909 102.861 113.799 102.867C113.295 102.867 112.791 102.879 112.288 102.927C111.996 102.952 111.559 103.024 111.468 103.364C111.456 103.419 111.444 103.467 111.432 103.522L111.438 103.516Z" fill="white"/>
<path d="M43.665 111.932V105.087H46.1286V109.547H54.551C54.909 109.547 55.0303 108.862 55.0546 108.589C55.1517 107.345 55.1335 105.379 55.0546 104.129C55.0364 103.862 54.9879 102.933 54.6298 102.933H43.6711V100.549H54.9393C56.0862 100.549 57.3483 102.102 57.4393 103.2C57.5425 104.384 57.5971 108.795 57.3362 109.796C57.0995 110.694 55.892 111.932 54.9332 111.932H43.665Z" fill="white"/>
<path d="M62.2027 100.549V109.202C62.2027 109.238 62.3786 109.481 62.4333 109.511H71.432C71.4806 109.469 71.6626 109.299 71.6626 109.28V100.549H74.1262V109.05C74.1262 110.518 72.949 111.853 71.4745 111.938C68.5255 111.756 65.3095 112.169 62.3908 111.938C61.0437 111.829 59.7391 110.609 59.7391 109.208V100.67L59.8544 100.555H62.2027V100.549Z" fill="white"/>
<path d="M20.0546 100.549V111.932H17.6699V107.587L17.5546 107.472H8.20993V111.932H5.74634V105.087H17.5546L17.6699 104.972V100.549H20.0546Z" fill="white"/>
<path d="M38.9745 111.932V103.51C38.9745 103.364 38.6165 102.933 38.477 102.933H27.0571V100.549H38.8653C39.108 100.549 39.9879 101.022 40.2124 101.204C41.2864 102.06 41.3896 103.14 41.4442 104.432C41.5534 106.817 41.3532 109.28 41.4442 111.671L41.3228 111.938H38.9745V111.932Z" fill="white"/>
<path d="M139.958 111.932H137.573V103.892C137.573 103.825 137.451 103.279 137.409 103.206C137.348 103.103 137.087 102.927 136.996 102.927H125.649V100.543H137.379C138.526 100.543 139.958 102.223 139.958 103.352V111.926V111.932Z" fill="white"/>
<path d="M106.735 100.549H92.4272V102.933H106.735V100.549Z" fill="white"/>
<path d="M24.8241 100.549H22.3605V111.932H24.8241V100.549Z" fill="white"/>
<path d="M29.5146 105.087H27.051V111.932H29.5146V105.087Z" fill="white"/>
<path d="M100.734 105.087H98.3495V111.932H100.734V105.087Z" fill="white"/>
<path d="M128.034 105.087H125.649V111.932H128.034V105.087Z" fill="white"/>
<path d="M8.20993 100.549V102.818L8.09464 102.933H5.74634V100.549H8.20993Z" fill="white"/>
<path d="M78.1795 48.5705V72.3266C78.1795 73.1336 77.5363 73.7889 76.7536 73.7889H68.2584C67.4696 73.7889 66.8325 73.1336 66.8325 72.3266V48.5523C66.8325 48.2914 67.0327 48.0851 67.2876 48.0851C67.415 48.0851 67.5242 48.1397 67.597 48.2185C68.8592 49.4564 70.5825 50.227 72.4878 50.227C74.3931 50.227 76.0982 49.4746 77.3604 48.2368C77.4514 48.1397 77.5606 48.0851 77.7062 48.0851C77.9611 48.0851 78.1795 48.3096 78.1795 48.5705Z" fill="white"/>
<path d="M76.7535 13.5462H76.3167C76.2074 13.5462 76.1164 13.4491 76.1164 13.3581V12.7695C76.1164 12.6542 76.0436 12.5632 75.9344 12.5632H69.0654C68.9562 12.5632 68.8652 12.6603 68.8652 12.7695V13.3581C68.8652 13.4552 68.7924 13.5462 68.6832 13.5462H68.2645C67.4756 13.5462 66.8385 14.2076 66.8385 15.0207V39.0863C66.8385 39.3532 67.0387 39.5596 67.2936 39.5596C67.421 39.5596 67.5302 39.5049 67.6031 39.4261C68.8652 38.1761 70.5885 37.3994 72.4938 37.3994C74.3992 37.3994 76.08 38.1397 77.3482 39.4079C77.4028 39.4867 77.4574 39.5232 77.5302 39.5596C77.5849 39.5778 77.6395 39.596 77.7123 39.596C77.9853 39.596 78.1856 39.3654 78.1856 39.1045V15.0207C78.1856 14.2076 77.5424 13.5462 76.7596 13.5462H76.7535ZM73.1977 13.5462H71.7718C71.6261 13.5462 71.5169 13.4309 71.5169 13.2974C71.5169 13.1457 71.6261 13.0304 71.7718 13.0304H73.1977C73.3434 13.0304 73.4526 13.1457 73.4526 13.2974C73.4526 13.4309 73.3434 13.5462 73.1977 13.5462Z" fill="white"/>
<path opacity="0.2" d="M66.4563 41.7683C66.4563 41.8229 66.4563 41.8593 66.4381 41.8957C66.4381 41.9321 66.4199 41.9503 66.4199 41.9685C66.2378 42.5753 66.1468 43.1943 66.1468 43.8739C66.1468 44.4079 66.2014 44.9176 66.3288 45.4091C66.347 45.4637 66.3652 45.5365 66.3652 45.5911C66.3652 45.846 66.165 46.0705 65.9101 46.0705H65.4368V73.8132H60.6371V13.5098H65.4368V41.2707H66.0618C66.2985 41.3253 66.4623 41.5256 66.4623 41.7622L66.4563 41.7683Z" fill="white"/>
<path opacity="0.2" d="M78.6287 41.5499C78.6287 41.6045 78.6287 41.6409 78.6469 41.6773C78.6469 41.7137 78.6651 41.7319 78.6651 41.7501C78.8411 42.3569 78.926 42.9758 78.926 43.6554C78.926 44.1894 78.8714 44.6991 78.7501 45.1906C78.7318 45.2452 78.7136 45.3181 78.7136 45.3727C78.7136 45.6275 78.9078 45.852 79.1505 45.852H79.6056V73.5948H84.1991V13.2914H79.6056V41.0523H79.011C78.7804 41.1069 78.6226 41.3071 78.6226 41.5438L78.6287 41.5499Z" fill="white"/>
<path d="M59.2354 12.7938C59.5146 13.9892 59.5146 15.2331 59.5146 16.4649C59.5146 39.4261 59.5024 62.3872 59.5024 85.3484C59.5024 85.7489 59.4418 86.2343 59.0716 86.38C58.6469 86.5438 58.2464 86.1069 58.0037 85.7186C56.0619 82.6785 54.1202 79.6385 52.1723 76.5984C51.7112 75.8824 51.25 75.1482 50.9952 74.3351C50.71 73.4188 50.71 72.4479 50.71 71.4892C50.71 48.079 50.716 24.6627 50.7221 1.25254C50.7221 0.83992 50.8495 0.239192 51.2682 0.0389496C51.4745 -0.0581378 51.6687 0.0389496 51.8143 0.190649C52.0146 0.403027 52.1541 0.688221 52.3119 0.937008C52.9915 2.00497 53.6711 3.07293 54.3447 4.14696C55.0243 5.21492 55.7039 6.28288 56.3774 7.35691C56.6748 7.83021 56.9721 8.29744 57.2755 8.77074C58.0097 9.92973 58.7561 11.1069 59.1323 12.4237C59.1687 12.5511 59.199 12.6785 59.2294 12.8059L59.2354 12.7938Z" fill="white"/>
<path d="M85.7827 12.7938C85.5036 13.9892 85.5036 15.2331 85.5036 16.4649C85.5036 39.4261 85.5157 62.3872 85.5157 85.3484C85.5157 85.7489 85.5764 86.2343 85.9466 86.38C86.3713 86.5438 86.7718 86.1069 87.0145 85.7186C88.9563 82.6785 90.898 79.6385 92.8458 76.5984C93.307 75.8824 93.7682 75.1482 94.023 74.3351C94.3082 73.4188 94.3082 72.4479 94.3082 71.4892C94.3082 48.079 94.3021 24.6627 94.2961 1.25254C94.2961 0.83992 94.1687 0.239192 93.75 0.0389496C93.5437 -0.0581378 93.3495 0.0389496 93.2038 0.190649C93.0036 0.403027 92.864 0.688221 92.7063 0.937008C92.0267 2.00497 91.347 3.07293 90.6735 4.14696C90 5.22099 89.3143 6.28288 88.6407 7.35691C88.3434 7.83021 88.0461 8.29744 87.7427 8.77074C87.0085 9.92973 86.2621 11.1069 85.8859 12.4237C85.8495 12.5511 85.8191 12.6785 85.7888 12.8059L85.7827 12.7938Z" fill="white"/>
<path d="M48.3677 47.9516V48.0062C48.2403 49.3411 47.1056 50.3848 45.7464 50.3848H40.085C39.2233 50.3848 38.4709 49.9843 37.9976 49.3411L37.6517 48.7707C37.6517 48.7707 37.6517 48.7525 37.6335 48.7343L35.3641 44.8326C32.0328 44.7416 28.7318 45.0329 25.4369 44.3957C21.5352 43.6615 16.4442 41.1737 14.7998 37.3448C14.6905 37.1081 14.1566 35.8763 14.5813 35.8763H18.04V33.5159L0 30.1482L17.4151 29.9843C18.6044 25.5001 24.3386 25.3666 25.3823 29.9843L42.9794 30.1482L24.9575 33.5341V35.7671L45.3398 35.9309H46.0194C47.2087 36.0766 48.125 37.0474 48.2342 38.2368L48.2524 38.7283L48.3434 47.3872V47.4054L48.3617 47.9394L48.3677 47.9516Z" fill="white"/>
<path d="M96.6323 47.9516V48.0062C96.7597 49.3411 97.8944 50.3848 99.2536 50.3848H104.915C105.777 50.3848 106.529 49.9843 107.002 49.3411L107.348 48.7707C107.348 48.7707 107.348 48.7525 107.366 48.7343L109.636 44.8326C112.967 44.7416 116.268 45.0329 119.563 44.3957C123.465 43.6615 128.556 41.1737 130.2 37.3448C130.309 37.1081 130.843 35.8763 130.419 35.8763H126.96V33.5159L145 30.1482L127.585 29.9843C126.396 25.5001 120.661 25.3666 119.618 29.9843L102.021 30.1482L120.042 33.5341V35.7671L99.6602 35.9309H98.9806C97.7912 36.0766 96.875 37.0474 96.7658 38.2368L96.7475 38.7283L96.6565 47.3872V47.4054L96.6383 47.9394L96.6323 47.9516Z" fill="white"/>
<path d="M73.8046 43.7889C73.8046 43.8314 73.8046 43.8678 73.7986 43.9103C73.7743 44.1712 73.6772 44.4079 73.5255 44.6021C73.4952 44.5899 73.4588 44.5899 73.4223 44.5899C73.1978 44.5899 73.0158 44.7719 73.0158 44.9965C72.858 45.0632 72.6821 45.0996 72.5 45.0996C72.1602 45.0996 71.8447 44.9661 71.6141 44.7537C71.3532 44.5171 71.1893 44.1712 71.1893 43.7889C71.1893 43.7707 71.1893 43.7525 71.1893 43.7343C71.2015 43.437 71.3107 43.17 71.4806 42.9516C71.5352 42.9758 71.5898 42.988 71.6505 42.988C71.875 42.988 72.0571 42.8059 72.0571 42.5814C72.0571 42.5693 72.0571 42.5571 72.0571 42.545C72.1966 42.4965 72.3422 42.4661 72.4939 42.4661C72.8641 42.4661 73.1978 42.6178 73.4345 42.8666C73.6651 43.1033 73.8046 43.4249 73.8046 43.7768V43.7889Z" fill="white"/>
<path d="M72.1116 38.0972C75.8798 37.8909 78.7682 41.1312 78.0885 44.8569C77.4696 48.2792 73.8531 50.4212 70.5521 49.1834C67.7851 48.1457 66.2682 45.2028 67.0084 42.3205C67.6031 40.0086 69.7087 38.2307 72.1116 38.1033V38.0972ZM72.3361 38.7647C68.5497 38.8982 66.2742 43.0305 68.1614 46.3254C70.006 49.5414 74.5388 49.7295 76.6322 46.6591C78.9502 43.261 76.4381 38.619 72.3301 38.7647H72.3361Z" fill="white"/>
<path d="M72.3179 41.6348C71.3592 41.7016 70.5461 42.4419 70.3822 43.3885C70.0363 45.3241 72.239 46.7137 73.8045 45.488C75.4914 44.1652 74.4538 41.4831 72.3179 41.6348ZM71.0133 44.2805C70.8495 43.7647 70.9465 43.17 71.2803 42.7392C71.2621 42.6906 71.2499 42.6421 71.2499 42.5875C71.2499 42.363 71.432 42.1809 71.6565 42.1809C71.7657 42.1809 71.8628 42.2234 71.9356 42.2962C72.2997 42.1627 72.7487 42.1991 73.0764 42.4297C73.222 42.5389 73.3494 42.7028 73.4344 42.8788C73.4344 42.8788 73.4344 42.8909 73.4405 42.8909C73.489 42.9698 73.5194 43.0729 73.5376 43.17C73.5376 43.1882 73.5558 43.4309 73.5558 43.4309C73.4405 43.3824 73.3737 43.2853 73.2888 43.2004C73.0582 42.9698 72.7123 42.8545 72.3968 42.8727C72.063 42.8909 71.7536 43.0365 71.5048 43.2671C71.3713 43.3945 71.256 43.5523 71.1832 43.7343C71.0982 43.9285 71.0618 44.1409 71.0861 44.3472C71.0558 44.3472 71.0194 44.3108 71.0072 44.2805H71.0133ZM73.4283 44.1652C73.3312 44.3654 73.0157 44.5656 72.7973 44.6142C72.7487 44.6142 72.4999 44.6627 72.5849 44.5656C72.6152 44.5171 72.7669 44.4989 72.8337 44.4686C72.949 44.42 73.0825 44.3351 73.1674 44.2562C73.216 44.2076 73.3495 44.0438 73.3798 44.0256C73.4951 44.0074 73.4647 44.1105 73.4283 44.1712V44.1652ZM72.4696 42.988C72.4514 43.0365 72.239 43.0851 72.1905 43.1215C72.0934 43.17 71.9599 43.2368 71.8749 43.3217C71.8264 43.3703 71.6929 43.5523 71.6262 43.5523C71.5109 43.5523 71.6444 43.3521 71.6747 43.3035C71.8264 43.1215 72.1237 42.9576 72.3664 42.9394C72.3968 42.9394 72.4817 42.9212 72.4635 42.988H72.4696ZM73.8288 44.9965C73.8288 45.221 73.6468 45.403 73.4223 45.403C73.2948 45.403 73.1796 45.3423 73.1067 45.2513C72.7791 45.3727 72.415 45.3727 72.1237 45.2271C71.9113 45.1178 71.7293 44.954 71.614 44.7538C71.5473 44.6445 71.5048 44.5292 71.4805 44.4018C71.4623 44.3047 71.4623 44.2016 71.4987 44.1045C71.6444 44.2501 71.7778 44.4018 71.9478 44.5171C72.2451 44.6991 72.6092 44.7477 72.9429 44.6506C73.2766 44.5535 73.5558 44.3047 73.756 44.0195C73.7742 43.9831 73.7924 43.9467 73.8106 43.9103C73.9016 43.7283 73.9623 43.5341 73.9198 43.3278C73.9198 43.2914 73.9198 43.2792 73.938 43.261C73.9684 43.261 74.0048 43.3096 74.023 43.3581C74.0533 43.4249 74.0715 43.5038 74.0897 43.5887C74.1383 44.0195 74.0291 44.4625 73.7985 44.8144C73.8288 44.869 73.841 44.9297 73.841 44.9965H73.8288Z" fill="white"/>
<path d="M74.375 45.5608V45.6821C74.2173 46.4649 74.193 47.3205 74.0352 48.1033C74.0352 48.1215 74.0292 48.1579 74.0231 48.17C74.0049 48.2064 73.7743 48.2732 73.7136 48.2853C72.3362 48.6676 70.7767 48.3642 69.6845 47.4479L74.3811 45.5608H74.375Z" fill="white"/>
<path d="M70.5887 42.0414L70.9345 39.4261C70.9588 39.3836 71.4139 39.2683 71.4928 39.2501C72.6942 38.9892 74.1748 39.2198 75.1578 39.9783C75.1942 40.0025 75.3035 40.0753 75.2428 40.1178C73.6954 40.7671 72.142 41.4164 70.5826 42.0414H70.5887Z" fill="white"/>
<path d="M74.2778 48.0669L74.9757 43.0183L77.0266 44.5899C77.0448 44.6324 77.0023 44.8266 76.9902 44.8872C76.7111 46.1494 75.8009 47.2902 74.6723 47.8969C74.6237 47.9212 74.3021 48.0851 74.2839 48.0669H74.2778Z" fill="white"/>
<path d="M70.6856 39.5414L70.0121 44.5353L67.9915 42.9819C67.9915 42.9819 67.9733 42.9637 67.9733 42.9455C67.949 42.8363 68.0764 42.4358 68.1128 42.3084C68.4708 41.1919 69.3568 40.1421 70.4187 39.6324C70.4611 39.6142 70.6614 39.5171 70.6856 39.5414Z" fill="white"/>
<path d="M77.0752 44.3169L73.0703 41.2647L75.3883 40.306C75.4732 40.2756 75.4914 40.2513 75.5764 40.306C75.7281 40.4152 75.9465 40.664 76.074 40.8157C76.8689 41.7744 77.2451 43.079 77.0812 44.3169H77.0752Z" fill="white"/>
<path d="M71.8749 46.3132L69.5752 47.2295C69.4842 47.2598 69.4781 47.2841 69.3932 47.2173C68.8774 46.8169 68.3919 46.0098 68.1674 45.403C67.9186 44.7234 67.8215 43.9528 67.9247 43.2307C67.9429 43.2186 68.2402 43.4491 68.2766 43.4795C69.4842 44.3957 70.6674 45.3423 71.8628 46.2707V46.3132H71.8749Z" fill="white"/>
<path d="M91.6991 129.602H88.0766C87.488 129.602 86.9965 129.074 86.9965 128.498V125.476C86.9965 124.875 87.5851 124.335 88.1797 124.335H91.505C92.1906 124.329 92.761 124.857 92.761 125.549V128.504C92.761 129.068 92.2877 129.608 91.6931 129.608L91.6991 129.602ZM91.4989 128.546C91.6506 128.546 91.7598 128.419 91.7598 128.285V125.64C91.7598 125.47 91.5899 125.397 91.4443 125.403H88.2768C88.119 125.403 88.0098 125.537 88.0098 125.694V128.291C88.0098 128.443 88.1433 128.552 88.2829 128.552H91.505L91.4989 128.546Z" fill="white"/>
<path d="M100.989 127.666V129.62H99.9757V126.604H104.326C104.478 126.604 104.581 126.483 104.587 126.35V125.706C104.587 125.555 104.466 125.452 104.314 125.452H99.9757V124.329H104.436C105.079 124.39 105.595 124.912 105.595 125.561V126.477C105.595 127.108 105.085 127.6 104.466 127.654C104.296 127.672 104.138 127.654 103.956 127.666L105.601 129.608H104.235L102.712 127.66H100.983L100.989 127.666Z" fill="white"/>
<path d="M98.0947 124.329H99.102V128.516C99.0838 129.08 98.6348 129.602 98.0462 129.602H94.7209C94.102 129.602 93.653 129.086 93.6226 128.492V124.323H94.6299V128.273C94.642 128.425 94.7452 128.54 94.8969 128.54H97.8216C97.9794 128.54 98.0826 128.419 98.0886 128.267V124.329H98.0947Z" fill="white"/>
<path d="M86.1285 126.331C86.0982 126.999 85.5764 127.539 84.9089 127.545H83.8713V129.62H82.8519V127.551L81.6686 127.539C80.9951 127.539 80.4854 126.956 80.4854 126.283V124.323H81.4987V126.204C81.5169 126.331 81.6019 126.471 81.7536 126.471H84.8785C85.0181 126.471 85.097 126.337 85.1213 126.222V124.323H86.1346V126.319L86.1285 126.331Z" fill="white"/>
<path d="M125.51 127.515V128.243C125.51 128.382 125.601 128.486 125.74 128.498H129.988V129.608H125.668C124.958 129.566 124.454 128.971 124.454 128.267L124.466 125.597C124.466 124.905 125.043 124.347 125.734 124.329H129.982V125.445H125.71C125.589 125.476 125.504 125.579 125.504 125.706V126.41H129.703V127.515H125.504H125.51Z" fill="white"/>
<path d="M123.629 128.334C123.629 129.032 122.998 129.638 122.282 129.602H118.016V128.492H122.354C122.476 128.479 122.585 128.388 122.585 128.267V127.745C122.585 127.636 122.494 127.515 122.373 127.515H119.308C118.604 127.515 118.016 126.95 118.016 126.246V125.591C118.016 124.893 118.592 124.341 119.29 124.323H123.58V125.439H119.278C119.157 125.458 119.059 125.549 119.059 125.67V126.174C119.059 126.295 119.163 126.416 119.29 126.416H122.385C123.046 126.416 123.629 127.029 123.635 127.685V128.328L123.629 128.334Z" fill="white"/>
<path d="M112.276 127.666H110.637V129.602H109.594V126.556H113.944C114.084 126.556 114.175 126.447 114.181 126.313V125.676C114.181 125.537 114.053 125.439 113.92 125.439H109.594V124.323H113.969C114.666 124.365 115.225 124.93 115.225 125.621V126.35C115.225 126.987 114.739 127.527 114.12 127.642C113.962 127.672 113.811 127.654 113.641 127.666L115.243 129.596H113.865L112.282 127.66L112.276 127.666Z" fill="white"/>
<path d="M117.13 129.602H116.086V124.323L117.13 124.329V129.602Z" fill="white"/>
<path d="M76.1226 127.521H74.8058V126.404H77.1784L77.1723 129.044C77.1723 129.359 76.8932 129.584 76.5959 129.596H72.7306C72.0449 129.59 71.4806 129.02 71.4806 128.334V125.652C71.4806 124.924 72.057 124.341 72.7791 124.317H77.1784V125.433H72.8216C72.6699 125.433 72.5304 125.549 72.5304 125.712V128.182C72.5304 128.346 72.6578 128.467 72.8155 128.479H76.1287V127.515L76.1226 127.521Z" fill="white"/>
<path d="M64.4053 124.329H63.3494V129.608H64.4053V124.329Z" fill="white"/>
<path d="M69.7391 129.602V125.712C69.7391 125.543 69.5752 125.427 69.4175 125.445H65.091V124.323H69.5085C70.2548 124.359 70.7949 124.954 70.7888 125.694V129.602H69.7391Z" fill="white"/>
<path d="M65.091 129.602V126.38L65.6311 126.374L66.1408 126.38V129.602H65.091Z" fill="white"/>
<path d="M40.5946 129.602H36.972C36.3834 129.602 35.8919 129.074 35.8919 128.498V125.476C35.8919 124.875 36.4805 124.335 37.0752 124.335H40.4004C41.0861 124.329 41.6565 124.857 41.6565 125.549V128.504C41.6565 129.068 41.1832 129.608 40.5885 129.608L40.5946 129.602ZM40.3943 128.546C40.546 128.546 40.6553 128.419 40.6553 128.285V125.64C40.6553 125.47 40.4854 125.397 40.3397 125.403H37.1722C37.0145 125.403 36.9053 125.537 36.9053 125.694V128.291C36.9053 128.443 37.0387 128.552 37.1783 128.552H40.4004L40.3943 128.546Z" fill="white"/>
<path d="M51.8507 127.515V128.243C51.8507 128.382 51.9417 128.486 52.0813 128.498H56.3288V129.608H52.0085C51.2985 129.566 50.7949 128.971 50.7949 128.267L50.807 125.597C50.807 124.905 51.3835 124.347 52.0752 124.329H56.3228V125.445H52.0509C51.9296 125.476 51.8446 125.579 51.8446 125.706V126.41H56.0437V127.515H51.8446H51.8507Z" fill="white"/>
<path d="M17.4029 127.515V128.243C17.4029 128.382 17.4939 128.486 17.6335 128.498H21.881V129.608H17.5606C16.8507 129.566 16.347 128.971 16.347 128.267L16.3592 125.597C16.3592 124.905 16.9356 124.347 17.6274 124.329H21.875V125.445H17.6031C17.4818 125.476 17.3968 125.579 17.3968 125.706V126.41H21.5958V127.515H17.3968H17.4029Z" fill="white"/>
<path d="M59.7027 127.666H58.0643V129.602H57.0206V126.556H61.3714C61.5109 126.556 61.6019 126.447 61.608 126.313V125.676C61.608 125.537 61.4806 125.439 61.3471 125.439H57.0206V124.323H61.3956C62.0934 124.365 62.6517 124.93 62.6517 125.621V126.35C62.6517 126.987 62.1663 127.527 61.5473 127.642C61.3896 127.672 61.2379 127.654 61.068 127.666L62.6699 129.596H61.2925L59.7087 127.66L59.7027 127.666Z" fill="white"/>
<path d="M32.2573 127.666H30.6189V129.602H29.5753V126.556H33.926C34.0655 126.556 34.1566 126.447 34.1626 126.313V125.676C34.1626 125.537 34.0352 125.439 33.9017 125.439H29.5753V124.323H33.9503C34.6481 124.365 35.2063 124.93 35.2063 125.621V126.35C35.2063 126.987 34.7209 127.527 34.102 127.642C33.9442 127.672 33.7925 127.654 33.6226 127.666H32.2634H32.2573Z" fill="white"/>
<path d="M50.1093 124.329C50.0546 124.547 48.4648 129.384 48.4648 129.384C48.4345 129.487 48.3253 129.602 48.2282 129.602H47.5789C47.4515 129.602 47.3362 129.511 47.2998 129.384L46.3046 126.101C46.2925 126.058 46.2743 126.022 46.2622 126.004C46.25 125.986 46.1651 126.046 46.1529 126.095L45.1396 129.329C45.085 129.493 44.994 129.608 44.8301 129.608H44.2658C44.102 129.608 43.9988 129.493 43.9503 129.341L42.3483 124.335H43.3799C43.5012 124.657 44.4842 128.225 44.5631 128.158C44.5753 128.146 44.6117 128.103 44.6177 128.085L45.6675 124.651C45.7282 124.45 45.8495 124.329 46.068 124.329H46.426C46.5656 124.329 46.7415 124.408 46.7901 124.572L47.8216 128.067C47.8338 128.109 47.8762 128.146 47.8944 128.158C47.9126 128.17 47.9491 128.115 47.9551 128.097L49.108 124.335H50.1153L50.1093 124.329Z" fill="white"/>
<path d="M22.5728 129.608V128.425V125.822V125.021C22.5728 124.808 22.6456 124.596 22.8155 124.469C23.1674 124.202 23.6529 124.335 23.8531 124.723L25.7281 128.376L26.6444 126.592L27.6213 124.693C27.8033 124.384 28.1674 124.244 28.5072 124.39C28.7075 124.475 28.8834 124.681 28.8834 124.918V129.608H27.8944V126.162L26.8446 128.219L26.3349 129.232C26.1953 129.505 25.9223 129.651 25.6128 129.596C25.4186 129.56 25.2487 129.45 25.1577 129.268L23.9138 126.817L23.574 126.168V129.614H22.5849L22.5728 129.608Z" fill="white"/>
</svg>
