<svg width="26" height="28" viewBox="0 0 26 28" fill="none" xmlns="http://www.w3.org/2000/svg">
<path d="M21.4221 7.60426L22.6333 6.39307L20.2109 3.97068L18.9997 5.18187L20.2109 6.39307L21.4221 7.60426ZM20.2109 6.39307L18.9997 5.18187L-0.000134325 24.1817L1.21106 25.3929L2.42225 26.6041L21.4221 7.60426L20.2109 6.39307Z" fill="#148F3F"/>
<path d="M14.9551 8.2832L16.668 8.2832L16.668 4.85743L14.9551 4.85742L14.9551 6.57031L14.9551 8.2832ZM14.9551 6.57031L14.9551 4.85742L1.21049 4.85742L1.21049 6.57031L1.21049 8.2832L14.9551 8.2832L14.9551 6.57031Z" fill="#148F3F"/>
<path d="M18.3418 25.607L18.3418 27.3199L21.7676 27.3199L21.7676 25.607L20.0547 25.607L18.3418 25.607ZM20.0547 11.2866L18.3418 11.2866L18.3418 25.607L20.0547 25.607L21.7676 25.607L21.7676 11.2866L20.0547 11.2866Z" fill="#148F3F"/>
</svg>
