<svg width="736" height="455" viewBox="0 0 736 455" fill="none" xmlns="http://www.w3.org/2000/svg">
<g clip-path="url(#clip0_1135_2754)">
<path d="M260.5 194.701C260.5 202.41 266.757 208.659 274.476 208.659C282.196 208.659 288.453 202.41 288.453 194.701V174.764C288.453 167.055 282.196 160.806 274.476 160.806C266.757 160.806 260.5 167.055 260.5 174.764V194.701Z" fill="#000419" stroke="white" stroke-linecap="round" stroke-linejoin="round"/>
<path d="M249.68 170.365V131.263H299.27V170.365C299.27 177.876 288.171 183.966 274.478 183.966C260.784 183.966 249.683 177.876 249.683 170.365H249.68Z" fill="#000419" stroke="white" stroke-linecap="round" stroke-linejoin="round"/>
<path d="M245.182 92.5177V138.699C245.182 147.573 258.294 154.765 274.465 154.765C290.636 154.765 303.751 147.573 303.751 138.699V92.5177H245.18H245.182Z" fill="#000419" stroke="white" stroke-linecap="round" stroke-linejoin="round"/>
<path d="M274.468 108.586C290.642 108.586 303.753 101.393 303.753 92.5201C303.753 83.6473 290.642 76.4545 274.468 76.4545C258.294 76.4545 245.182 83.6473 245.182 92.5201C245.182 101.393 258.294 108.586 274.468 108.586Z" fill="#000419" stroke="white" stroke-linecap="round" stroke-linejoin="round"/>
<path d="M274.468 106.187C288.226 106.187 299.38 100.068 299.38 92.5202C299.38 84.9723 288.226 78.8535 274.468 78.8535C260.709 78.8535 249.555 84.9723 249.555 92.5202C249.555 100.068 260.709 106.187 274.468 106.187Z" fill="#000419" stroke="white" stroke-linecap="round" stroke-linejoin="round"/>
<path d="M249.678 76.858V93.8703C250.918 100.781 261.543 106.182 274.465 106.182C287.388 106.182 298.061 100.758 299.263 93.8254V76.8555H249.675L249.678 76.858Z" fill="#000419" stroke="white" stroke-linecap="round" stroke-linejoin="round"/>
<path d="M274.47 90.4623C288.164 90.4623 299.266 84.3725 299.266 76.8604C299.266 69.3483 288.164 63.2585 274.47 63.2585C260.776 63.2585 249.675 69.3483 249.675 76.8604C249.675 84.3725 260.776 90.4623 274.47 90.4623Z" fill="#000419" stroke="white" stroke-linecap="round" stroke-linejoin="round"/>
<path d="M253.38 76.8579C253.38 77.2465 253.415 77.6326 253.485 78.0138C254.542 83.8606 263.533 88.4294 274.473 88.4294C285.412 88.4294 294.446 83.8407 295.466 77.9714C295.533 77.6052 295.563 77.2341 295.563 76.8579C295.563 76.4817 295.531 76.1105 295.466 75.7443C294.446 69.8776 285.435 65.2888 274.473 65.2888C263.511 65.2888 254.542 69.8552 253.485 75.702C253.415 76.0831 253.38 76.4668 253.38 76.8579Z" fill="#000419" stroke="white" stroke-linecap="round" stroke-linejoin="round"/>
<path d="M298.569 104.632C295.418 105.404 292.065 106.346 288.548 107.497C285.033 108.648 281.772 109.871 278.776 111.109C286.574 119.452 294.373 127.795 302.174 136.141C306.585 131.36 310.998 126.577 315.409 121.796C309.795 116.077 304.182 110.354 298.569 104.635V104.632Z" fill="#000419" stroke="white" stroke-linecap="round" stroke-linejoin="round"/>
<path d="M278.776 111.109C278.214 114.238 277.74 117.684 277.446 121.405C277.207 124.405 277.112 127.237 277.114 129.876C282.076 135.822 287.038 141.771 292 147.717C295.391 143.859 298.784 139.997 302.174 136.138C294.375 127.795 286.577 119.452 278.776 111.107V111.109Z" fill="#000419" stroke="white" stroke-linecap="round" stroke-linejoin="round"/>
<path d="M276.947 134.153C281.143 139.636 285.337 145.119 289.533 150.602C290.356 149.641 291.177 148.679 292 147.717C287.038 141.771 282.076 135.822 277.114 129.875C277.06 131.3 277.005 132.725 276.947 134.153Z" fill="#000419" stroke="white" stroke-linecap="round" stroke-linejoin="round"/>
<path d="M258.749 191.201C258.23 192.305 257.456 194.044 256.658 196.223C253.976 203.555 253.338 209.616 252.998 213.163C250.89 235.28 251.003 249.119 251.003 249.119C251.167 269.536 251.247 279.748 253.894 285.166C259.05 295.726 268.131 300.681 279.941 306.914C289.454 311.936 333.403 335.137 381.624 318.767C387.599 316.739 392.269 314.57 395.096 313.162C397.376 311.7 399.122 310.26 400.297 309.211C417.62 293.731 451.224 252.629 451.224 252.629C464.918 235.876 473.173 225.754 484.514 210.754C487.533 206.761 489.042 204.766 489.376 204.275C503.497 183.441 502.499 162.973 500.645 124.888C500.308 117.978 499.662 109.059 493.827 100.308C490.467 95.2681 486.522 91.9872 483.808 90.0515C408.789 123.767 333.77 157.48 258.754 191.196L258.749 191.201Z" fill="#000419" stroke="white" stroke-linecap="round" stroke-linejoin="round"/>
<path d="M309.404 128.204C296.516 142.14 279.522 161.608 260.981 186.343C259.305 189.061 257.721 192.738 258.237 196.806C260.138 211.773 288.84 219.04 302.451 222.485C324.385 228.038 351.158 234.814 382.28 224.608C405.386 217.03 421.914 199.13 454.964 163.33C483.321 132.613 497.422 116.981 493.675 103.479C488.051 83.2181 452.312 76.3972 434.008 72.9046C420.424 70.3138 399.923 66.4001 376.382 73.6519C368.654 76.0335 351.847 82.3138 309.401 128.206L309.404 128.204Z" fill="#000419" stroke="white" stroke-linecap="round" stroke-linejoin="round"/>
<path d="M381.477 238.409C361.369 244.007 346.239 241.087 301.895 230.936C272.814 224.279 259.028 220.889 254.994 209.885C254.902 209.633 254.822 209.389 254.744 209.15C254.665 210.595 254.605 212.68 254.744 215.181C254.744 215.181 255.151 222.518 257.321 229.027C260.417 238.307 283.339 244.161 303.057 249.288C316.354 252.746 346.533 260.857 368.419 259.918C373.351 259.706 382.208 258.847 384.967 253.483C385.755 251.951 386.339 250.12 386.339 247.878V236.917C385.226 237.293 383.542 237.836 381.474 238.412L381.477 238.409Z" fill="#000419" stroke="white" stroke-linecap="round" stroke-linejoin="round"/>
<path d="M322.724 251.46L297.018 244.694C294.778 244.104 293.211 242.046 293.211 239.692V235.068C293.211 233.439 294.723 232.248 296.272 232.657L321.334 239.254C323.954 239.944 325.785 242.348 325.785 245.103V249.051C325.785 250.681 324.273 251.871 322.724 251.463V251.46Z" fill="#000419" stroke="white" stroke-linecap="round" stroke-linejoin="round"/>
<path d="M271.953 232.233C271.826 235.816 268.777 237.649 265.14 236.331C261.505 235.014 258.659 231.04 258.786 227.458C258.913 223.875 261.962 222.042 265.599 223.36C269.234 224.678 272.08 228.651 271.953 232.233Z" fill="white" stroke="white" stroke-linecap="round" stroke-linejoin="round"/>
<path d="M271.883 231.987C271.774 235.083 269.137 236.668 265.996 235.529C262.852 234.388 260.395 230.955 260.502 227.859C260.612 224.762 263.249 223.178 266.39 224.316C269.533 225.457 271.991 228.89 271.883 231.987Z" fill="#000419" stroke="white" stroke-linecap="round" stroke-linejoin="round"/>
<path d="M363.016 258.961C367.976 258.961 371.997 255.838 371.997 251.986C371.997 248.134 367.976 245.011 363.016 245.011C358.056 245.011 354.035 248.134 354.035 251.986C354.035 255.838 358.056 258.961 363.016 258.961Z" fill="white" stroke="white" stroke-linecap="round" stroke-linejoin="round"/>
<path d="M363.016 257.28C367.378 257.28 370.914 254.533 370.914 251.144C370.914 247.755 367.378 245.008 363.016 245.008C358.654 245.008 355.118 247.755 355.118 251.144C355.118 254.533 358.654 257.28 363.016 257.28Z" fill="#000419" stroke="white" stroke-linecap="round" stroke-linejoin="round"/>
<path d="M264.225 249.619C277.25 254.938 292.744 260.224 310.489 264.375C332.987 269.639 353.249 271.706 370.001 272.289C371.688 272.361 375.23 272.765 378.358 275.279C381.135 277.508 382.158 280.256 383.098 282.877C384.308 286.255 384.67 289.259 384.595 303.429C384.573 307.779 384.56 309.961 384.463 310.285C381.19 321.149 354.736 322.442 348.671 322.736C348.671 322.736 310.577 324.597 268.466 298.322C264.055 295.572 260.213 292.291 257.489 287.485C255.436 283.866 254.615 280.435 254.246 278.143C253.717 274.454 252.005 261.54 253.956 253.663C254.358 252.036 255.007 250.265 256.616 249.246C259.452 247.447 263.344 249.201 264.225 249.619Z" fill="#000419" stroke="white" stroke-linecap="round" stroke-linejoin="round"/>
<path d="M255.034 201.345C221.093 211.574 187.15 221.8 153.209 232.029V244.343C186.439 234.313 219.666 224.286 252.896 214.257C253.609 209.952 254.323 205.65 255.034 201.345Z" fill="#000419" stroke="white" stroke-linecap="round" stroke-linejoin="round"/>
<path d="M153.209 244.343V261.991C185.875 254.485 218.543 246.976 251.209 239.47C251.771 231.065 252.335 222.662 252.896 214.257C219.666 224.287 186.439 234.314 153.209 244.343Z" fill="#000419" stroke="white" stroke-linecap="round" stroke-linejoin="round"/>
<path d="M153.209 261.991V267.887C185.818 260.409 218.429 252.933 251.037 245.454C251.095 243.459 251.152 241.466 251.209 239.47C218.543 246.976 185.875 254.485 153.209 261.991Z" fill="#000419" stroke="white" stroke-linecap="round" stroke-linejoin="round"/>
<path d="M136.464 309.47C136.464 301.043 129.623 294.212 121.184 294.212C112.745 294.212 105.904 301.043 105.904 309.47V331.268C105.904 339.695 112.745 346.526 121.184 346.526C129.623 346.526 136.464 339.695 136.464 331.268V309.47Z" fill="#000419" stroke="white" stroke-linecap="round" stroke-linejoin="round"/>
<path d="M148.292 304.662V261.916H94.0791V304.662C94.0791 312.873 106.213 319.532 121.184 319.532C136.155 319.532 148.292 312.873 148.292 304.662Z" fill="#000419" stroke="white" stroke-linecap="round" stroke-linejoin="round"/>
<path d="M153.209 219.558V270.047C153.209 279.748 138.874 287.61 121.194 287.61C103.514 287.61 89.1768 279.748 89.1768 270.047V219.558H153.209Z" fill="#000419" stroke="white" stroke-linecap="round" stroke-linejoin="round"/>
<path d="M121.194 237.121C138.875 237.121 153.209 229.258 153.209 219.558C153.209 209.859 138.875 201.995 121.194 201.995C103.513 201.995 89.1792 209.859 89.1792 219.558C89.1792 229.258 103.513 237.121 121.194 237.121Z" fill="#000419" stroke="white" stroke-linecap="round" stroke-linejoin="round"/>
<path d="M121.194 234.498C136.236 234.498 148.429 227.809 148.429 219.558C148.429 211.307 136.236 204.619 121.194 204.619C106.153 204.619 93.9595 211.307 93.9595 219.558C93.9595 227.809 106.153 234.498 121.194 234.498Z" fill="#000419" stroke="white" stroke-linecap="round" stroke-linejoin="round"/>
<path d="M148.294 202.439V221.038C146.94 228.594 135.324 234.498 121.194 234.498C107.064 234.498 95.3987 228.569 94.084 220.991V202.439H148.294Z" fill="#000419" stroke="white" stroke-linecap="round" stroke-linejoin="round"/>
<path d="M121.189 217.309C136.159 217.309 148.294 210.651 148.294 202.439C148.294 194.226 136.159 187.569 121.189 187.569C106.219 187.569 94.084 194.226 94.084 202.439C94.084 210.651 106.219 217.309 121.189 217.309Z" fill="#000419" stroke="white" stroke-linecap="round" stroke-linejoin="round"/>
<path d="M144.248 202.439C144.248 202.865 144.211 203.286 144.133 203.702C142.978 210.094 133.146 215.089 121.189 215.089C109.232 215.089 99.3528 210.072 98.2376 203.657C98.1653 203.256 98.1304 202.85 98.1304 202.439C98.1304 202.028 98.1653 201.622 98.2376 201.22C99.3528 194.806 109.204 189.791 121.189 189.791C133.174 189.791 142.978 194.783 144.133 201.176C144.211 201.592 144.248 202.013 144.248 202.439Z" fill="#000419" stroke="white" stroke-linecap="round" stroke-linejoin="round"/>
<path d="M119.156 266.933C105.989 265.956 88.301 262.591 70.1344 252.609C57.5535 245.696 38.596 235.278 29.4703 213.081C23.6601 198.949 24.2164 185.832 25.1519 178.371C26.4791 174.366 28.9689 167.883 33.4743 160.756C50.6281 133.625 80.48 123.339 100.071 116.59C106.919 114.231 117.13 111.139 130.008 108.867C135.062 106.065 140.117 103.265 145.171 100.462C146.044 103.708 146.977 107.009 147.97 110.362C149.419 115.255 150.924 119.99 152.46 124.562C131.427 128.832 46.0128 147.638 38.7008 188.585C38.0597 192.17 38.1495 195.461 38.1495 195.461C39.3245 211.285 57.3289 221.748 72.8786 230.519C83.1818 236.331 99.2903 243.984 120.945 248.787C121.424 249.305 124.881 253.182 124.105 258.752C123.407 263.754 119.807 266.46 119.158 266.93L119.156 266.933Z" fill="#000419" stroke="white" stroke-linecap="round" stroke-linejoin="round"/>
<path d="M389.46 39.2808C389.727 37.3776 389.881 34.5302 389.128 31.2244C388.676 29.2464 388.013 27.5997 387.382 26.3267C347.725 8.22823 313.882 5.22635 292.939 5.27119C239.691 5.38578 158.093 25.4498 145.557 73.4101C143.035 83.0584 143.814 91.9071 145.118 98.4415C145.256 99.1789 145.258 99.849 145.171 100.462C144.168 107.559 130.671 110.427 129.758 110.611C118.4 113.182 42.9867 131.056 34.9062 172.183C34.5345 174.079 33.8659 177.629 34.2925 182.357C37.9473 222.65 111.706 241.799 120.446 243.972C121.648 244.589 125.063 246.542 126.952 250.678C129.883 257.095 126.59 263.194 126.203 263.881C125.669 264.526 124.39 265.882 122.274 266.559C121.009 266.965 119.892 266.983 119.156 266.933C122.426 261.315 122.623 255.326 119.682 251.953C119.053 251.233 117.966 250.272 116.12 249.619C107.288 247.479 31.2415 228.155 25.4786 183.187C25.2192 181.166 24.7876 176.625 25.7281 171.147C33.5366 125.65 120.139 108.023 129.219 106.269C129.584 106.192 136.679 104.597 137.41 100.315C137.485 99.8715 137.499 99.3608 137.395 98.7803C135.873 92.5075 134.648 83.5741 136.903 73.6492C148.102 24.3611 233.464 2.25686 287.475 0.385975C310.359 -0.406222 349.522 1.66894 395.946 22.5052C396.677 23.8206 397.627 25.9181 398.024 28.651C398.321 30.6987 398.211 32.455 398.029 33.7405C395.173 35.5864 392.316 37.4349 389.46 39.2808Z" fill="#000419" stroke="white" stroke-linecap="round" stroke-linejoin="round"/>
<path d="M259.183 123.291C259.422 129.776 259.662 136.26 259.899 142.745C259.724 143.228 259.297 144.21 258.319 145.069C257.202 146.051 255.999 146.315 255.493 146.397C244.359 148.776 225.594 151.317 203.021 147.144C177.927 142.506 159.935 131.756 150.305 125C151.024 124.853 151.742 124.704 152.461 124.557C153.099 123.976 153.735 123.393 154.374 122.813C159.184 122.272 163.994 121.734 168.801 121.194C169.066 120.987 169.327 120.778 169.592 120.571C177.231 122.168 185.451 123.52 194.207 124.475C219.018 127.178 241.088 125.897 259.185 123.289L259.183 123.291Z" fill="#000419" stroke="white" stroke-linecap="round" stroke-linejoin="round"/>
<path d="M169.592 120.576C170.258 119.221 170.921 117.863 171.588 116.508C181.818 119.809 195.3 123.099 211.336 124.313C229.802 125.71 245.481 123.887 256.99 121.654C257.985 121.42 258.965 122.058 259.153 122.982C259.322 123.817 258.808 124.701 257.933 124.985C246.295 127.603 229.884 129.978 210.338 128.63C193.731 127.484 179.883 123.999 169.592 120.576Z" fill="#000419" stroke="white" stroke-linecap="round" stroke-linejoin="round"/>
<path d="M145.171 100.462C145.682 102.704 147.683 110.168 154.83 115.718C160.456 120.085 166.311 120.969 168.801 121.199C168.29 122.843 167.122 125.538 164.635 126.577C162.649 127.404 160.563 126.869 156.452 125.807C154.758 125.371 153.386 124.903 152.461 124.562C150.924 119.99 149.419 115.255 147.97 110.362C146.977 107.009 146.044 103.708 145.171 100.462Z" fill="#000419" stroke="white" stroke-linecap="round" stroke-linejoin="round"/>
<path d="M144.622 95.6414C144.922 94.3385 145.979 89.9042 148.22 84.7026C170.645 32.6219 264.883 10.3432 338.318 25.6615C359.528 30.0859 376.575 37.1384 388.629 43.0998C389.4 40.5115 390.348 35.8804 388.966 30.5592C388.544 28.935 387.976 27.52 387.382 26.3267C378.506 21.6657 365.204 15.4626 348.319 10.5027C333.102 6.031 274.176 -9.41932 209.819 16.7232C189.35 25.0387 146.63 42.3898 142.23 74.7379C141.09 83.1257 142.804 90.4622 144.62 95.6414H144.622Z" fill="#000419" stroke="white" stroke-linecap="round" stroke-linejoin="round"/>
<path d="M388.629 43.1001C391.151 44.7891 393.933 46.9689 396.694 49.764C403.677 56.8365 407.192 64.4844 408.991 69.5889C409.976 69.6412 410.959 69.696 411.945 69.7483C410.435 65.3738 407.796 59.2779 403.108 52.9004C398.348 46.4234 393.227 42.0364 389.46 39.2811C389.387 39.7868 389.3 40.315 389.188 40.8655C389.023 41.6677 388.833 42.415 388.629 43.1001Z" fill="#000419" stroke="white" stroke-linecap="round" stroke-linejoin="round"/>
<path d="M389.46 39.2811C392.316 37.4351 395.173 35.5867 398.029 33.7407C401.075 36.2344 404.378 39.3683 407.587 43.267C415.882 53.3513 419.604 63.7819 421.383 70.7348C418.237 70.406 415.091 70.0771 411.945 69.7483C410.436 65.3738 407.796 59.2779 403.109 52.9004C398.349 46.4233 393.227 42.0364 389.46 39.2811Z" fill="#000419" stroke="white" stroke-linecap="round" stroke-linejoin="round"/>
<path d="M260.594 58.1344C257.912 55.8899 254.986 53.5955 251.808 51.2986C249.353 49.5249 246.951 47.8957 244.621 46.3984C234.35 43.1649 223.543 40.026 212.217 37.0565C200.524 33.9899 189.22 31.3542 178.368 29.0822C173.937 28.442 169.986 29.999 168.484 32.9087C168.155 33.5464 167.691 34.7372 167.835 36.4885C174.322 40.5292 181.205 44.5774 188.487 48.5658C201.267 55.566 213.596 61.4651 225.227 66.4525C231.75 66.6742 238.898 66.587 246.564 65.9966C250.92 65.6603 255.071 65.1919 259 64.6289C259.532 62.4641 260.065 60.2993 260.597 58.1344H260.594Z" fill="#000419" stroke="white" stroke-linecap="round" stroke-linejoin="round"/>
<path d="M253.484 59.2654V78.0141C254.542 83.8609 263.533 88.4297 274.473 88.4297C285.412 88.4297 294.445 83.841 295.466 77.9717V59.2629H253.484V59.2654Z" fill="#000419" stroke="white" stroke-linecap="round" stroke-linejoin="round"/>
<path d="M274.475 70.7796C286.068 70.7796 295.466 65.6245 295.466 59.2654C295.466 52.9062 286.068 47.7511 274.475 47.7511C262.882 47.7511 253.484 52.9062 253.484 59.2654C253.484 65.6245 262.882 70.7796 274.475 70.7796Z" fill="#000419" stroke="white" stroke-linecap="round" stroke-linejoin="round"/>
<path d="M274.475 69.0608C284.336 69.0608 292.33 64.6752 292.33 59.2654C292.33 53.8556 284.336 49.4701 274.475 49.4701C264.614 49.4701 256.62 53.8556 256.62 59.2654C256.62 64.6752 264.614 69.0608 274.475 69.0608Z" fill="#000419" stroke="white" stroke-linecap="round" stroke-linejoin="round"/>
<path d="M274.475 63.9588C280.185 63.9588 284.814 61.6389 284.814 58.7771C284.814 55.9154 280.185 53.5955 274.475 53.5955C268.766 53.5955 264.137 55.9154 264.137 58.7771C264.137 61.6389 268.766 63.9588 274.475 63.9588Z" fill="#000419" stroke="white" stroke-linecap="round" stroke-linejoin="round"/>
<path d="M295.466 63.884V61.9085C297.703 61.1089 300.395 60.3167 303.486 59.7437C306.557 59.1732 309.336 58.944 311.701 58.8867C321.835 59.4323 332.45 60.2021 343.514 61.2434C354.937 62.3196 365.919 63.6 376.415 65.025C380.648 65.8172 384.023 68.0966 384.882 70.675C385.069 71.2405 385.278 72.2519 384.822 73.5025C378.051 74.6335 370.911 75.6574 363.412 76.5218C350.25 78.0389 337.711 78.8735 325.989 79.2347C320.51 78.4002 313.453 76.7385 305.769 73.3032C300.941 71.1433 296.875 68.7344 293.56 66.4674C294.196 65.6054 294.829 64.746 295.466 63.884Z" fill="#000419" stroke="white" stroke-linecap="round" stroke-linejoin="round"/>
<path d="M136.359 181.966C139.291 179.512 142.489 177.004 145.964 174.493C148.646 172.554 151.275 170.771 153.822 169.136C165.051 165.602 176.866 162.169 189.248 158.923C202.031 155.572 214.387 152.687 226.254 150.203C231.099 149.503 235.418 151.207 237.062 154.386C237.423 155.084 237.927 156.384 237.773 158.3C230.683 162.719 223.158 167.141 215.195 171.503C201.225 179.156 187.743 185.606 175.03 191.059C167.898 191.303 160.084 191.206 151.704 190.561C146.942 190.194 142.404 189.681 138.108 189.066C137.527 186.699 136.943 184.333 136.362 181.966H136.359Z" fill="#000419" stroke="white" stroke-linecap="round" stroke-linejoin="round"/>
<path d="M144.133 183.204V203.702C142.978 210.094 133.146 215.089 121.189 215.089C109.232 215.089 99.3524 210.072 98.2373 203.657V183.204H144.133Z" fill="#000419" stroke="white" stroke-linecap="round" stroke-linejoin="round"/>
<path d="M121.184 195.792C133.858 195.792 144.133 190.156 144.133 183.204C144.133 176.252 133.858 170.616 121.184 170.616C108.509 170.616 98.2349 176.252 98.2349 183.204C98.2349 190.156 108.509 195.792 121.184 195.792Z" fill="#000419" stroke="white" stroke-linecap="round" stroke-linejoin="round"/>
<path d="M121.184 193.914C131.965 193.914 140.705 189.119 140.705 183.204C140.705 177.289 131.965 172.495 121.184 172.495C110.403 172.495 101.663 177.289 101.663 183.204C101.663 189.119 110.403 193.914 121.184 193.914Z" fill="#000419" stroke="white" stroke-linecap="round" stroke-linejoin="round"/>
<path d="M121.184 188.334C127.425 188.334 132.485 185.797 132.485 182.669C132.485 179.54 127.425 177.004 121.184 177.004C114.943 177.004 109.883 179.54 109.883 182.669C109.883 185.797 114.943 188.334 121.184 188.334Z" fill="#000419" stroke="white" stroke-linecap="round" stroke-linejoin="round"/>
<path d="M98.2374 188.251V186.092C95.7901 185.217 92.8488 184.353 89.4685 183.725C86.1105 183.102 83.0745 182.851 80.4874 182.788C69.4083 183.386 57.8029 184.226 45.7084 185.367C33.2198 186.543 21.2152 187.945 9.73939 189.5C5.11167 190.367 1.41947 192.858 0.483946 195.675C0.279379 196.293 0.0498634 197.399 0.551304 198.767C7.95317 200.005 15.7592 201.121 23.9594 202.068C38.349 203.727 52.0575 204.639 64.8704 205.035C70.8603 204.123 78.574 202.307 86.9737 198.55C92.2501 196.191 96.6957 193.555 100.321 191.077C99.627 190.135 98.931 189.193 98.2374 188.254V188.251Z" fill="#000419" stroke="white" stroke-linecap="round" stroke-linejoin="round"/>
<path d="M315.688 266.676C309.78 263.926 303.663 262.416 297.711 262.043C289.927 263.099 282.618 266.405 276.862 271.791C264.723 283.151 264.893 298.691 264.965 301.251C271.259 311.981 277.551 322.711 283.845 333.44C284.027 333.527 284.207 333.614 284.389 333.702C306.22 343.868 330.923 337.105 339.567 318.595C348.212 300.086 337.519 276.843 315.688 266.676Z" fill="#000419" stroke="white" stroke-linecap="round" stroke-linejoin="round"/>
<path d="M325.608 323.756C331.78 310.538 323.572 293.672 307.275 286.083C290.978 278.495 272.764 283.058 266.591 296.275C260.419 309.493 268.627 326.36 284.924 333.948C301.221 341.537 319.436 336.974 325.608 323.756Z" fill="#000419" stroke="white" stroke-linecap="round" stroke-linejoin="round"/>
<path d="M319.798 322.405C324.985 311.298 318.104 297.133 304.431 290.766C290.758 284.399 275.469 288.241 270.282 299.348C265.096 310.454 271.976 324.619 285.649 330.986C299.323 337.353 314.612 333.511 319.798 322.405Z" fill="#000419" stroke="white" stroke-linecap="round" stroke-linejoin="round"/>
<path d="M299.223 334.21C294.69 334.21 290.027 333.161 285.619 331.108C278.971 328.012 273.699 322.999 270.778 316.996C267.852 310.982 267.63 304.694 270.154 299.288C272.679 293.883 277.646 290.009 284.14 288.382C290.623 286.758 297.858 287.567 304.507 290.664C318.24 297.059 325.178 311.333 319.971 322.484C317.447 327.89 312.48 331.763 305.986 333.39C303.801 333.938 301.528 334.21 299.225 334.21H299.223ZM290.9 287.814C288.615 287.814 286.365 288.083 284.2 288.626C277.781 290.235 272.871 294.059 270.379 299.395C267.887 304.732 268.106 310.945 271 316.891C273.896 322.845 279.125 327.815 285.721 330.887C292.317 333.958 299.492 334.763 305.921 333.154C312.34 331.544 317.25 327.72 319.742 322.384C324.891 311.358 318.008 297.231 304.399 290.893C300.026 288.855 295.396 287.816 290.9 287.816V287.814Z" fill="white"/>
<path d="M299.308 333.615C294.974 333.615 290.411 332.643 286.021 330.6C279.524 327.576 274.375 322.678 271.519 316.812C268.66 310.935 268.443 304.792 270.91 299.508C273.377 294.224 278.23 290.44 284.576 288.851C290.913 287.264 297.98 288.056 304.477 291.08C310.973 294.104 316.122 299.002 318.979 304.869C321.837 310.746 322.055 316.889 319.587 322.173C316.164 329.504 308.224 333.615 299.308 333.615ZM291.185 288.3C288.952 288.3 286.754 288.562 284.639 289.092C278.367 290.664 273.572 294.401 271.14 299.612C268.705 304.827 268.919 310.895 271.746 316.702C274.575 322.519 279.684 327.374 286.128 330.374C299.422 336.564 314.331 332.837 319.36 322.066C321.795 316.851 321.578 310.783 318.754 304.976C315.925 299.159 310.816 294.304 304.372 291.304C300.098 289.314 295.578 288.298 291.185 288.298V288.3Z" fill="white"/>
<path d="M299.408 333.049C295.082 333.049 290.634 332.05 286.428 330.089C280.083 327.135 275.054 322.354 272.267 316.625C269.476 310.887 269.264 304.886 271.674 299.724C274.084 294.565 278.824 290.868 285.018 289.316C291.205 287.767 298.108 288.539 304.452 291.493C310.796 294.448 315.825 299.229 318.612 304.958C321.404 310.695 321.616 316.697 319.206 321.858C316.796 327.018 312.056 330.715 305.861 332.267C303.776 332.79 301.608 333.049 299.41 333.049H299.408ZM291.469 288.786C289.291 288.786 287.144 289.042 285.078 289.56C278.956 291.095 274.276 294.742 271.898 299.831C269.521 304.921 269.733 310.847 272.489 316.517C275.254 322.195 280.241 326.936 286.532 329.865C292.824 332.795 299.667 333.562 305.799 332.028C311.921 330.493 316.601 326.846 318.979 321.756C321.356 316.667 321.144 310.74 318.388 305.07C315.623 299.393 310.636 294.652 304.345 291.723C300.173 289.78 295.758 288.788 291.469 288.788V288.786Z" fill="white"/>
<path d="M299.492 332.454C295.361 332.454 291.013 331.529 286.829 329.581C280.637 326.699 275.73 322.031 273.008 316.438C270.284 310.838 270.077 304.978 272.43 299.944C277.279 289.558 291.631 285.953 304.422 291.91C317.212 297.866 323.674 311.161 318.824 321.547C315.561 328.535 307.992 332.454 299.495 332.454H299.492ZM291.756 289.286C283.354 289.286 275.877 293.15 272.657 300.051C270.336 305.018 270.543 310.798 273.235 316.331C275.932 321.871 280.797 326.497 286.936 329.357C291.085 331.29 295.403 332.207 299.497 332.207C307.9 332.207 315.376 328.343 318.597 321.443C323.389 311.181 316.983 298.035 304.317 292.136C300.168 290.203 295.85 289.286 291.756 289.286Z" fill="white"/>
<path d="M299.584 331.873C295.555 331.873 291.314 330.971 287.233 329.07C274.757 323.261 268.455 310.292 273.188 300.163C275.48 295.25 279.993 291.733 285.893 290.253C291.783 288.778 298.355 289.513 304.392 292.326C310.432 295.138 315.219 299.689 317.873 305.145C320.533 310.608 320.732 316.323 318.44 321.233C315.256 328.052 307.874 331.873 299.584 331.873ZM292.035 289.76C289.962 289.76 287.919 290.004 285.953 290.497C280.128 291.957 275.675 295.427 273.412 300.27C268.74 310.277 274.986 323.097 287.338 328.846C291.384 330.73 295.593 331.626 299.587 331.626C307.782 331.626 315.069 327.857 318.213 321.131C320.473 316.288 320.273 310.651 317.649 305.255C315.019 299.851 310.274 295.34 304.287 292.552C300.318 290.704 296.117 289.76 292.035 289.76Z" fill="white"/>
<path d="M299.679 331.293C295.753 331.293 291.616 330.413 287.64 328.562C281.752 325.822 277.085 321.383 274.498 316.067C271.906 310.741 271.711 305.17 273.946 300.382C278.559 290.507 292.203 287.079 304.364 292.742C316.526 298.404 322.668 311.047 318.056 320.922C314.952 327.568 307.757 331.293 299.677 331.293H299.679ZM292.322 290.258C284.337 290.258 277.234 293.93 274.173 300.487C271.97 305.205 272.165 310.701 274.722 315.957C277.284 321.223 281.909 325.62 287.745 328.336C299.782 333.941 313.278 330.568 317.834 320.817C322.386 311.067 316.299 298.574 304.262 292.968C300.318 291.132 296.217 290.258 292.325 290.258H292.322Z" fill="white"/>
<path d="M299.777 330.725C295.867 330.725 291.843 329.821 288.041 328.052C282.306 325.381 277.761 321.059 275.241 315.88C272.716 310.691 272.527 305.265 274.705 300.602C276.882 295.936 281.168 292.595 286.772 291.19C292.365 289.79 298.604 290.487 304.337 293.158C316.184 298.673 322.167 310.99 317.674 320.611C315.496 325.277 311.21 328.617 305.607 330.022C303.721 330.496 301.762 330.727 299.774 330.727L299.777 330.725ZM292.604 290.731C290.636 290.731 288.697 290.963 286.831 291.431C281.303 292.817 277.077 296.11 274.932 300.706C272.786 305.302 272.976 310.651 275.465 315.77C277.96 320.9 282.466 325.18 288.149 327.825C293.832 330.471 300.011 331.166 305.549 329.778C311.078 328.393 315.304 325.1 317.449 320.504C321.882 311.007 315.955 298.84 304.232 293.382C300.465 291.628 296.476 290.731 292.604 290.731Z" fill="white"/>
<path d="M300.203 328.176C296.748 328.176 293.193 327.376 289.835 325.814C279.365 320.939 274.079 310.055 278.05 301.553C279.976 297.43 283.763 294.475 288.715 293.235C293.657 291.997 299.171 292.614 304.237 294.974C314.708 299.849 319.994 310.733 316.022 319.235C314.097 323.358 310.31 326.313 305.358 327.553C303.691 327.972 301.96 328.176 300.203 328.176ZM293.869 292.859C292.133 292.859 290.422 293.063 288.775 293.474C283.898 294.697 280.168 297.602 278.275 301.655C274.363 310.033 279.594 320.77 289.94 325.585C294.954 327.922 300.408 328.532 305.298 327.309C310.175 326.086 313.904 323.181 315.798 319.128C319.71 310.75 314.478 300.013 304.133 295.198C300.807 293.648 297.287 292.859 293.869 292.859Z" fill="white"/>
<path d="M300.391 327.69C297.033 327.69 293.578 326.913 290.312 325.394C280.133 320.655 274.994 310.073 278.856 301.807C282.715 293.541 294.136 290.671 304.315 295.41C309.242 297.704 313.146 301.416 315.312 305.865C317.482 310.324 317.644 314.985 315.773 318.996C313.902 323.004 310.22 325.877 305.405 327.083C303.786 327.489 302.102 327.69 300.396 327.69H300.391ZM294.234 293.372C287.565 293.372 281.635 296.438 279.078 301.912C275.276 310.053 280.36 320.486 290.414 325.167C295.289 327.436 300.588 328.032 305.338 326.841C310.078 325.653 313.7 322.83 315.541 318.892C317.38 314.953 317.218 310.364 315.082 305.975C312.942 301.578 309.08 297.906 304.205 295.636C300.91 294.102 297.484 293.374 294.234 293.374V293.372Z" fill="white"/>
<path d="M300.57 327.192C297.379 327.192 294.017 326.477 290.786 324.973C280.899 320.369 275.907 310.09 279.657 302.061C283.406 294.032 294.5 291.244 304.385 295.846C314.271 300.449 319.263 310.728 315.514 318.757C312.989 324.161 307.139 327.192 300.57 327.192ZM294.598 293.875C288.124 293.875 282.364 296.852 279.884 302.166C276.192 310.07 281.131 320.2 290.891 324.746C300.652 329.29 311.597 326.557 315.287 318.653C318.979 310.748 314.039 300.619 304.28 296.072C301.082 294.583 297.754 293.875 294.598 293.875Z" fill="white"/>
<path d="M300.757 326.706C297.659 326.706 294.398 326.011 291.262 324.551C281.668 320.085 276.823 310.11 280.463 302.318C284.103 294.525 294.867 291.82 304.462 296.286C314.057 300.753 318.902 310.728 315.262 318.52C312.812 323.764 307.134 326.706 300.757 326.706ZM294.962 294.378C288.683 294.378 283.095 297.265 280.687 302.42C277.107 310.088 281.897 319.915 291.365 324.325C300.835 328.734 311.45 326.084 315.032 318.413C318.612 310.745 313.822 300.918 304.355 296.508C301.251 295.063 298.023 294.376 294.962 294.376V294.378Z" fill="white"/>
<path d="M300.949 326.231C297.881 326.231 294.723 325.521 291.739 324.131C287.238 322.035 283.668 318.64 281.69 314.574C279.707 310.499 279.557 306.236 281.268 302.572C284.796 295.016 295.236 292.393 304.537 296.723C309.037 298.818 312.607 302.213 314.586 306.279C316.569 310.354 316.719 314.617 315.007 318.281C313.296 321.946 309.93 324.572 305.53 325.675C304.05 326.046 302.511 326.231 300.949 326.231ZM295.326 294.884C289.239 294.884 283.826 297.682 281.493 302.679C279.814 306.274 279.964 310.461 281.912 314.467C283.865 318.483 287.393 321.834 291.844 323.906C296.294 325.979 301.131 326.522 305.467 325.436C309.793 324.352 313.101 321.774 314.78 318.179C316.459 314.584 316.309 310.397 314.361 306.391C312.408 302.375 308.88 299.024 304.43 296.952C301.421 295.552 298.292 294.887 295.326 294.887V294.884Z" fill="white"/>
<path d="M301.134 325.745C298.16 325.745 295.102 325.057 292.213 323.712C287.852 321.682 284.395 318.393 282.479 314.455C280.558 310.506 280.413 306.378 282.072 302.828C285.49 295.509 295.601 292.968 304.612 297.164C308.973 299.194 312.428 302.482 314.346 306.421C316.267 310.369 316.412 314.497 314.753 318.047C313.094 321.597 309.833 324.141 305.572 325.209C304.138 325.568 302.648 325.747 301.137 325.747L301.134 325.745ZM295.691 295.387C289.798 295.387 284.557 298.098 282.299 302.933C280.672 306.413 280.817 310.466 282.706 314.345C284.597 318.231 288.012 321.478 292.32 323.485C296.629 325.491 301.314 326.016 305.512 324.965C309.701 323.916 312.902 321.42 314.528 317.94C316.155 314.46 316.01 310.407 314.122 306.528C312.231 302.639 308.815 299.396 304.507 297.388C301.596 296.033 298.565 295.387 295.693 295.387H295.691Z" fill="white"/>
<path d="M301.316 325.247C298.502 325.247 295.538 324.616 292.689 323.289C288.471 321.323 285.125 318.144 283.272 314.333C281.413 310.514 281.274 306.518 282.878 303.083C286.186 296 295.97 293.541 304.687 297.6C313.406 301.66 317.806 310.726 314.498 317.808C312.273 322.576 307.112 325.249 301.316 325.249V325.247ZM296.055 295.891C290.357 295.891 285.288 298.511 283.102 303.187C281.531 306.553 281.67 310.474 283.494 314.223C285.323 317.982 288.626 321.121 292.794 323.062C301.389 327.063 311.023 324.659 314.271 317.698C317.52 310.741 313.174 301.825 304.579 297.821C301.763 296.508 298.834 295.886 296.055 295.886V295.891Z" fill="white"/>
<path d="M301.685 323.326C299.188 323.326 296.621 322.748 294.193 321.619C290.531 319.915 287.63 317.153 286.018 313.844C284.404 310.529 284.282 307.058 285.676 304.074C287.069 301.09 289.81 298.952 293.39 298.055C296.963 297.161 300.947 297.607 304.609 299.311C308.271 301.015 311.173 303.778 312.784 307.086C314.398 310.402 314.521 313.872 313.126 316.856C311.731 319.841 308.992 321.978 305.412 322.875C304.207 323.176 302.957 323.326 301.688 323.326H301.685ZM297.115 297.856C295.865 297.856 294.635 298.003 293.45 298.299C289.942 299.179 287.261 301.266 285.901 304.181C284.539 307.096 284.661 310.489 286.24 313.737C287.824 316.993 290.686 319.714 294.296 321.395C297.906 323.077 301.83 323.518 305.347 322.636C308.855 321.756 311.537 319.669 312.896 316.754C314.259 313.839 314.136 310.446 312.557 307.198C310.973 303.942 308.112 301.222 304.502 299.54C302.107 298.427 299.575 297.856 297.115 297.856Z" fill="white"/>
<path d="M301.74 322.795C299.39 322.795 296.915 322.27 294.538 321.161C291.015 319.522 288.223 316.864 286.674 313.683C285.12 310.491 285.005 307.151 286.345 304.278C287.687 301.406 290.324 299.348 293.769 298.486C297.207 297.624 301.039 298.055 304.561 299.695C308.084 301.334 310.876 303.992 312.425 307.173C313.979 310.364 314.094 313.705 312.754 316.577C310.893 320.561 306.582 322.795 301.74 322.795ZM297.354 298.324C296.154 298.324 294.974 298.466 293.837 298.75C290.471 299.592 287.897 301.598 286.592 304.395C285.287 307.19 285.402 310.449 286.919 313.565C288.44 316.692 291.187 319.303 294.652 320.917C301.797 324.245 309.808 322.247 312.507 316.463C313.812 313.668 313.697 310.409 312.18 307.293C310.659 304.166 307.912 301.555 304.447 299.941C302.149 298.87 299.717 298.324 297.354 298.324Z" fill="white"/>
<path d="M301.8 322.275C299.542 322.275 297.167 321.769 294.882 320.705C287.887 317.449 284.357 310.173 287.014 304.485C288.303 301.725 290.836 299.747 294.149 298.917C297.449 298.09 301.131 298.501 304.514 300.078C307.897 301.653 310.579 304.204 312.068 307.26C313.56 310.327 313.672 313.536 312.385 316.296C310.596 320.125 306.453 322.272 301.802 322.272L301.8 322.275ZM297.594 298.795C296.444 298.795 295.311 298.93 294.221 299.204C290.995 300.011 288.533 301.932 287.281 304.61C284.694 310.15 288.159 317.25 295.007 320.439C301.855 323.628 309.529 321.714 312.116 316.174C313.366 313.496 313.256 310.377 311.801 307.39C310.344 304.393 307.71 301.892 304.389 300.345C302.187 299.319 299.857 298.795 297.591 298.795H297.594Z" fill="white"/>
<path d="M301.86 321.752C299.697 321.752 297.417 321.268 295.226 320.247C291.983 318.737 289.411 316.291 287.984 313.359C286.552 310.417 286.445 307.338 287.682 304.69C288.92 302.041 291.349 300.143 294.528 299.348C297.693 298.554 301.224 298.95 304.467 300.459C307.71 301.969 310.282 304.415 311.709 307.348C313.141 310.29 313.248 313.369 312.011 316.017C310.294 319.691 306.32 321.752 301.86 321.752ZM297.831 299.266C296.731 299.266 295.648 299.396 294.605 299.657C291.522 300.43 289.167 302.266 287.969 304.824C286.774 307.385 286.881 310.367 288.268 313.222C289.663 316.087 292.18 318.481 295.358 319.96C301.907 323.01 309.247 321.181 311.721 315.885C312.916 313.324 312.809 310.342 311.422 307.487C310.027 304.622 307.51 302.228 304.332 300.748C302.224 299.767 299.994 299.266 297.828 299.266H297.831Z" fill="white"/>
<path d="M301.922 321.231C299.851 321.231 297.671 320.768 295.573 319.791C292.469 318.346 290.007 316.004 288.642 313.199C287.27 310.382 287.168 307.432 288.353 304.896C289.538 302.36 291.866 300.542 294.909 299.779C297.94 299.019 301.318 299.398 304.422 300.843C307.525 302.288 309.987 304.63 311.352 307.435C312.724 310.252 312.826 313.202 311.641 315.738C309.997 319.255 306.193 321.228 301.919 321.228L301.922 321.231ZM298.07 299.737C297.02 299.737 295.987 299.861 294.992 300.111C292.05 300.848 289.802 302.599 288.662 305.041C287.522 307.482 287.625 310.327 288.949 313.052C290.281 315.788 292.684 318.072 295.717 319.485C301.969 322.397 308.974 320.653 311.334 315.598C312.475 313.157 312.372 310.312 311.048 307.587C309.715 304.851 307.313 302.567 304.279 301.154C302.266 300.218 300.138 299.739 298.07 299.739V299.737Z" fill="white"/>
<path d="M301.987 320.715C299.964 320.715 297.885 320.247 295.92 319.333C292.953 317.953 290.603 315.715 289.299 313.035C287.989 310.342 287.889 307.524 289.022 305.098C290.154 302.674 292.38 300.935 295.288 300.208C298.182 299.483 301.41 299.844 304.374 301.224C307.34 302.604 309.69 304.841 310.995 307.522C312.305 310.215 312.405 313.032 311.272 315.459C310.14 317.883 307.914 319.622 305.005 320.349C304.03 320.593 303.015 320.715 301.987 320.715ZM298.307 300.205C297.307 300.205 296.324 300.322 295.376 300.559C292.577 301.262 290.436 302.926 289.351 305.25C288.266 307.574 288.363 310.282 289.625 312.876C290.893 315.481 293.183 317.659 296.074 319.004C298.966 320.349 302.106 320.703 304.921 319.998C307.72 319.295 309.86 317.631 310.945 315.304C312.031 312.98 311.933 310.272 310.671 307.679C309.404 305.073 307.113 302.896 304.222 301.551C302.306 300.659 300.278 300.203 298.31 300.203L298.307 300.205Z" fill="white"/>
<path d="M302.047 320.194C300.119 320.194 298.138 319.749 296.264 318.877C290.417 316.154 287.468 310.065 289.691 305.305C291.913 300.544 298.48 298.885 304.327 301.608C307.154 302.923 309.394 305.056 310.636 307.609C311.886 310.177 311.978 312.865 310.898 315.18C309.818 317.494 307.695 319.151 304.923 319.846C303.993 320.08 303.025 320.194 302.044 320.194H302.047ZM298.547 300.681C294.802 300.681 291.474 302.397 290.042 305.467C287.909 310.035 290.773 315.895 296.429 318.528C299.176 319.806 302.159 320.142 304.834 319.472C307.493 318.807 309.524 317.225 310.554 315.018C311.584 312.811 311.492 310.242 310.295 307.778C309.09 305.302 306.914 303.234 304.167 301.956C302.311 301.092 300.378 300.681 298.547 300.681Z" fill="white"/>
<path d="M302.101 319.664C300.308 319.664 298.422 319.263 296.608 318.418C293.921 317.168 291.791 315.14 290.608 312.711C289.418 310.267 289.331 307.709 290.359 305.509C291.387 303.307 293.407 301.73 296.044 301.07C298.666 300.412 301.592 300.738 304.279 301.991C309.84 304.58 312.644 310.372 310.529 314.901C309.104 317.952 305.804 319.664 302.101 319.664ZM298.783 301.147C297.883 301.147 296.997 301.251 296.146 301.466C293.629 302.096 291.706 303.593 290.73 305.681C289.755 307.768 289.842 310.202 290.977 312.534C292.117 314.881 294.181 316.839 296.783 318.05C302.139 320.543 308.141 319.053 310.159 314.729C312.18 310.404 309.466 304.854 304.107 302.36C302.381 301.555 300.555 301.147 298.783 301.147Z" fill="white"/>
<path d="M302.164 319.143C300.465 319.143 298.676 318.762 296.957 317.963C291.683 315.506 289.027 310.011 291.032 305.713C292.008 303.623 293.924 302.126 296.428 301.501C298.916 300.878 301.69 301.187 304.237 302.373C306.784 303.559 308.805 305.482 309.925 307.784C311.053 310.103 311.137 312.529 310.162 314.619C308.81 317.517 305.676 319.141 302.164 319.141V319.143ZM299.023 301.615C298.172 301.615 297.337 301.715 296.531 301.917C294.156 302.512 292.34 303.925 291.419 305.895C289.513 309.978 292.078 315.217 297.137 317.571C302.196 319.926 307.862 318.521 309.768 314.438C310.688 312.467 310.606 310.17 309.533 307.97C308.456 305.756 306.507 303.905 304.05 302.761C302.418 302.002 300.694 301.613 299.02 301.613L299.023 301.615Z" fill="white"/>
<path d="M302.229 318.628C300.588 318.628 298.899 318.249 297.302 317.507C294.895 316.386 292.984 314.567 291.923 312.39C290.856 310.195 290.776 307.898 291.701 305.92C292.624 303.942 294.438 302.525 296.808 301.932C299.161 301.344 301.782 301.635 304.19 302.756C306.597 303.877 308.508 305.696 309.569 307.873C310.636 310.068 310.716 312.365 309.791 314.343C308.868 316.321 307.054 317.738 304.684 318.331C303.891 318.53 303.065 318.628 302.229 318.628ZM299.263 302.086C298.462 302.086 297.676 302.181 296.918 302.37C294.683 302.931 292.976 304.258 292.113 306.109C291.247 307.96 291.327 310.12 292.332 312.19C293.348 314.276 295.179 316.017 297.494 317.096C299.807 318.174 302.321 318.456 304.574 317.893C306.809 317.332 308.516 316.004 309.379 314.153C310.245 312.303 310.165 310.143 309.159 308.072C308.144 305.987 306.313 304.246 303.998 303.167C302.464 302.452 300.839 302.089 299.263 302.089V302.086Z" fill="white"/>
<path d="M302.289 318.104C300.742 318.104 299.15 317.748 297.646 317.048C295.378 315.992 293.577 314.281 292.579 312.228C291.571 310.158 291.497 307.99 292.37 306.124C293.24 304.258 294.952 302.921 297.187 302.363C299.405 301.807 301.875 302.084 304.142 303.14C306.41 304.196 308.211 305.908 309.209 307.96C310.217 310.031 310.292 312.198 309.419 314.064C308.548 315.93 306.837 317.267 304.601 317.825C303.853 318.012 303.077 318.104 302.289 318.104ZM299.5 302.557C298.751 302.557 298.013 302.644 297.302 302.824C295.209 303.347 293.61 304.592 292.801 306.326C291.991 308.06 292.065 310.083 293.008 312.021C293.959 313.977 295.678 315.608 297.848 316.62C300.019 317.631 302.376 317.895 304.487 317.367C306.58 316.844 308.179 315.598 308.987 313.864C309.798 312.131 309.723 310.108 308.78 308.17C307.83 306.214 306.111 304.582 303.94 303.571C302.501 302.901 300.979 302.557 299.5 302.557Z" fill="white"/>
<path d="M302.349 317.581C300.897 317.581 299.403 317.245 297.991 316.59C293.577 314.534 291.355 309.931 293.038 306.326C293.857 304.572 295.466 303.317 297.566 302.789C299.647 302.268 301.967 302.527 304.095 303.518C308.508 305.574 310.731 310.177 309.047 313.782C308.229 315.536 306.62 316.792 304.519 317.32C303.816 317.497 303.087 317.584 302.346 317.584L302.349 317.581ZM299.739 303.025C299.041 303.025 298.35 303.107 297.689 303.274C295.738 303.763 294.246 304.923 293.493 306.538C291.926 309.891 294.039 314.198 298.205 316.139C300.231 317.083 302.431 317.33 304.402 316.836C306.353 316.348 307.845 315.187 308.598 313.573C310.165 310.22 308.052 305.912 303.886 303.972C302.541 303.347 301.119 303.025 299.739 303.025Z" fill="white"/>
<path d="M307.586 311.95C308.614 309.749 307.247 306.94 304.534 305.677C301.82 304.413 298.788 305.173 297.76 307.374C296.732 309.575 298.099 312.383 300.812 313.647C303.526 314.91 306.558 314.15 307.586 311.95Z" fill="white"/>
<path d="M405.508 254.766C411.717 250.835 417.927 246.904 424.136 242.975C440.933 262.461 457.732 281.947 474.53 301.436C471.703 304.48 468.874 307.524 466.047 310.571C445.868 291.969 425.688 273.37 405.508 254.768V254.766Z" fill="#000419" stroke="white" stroke-linecap="round" stroke-linejoin="round"/>
<path d="M405.508 254.766C405.501 264.115 405.493 273.465 405.488 282.812C424.171 301.217 442.852 319.621 461.535 338.026C463.039 328.874 464.544 319.721 466.048 310.566C445.868 291.964 425.688 273.365 405.508 254.763V254.766Z" fill="#000419" stroke="white" stroke-linecap="round" stroke-linejoin="round"/>
<path d="M405.488 282.814V287.983C423.513 305.589 441.537 323.191 459.562 340.797C460.22 339.875 460.876 338.953 461.535 338.029C442.852 319.624 424.171 301.219 405.488 282.814Z" fill="#000419" stroke="white" stroke-linecap="round" stroke-linejoin="round"/>
<path d="M498.806 416.72C498.806 408.072 491.785 401.061 483.124 401.061C474.463 401.061 467.442 408.072 467.442 416.72V439.091C467.442 447.74 474.463 454.751 483.124 454.751C491.785 454.751 498.806 447.74 498.806 439.091V416.72Z" fill="#000419" stroke="white" stroke-linecap="round" stroke-linejoin="round"/>
<path d="M510.941 411.786V367.916H455.303V411.786C455.303 420.213 467.757 427.047 483.119 427.047C498.482 427.047 510.941 420.213 510.941 411.786Z" fill="#000419" stroke="white" stroke-linecap="round" stroke-linejoin="round"/>
<path d="M515.99 324.444V376.261C515.99 386.216 501.279 394.285 483.134 394.285C464.99 394.285 450.276 386.216 450.276 376.261V324.444H515.99Z" fill="#000419" stroke="white" stroke-linecap="round" stroke-linejoin="round"/>
<path d="M483.132 342.471C501.279 342.471 515.99 334.401 515.99 324.447C515.99 314.493 501.279 306.423 483.132 306.423C464.985 306.423 450.274 314.493 450.274 324.447C450.274 334.401 464.985 342.471 483.132 342.471Z" fill="#000419" stroke="white" stroke-linecap="round" stroke-linejoin="round"/>
<path d="M483.132 339.78C498.569 339.78 511.083 332.915 511.083 324.447C511.083 315.979 498.569 309.114 483.132 309.114C467.695 309.114 455.181 315.979 455.181 324.447C455.181 332.915 467.695 339.78 483.132 339.78Z" fill="#000419" stroke="white" stroke-linecap="round" stroke-linejoin="round"/>
<path d="M510.946 306.877V325.964C509.556 333.719 497.634 339.778 483.134 339.778C468.635 339.778 456.66 333.692 455.311 325.917V306.877H510.946Z" fill="#000419" stroke="white" stroke-linecap="round" stroke-linejoin="round"/>
<path d="M483.127 322.138C498.491 322.138 510.946 315.305 510.946 306.877C510.946 298.448 498.491 291.616 483.127 291.616C467.763 291.616 455.308 298.448 455.308 306.877C455.308 315.305 467.763 322.138 483.127 322.138Z" fill="#000419" stroke="white" stroke-linecap="round" stroke-linejoin="round"/>
<path d="M506.792 306.877C506.792 307.313 506.755 307.746 506.675 308.172C505.49 314.731 495.398 319.858 483.127 319.858C470.855 319.858 460.717 314.709 459.572 308.125C459.497 307.714 459.462 307.295 459.462 306.874C459.462 306.453 459.497 306.035 459.572 305.624C460.717 299.039 470.825 293.893 483.127 293.893C495.428 293.893 505.487 299.017 506.675 305.576C506.755 306.002 506.792 306.436 506.792 306.872V306.877Z" fill="#000419" stroke="white" stroke-linecap="round" stroke-linejoin="round"/>
<path d="M494.488 161.182C522.658 174.136 550.831 187.09 579.002 200.045V212.501C546.964 199.215 514.925 185.927 482.887 172.642C486.754 168.823 490.621 165.001 494.488 161.182Z" fill="#000419" stroke="white" stroke-linecap="round" stroke-linejoin="round"/>
<path d="M482.887 172.641V197.429C514.925 207.463 546.964 217.498 579.002 227.53V212.5C546.964 199.215 514.925 185.927 482.887 172.641Z" fill="#000419" stroke="white" stroke-linecap="round" stroke-linejoin="round"/>
<path d="M482.887 197.429V202.785C514.925 213.193 546.964 223.601 579.002 234.007V227.53C546.964 217.495 514.925 207.461 482.887 197.429Z" fill="#000419" stroke="white" stroke-linecap="round" stroke-linejoin="round"/>
<path d="M596.161 304.094C596.161 312.73 603.171 319.731 611.819 319.731C620.467 319.731 627.477 312.73 627.477 304.094V281.758C627.477 273.122 620.467 266.121 611.819 266.121C603.171 266.121 596.161 273.122 596.161 281.758V304.094Z" fill="#000419" stroke="white" stroke-linecap="round" stroke-linejoin="round"/>
<path d="M584.042 276.83V233.025H639.597V276.83C639.597 285.245 627.163 292.069 611.82 292.069C596.478 292.069 584.042 285.245 584.042 276.83Z" fill="#000419" stroke="white" stroke-linecap="round" stroke-linejoin="round"/>
<path d="M579.002 189.617V241.356C579.002 251.296 593.691 259.355 611.81 259.355C629.929 259.355 644.621 251.298 644.621 241.356V189.617H579.002Z" fill="#000419" stroke="white" stroke-linecap="round" stroke-linejoin="round"/>
<path d="M611.81 207.618C629.93 207.618 644.618 199.559 644.618 189.619C644.618 179.678 629.93 171.62 611.81 171.62C593.691 171.62 579.002 179.678 579.002 189.619C579.002 199.559 593.691 207.618 611.81 207.618Z" fill="#000419" stroke="white" stroke-linecap="round" stroke-linejoin="round"/>
<path d="M611.81 204.93C627.223 204.93 639.718 198.075 639.718 189.619C639.718 181.163 627.223 174.308 611.81 174.308C596.396 174.308 583.901 181.163 583.901 189.619C583.901 198.075 596.396 204.93 611.81 204.93Z" fill="#000419" stroke="white" stroke-linecap="round" stroke-linejoin="round"/>
<path d="M584.039 172.074V191.134C585.426 198.876 597.33 204.927 611.81 204.927C626.289 204.927 638.244 198.851 639.591 191.086V172.076H584.039V172.074Z" fill="#000419" stroke="white" stroke-linecap="round" stroke-linejoin="round"/>
<path d="M611.815 187.312C627.157 187.312 639.594 180.49 639.594 172.074C639.594 163.658 627.157 156.835 611.815 156.835C596.473 156.835 584.036 163.658 584.036 172.074C584.036 180.49 596.473 187.312 611.815 187.312Z" fill="#000419" stroke="white" stroke-linecap="round" stroke-linejoin="round"/>
<path d="M588.185 172.074C588.185 172.51 588.222 172.941 588.302 173.369C589.485 179.921 599.561 185.038 611.815 185.038C624.069 185.038 634.193 179.896 635.335 173.322C635.41 172.911 635.445 172.495 635.445 172.074C635.445 171.653 635.41 171.237 635.335 170.825C634.193 164.251 624.097 159.112 611.815 159.112C599.534 159.112 589.487 164.229 588.302 170.778C588.222 171.204 588.185 171.635 588.185 172.074Z" fill="#000419" stroke="white" stroke-linecap="round" stroke-linejoin="round"/>
<path d="M575.566 222.216C576.973 225.096 579.343 228.873 583.3 232.181C594.591 241.618 609.106 239.099 611.575 238.631C612.187 238.994 617.605 242.35 618.226 248.872C618.668 253.511 616.413 256.904 615.744 257.84C613.277 258.463 596.817 262.342 584.041 252.111C579.728 248.658 577.123 244.627 575.566 241.523C574.446 237.856 573.413 232.41 574.569 226.142C574.83 224.727 575.175 223.417 575.566 222.216Z" fill="#000419" stroke="white" stroke-linecap="round" stroke-linejoin="round"/>
<path d="M459.454 374.071C536.579 386.091 602.592 356.75 621.854 309.054C625.716 299.49 632.077 278.345 623.588 247.153C654.585 241.269 674.488 230.026 686.372 221.501C688.84 219.733 691.115 218.088 693.677 215.727C714.613 196.42 715.286 165.353 713.919 147.478C711.375 155.682 707.508 164.782 701.555 173.922C676.98 211.674 635.033 222.181 621.48 224.979C619.234 227.47 616.989 229.961 614.744 232.453C623.226 256.978 620.142 274.352 617.341 283.599C603.67 328.764 542.18 360.509 465.068 355.011C464.297 355.223 459.794 356.541 457.583 360.99C455.538 365.106 456.271 370.257 459.454 374.069V374.071Z" fill="#000419" stroke="white" stroke-linecap="round" stroke-linejoin="round"/>
<path d="M575.566 222.216C576.46 222.174 577.355 222.134 578.248 222.092C579.842 224.468 582.275 227.408 585.877 229.939C595.968 237.031 607.384 235.429 610.455 234.896C611.303 235.073 611.977 235.716 612.177 236.54C612.461 237.716 611.623 238.583 611.575 238.631C609.106 239.099 594.591 241.617 583.3 232.181C579.343 228.873 576.973 225.096 575.566 222.216Z" fill="#000419" stroke="white" stroke-linecap="round" stroke-linejoin="round"/>
<path d="M621.021 107.126C625.134 107.936 699.14 123.187 702.548 157.112C702.83 159.912 702.643 162.963 701.77 166.284C709.065 156.93 710.207 149.479 710.032 144.656C709.177 121.027 674.453 97.383 622.26 89.9144C621.387 91.3892 619.993 94.1893 619.641 97.9809C619.249 102.206 620.354 105.507 621.021 107.126Z" fill="#000419" stroke="white" stroke-linecap="round" stroke-linejoin="round"/>
<path d="M459.454 374.071C459.12 373.536 456.595 369.353 458.332 364.356C460.185 359.022 465.282 357.393 465.798 357.236C545.512 363.247 608.851 331.387 622.717 285.739C625.558 276.385 628.492 259.307 620.222 235.168C620.145 234.941 619.736 234.117 619.806 233.023C620.04 229.356 625.182 226.591 630.533 224.623C686.542 211.86 718.667 170.113 713.428 141.554C708.024 112.103 661.814 90.8211 630.842 85.1063C629.161 84.7949 627.744 84.5732 626.731 84.4213C625.242 86.2523 623.75 88.0833 622.26 89.9143C622.924 90.0339 623.854 90.2083 624.962 90.43C655.051 96.5085 701.164 117.601 705.709 142.663C710.402 168.541 680.233 206.011 628.372 219.807C617.787 222.924 610.45 228.429 610.41 234.089C610.405 234.941 610.563 235.893 611.002 236.937C618.408 258.157 616.251 273.39 613.736 282.251C601.494 325.371 541.459 356.117 464.676 352.004C463.393 352.331 459.315 353.542 456.942 357.361C453.988 362.116 454.886 368.982 459.454 374.069V374.071Z" fill="#000419" stroke="white" stroke-linecap="round" stroke-linejoin="round"/>
<path d="M500.188 118.762C515.678 112.671 535.439 106.381 558.852 102.308C582.27 98.2351 602.998 97.4803 619.641 97.9835C619.895 96.6955 620.15 95.4101 620.404 94.1221C603.173 93.7061 581.913 94.593 557.981 98.7782C534.937 102.806 515.299 108.865 499.612 114.839L500.191 118.762H500.188Z" fill="#000419" stroke="white" stroke-linecap="round" stroke-linejoin="round"/>
<path d="M500.78 127.718C516.586 121.43 537.008 114.896 561.347 110.86C584.326 107.049 604.665 106.483 621.021 107.126C620.552 105.988 620.045 104.451 619.771 102.585C619.501 100.766 619.531 99.1867 619.641 97.9809C602.999 97.4777 582.27 98.2326 558.852 102.306C535.439 106.379 515.678 112.669 500.188 118.76C500.386 121.744 500.583 124.731 500.777 127.716L500.78 127.718Z" fill="#000419" stroke="white" stroke-linecap="round" stroke-linejoin="round"/>
<path d="M498.697 285.866C501.705 283.35 504.989 280.774 508.554 278.196C511.308 276.205 514.005 274.377 516.619 272.7C528.142 269.073 540.269 265.55 552.975 262.217C566.094 258.777 578.775 255.82 590.952 253.269C595.924 252.551 600.355 254.298 602.041 257.561C602.41 258.279 602.932 259.611 602.769 261.577C595.492 266.111 587.771 270.652 579.598 275.126C565.259 282.979 551.425 289.6 538.378 295.195C531.058 295.445 523.038 295.347 514.439 294.685C509.551 294.309 504.894 293.78 500.486 293.15C499.889 290.721 499.291 288.292 498.694 285.863L498.697 285.866Z" fill="#000419" stroke="white" stroke-linecap="round" stroke-linejoin="round"/>
<path d="M506.675 287.137V308.172C505.49 314.731 495.399 319.858 483.127 319.858C470.855 319.858 460.717 314.709 459.572 308.125V287.134H506.672L506.675 287.137Z" fill="#000419" stroke="white" stroke-linecap="round" stroke-linejoin="round"/>
<path d="M483.122 300.056C496.128 300.056 506.672 294.272 506.672 287.136C506.672 280.001 496.128 274.217 483.122 274.217C470.116 274.217 459.572 280.001 459.572 287.136C459.572 294.272 470.116 300.056 483.122 300.056Z" fill="#000419" stroke="white" stroke-linecap="round" stroke-linejoin="round"/>
<path d="M483.122 298.127C494.186 298.127 503.155 293.207 503.155 287.136C503.155 281.066 494.186 276.145 483.122 276.145C472.058 276.145 463.089 281.066 463.089 287.136C463.089 293.207 472.058 298.127 483.122 298.127Z" fill="#000419" stroke="white" stroke-linecap="round" stroke-linejoin="round"/>
<path d="M483.122 292.403C489.527 292.403 494.72 289.8 494.72 286.588C494.72 283.377 489.527 280.774 483.122 280.774C476.717 280.774 471.524 283.377 471.524 286.588C471.524 289.8 476.717 292.403 483.122 292.403Z" fill="#000419" stroke="white" stroke-linecap="round" stroke-linejoin="round"/>
<path d="M459.574 292.318V290.103C457.062 289.204 454.043 288.32 450.576 287.674C447.131 287.034 444.012 286.778 441.36 286.713C429.989 287.326 418.079 288.188 405.668 289.359C392.853 290.567 380.531 292.004 368.754 293.601C364.004 294.49 360.214 297.046 359.254 299.939C359.042 300.574 358.807 301.707 359.321 303.112C366.918 304.383 374.928 305.529 383.343 306.5C398.109 308.204 412.179 309.141 425.329 309.545C431.476 308.608 439.392 306.744 448.014 302.888C453.43 300.467 457.993 297.764 461.712 295.218C460.999 294.251 460.288 293.287 459.574 292.321V292.318Z" fill="#000419" stroke="white" stroke-linecap="round" stroke-linejoin="round"/>
<path d="M596.268 151.095C593.264 148.582 589.986 146.011 586.426 143.437C583.677 141.449 580.985 139.623 578.373 137.949C566.865 134.327 554.758 130.81 542.07 127.481C528.97 124.046 516.307 121.091 504.148 118.548C499.183 117.83 494.758 119.577 493.074 122.835C492.704 123.55 492.185 124.883 492.345 126.846C499.612 131.375 507.323 135.907 515.481 140.376C529.798 148.218 543.612 154.827 556.642 160.415C563.951 160.664 571.959 160.567 580.546 159.904C585.428 159.528 590.079 159.002 594.479 158.372C595.076 155.946 595.672 153.522 596.268 151.095Z" fill="#000419" stroke="white" stroke-linecap="round" stroke-linejoin="round"/>
<path d="M588.302 152.363V173.369C589.485 179.921 599.561 185.038 611.815 185.038C624.069 185.038 634.193 179.896 635.335 173.322V152.363H588.302Z" fill="#000419" stroke="white" stroke-linecap="round" stroke-linejoin="round"/>
<path d="M611.82 165.263C624.809 165.263 635.338 159.488 635.338 152.363C635.338 145.239 624.809 139.464 611.82 139.464C598.832 139.464 588.302 145.239 588.302 152.363C588.302 159.488 598.832 165.263 611.82 165.263Z" fill="#000419" stroke="white" stroke-linecap="round" stroke-linejoin="round"/>
<path d="M611.82 163.337C622.869 163.337 631.825 158.424 631.825 152.363C631.825 146.303 622.869 141.39 611.82 141.39C600.772 141.39 591.815 146.303 591.815 152.363C591.815 158.424 600.772 163.337 611.82 163.337Z" fill="#000419" stroke="white" stroke-linecap="round" stroke-linejoin="round"/>
<path d="M611.82 157.622C618.216 157.622 623.401 155.022 623.401 151.815C623.401 148.608 618.216 146.008 611.82 146.008C605.425 146.008 600.24 148.608 600.24 151.815C600.24 155.022 605.425 157.622 611.82 157.622Z" fill="#000419" stroke="white" stroke-linecap="round" stroke-linejoin="round"/>
<path d="M635.335 157.538V155.325C637.842 154.429 640.859 153.544 644.321 152.899C647.762 152.261 650.875 152.002 653.524 151.937C664.878 152.55 676.77 153.41 689.164 154.578C701.962 155.784 714.264 157.219 726.024 158.813C730.766 159.702 734.551 162.253 735.509 165.141C735.718 165.773 735.953 166.907 735.441 168.309C727.855 169.577 719.857 170.723 711.454 171.692C696.708 173.394 682.66 174.328 669.528 174.734C663.391 173.8 655.485 171.939 646.876 168.088C641.467 165.669 636.912 162.971 633.197 160.43C633.908 159.466 634.619 158.502 635.333 157.538H635.335Z" fill="#000419" stroke="white" stroke-linecap="round" stroke-linejoin="round"/>
</g>
<defs>
<clipPath id="clip0_1135_2754">
<rect width="736" height="455" fill="white"/>
</clipPath>
</defs>
</svg>
