<svg width="80" height="80" viewBox="0 0 80 80" fill="none" xmlns="http://www.w3.org/2000/svg">
<path d="M71.9413 68.2313H77.6563V45.2888H71.9413C68.9003 45.2888 66.4352 47.754 66.4352 50.7949V62.7251C66.4352 65.7662 68.9003 68.2313 71.9413 68.2313Z" stroke="white" stroke-width="1.5" stroke-miterlimit="10"/>
<path d="M8.05875 68.2313H2.34375V45.2888H8.05875C11.0997 45.2888 13.5648 47.754 13.5648 50.7949V62.7251C13.5648 65.7662 11.0997 68.2313 8.05875 68.2313Z" stroke="white" stroke-width="1.5" stroke-miterlimit="10"/>
<path d="M70.3269 68.2V68.6406C70.3269 73.5996 66.3067 77.6198 61.3477 77.6198H37.9677" stroke="white" stroke-width="1.5" stroke-miterlimit="10"/>
<path d="M47.3166 77.6199H37.2593C34.6704 77.6199 32.5718 75.5213 32.5718 72.9324C32.5718 70.3435 34.6704 68.2449 37.2593 68.2449H42.6291C45.218 68.2449 47.3166 70.3435 47.3166 72.9324V77.6199Z" stroke="white" stroke-width="1.5" stroke-miterlimit="10"/>
<path d="M6.47693 45.2887V35.8473C6.47693 17.3639 21.4607 2.38013 39.9441 2.38013C58.4275 2.38013 73.4113 17.3639 73.4113 35.8473V45.2887" stroke="white" stroke-width="1.5" stroke-miterlimit="10"/>
<path d="M24.0202 57.6783H55.8678V25.8305H45.2408V21.7493C45.2408 18.824 42.8694 16.4524 39.9439 16.4524C37.0186 16.4524 34.6471 18.8238 34.6471 21.7493V25.8305H24.02V36.4575H28.1013C31.0266 36.4575 33.3981 38.829 33.3981 41.7543C33.3981 44.6796 31.0267 47.051 28.1013 47.051H24.02V57.6783H24.0202Z" stroke="white" stroke-width="1.5" stroke-miterlimit="10"/>
</svg>
