<svg width="228" height="451" viewBox="0 0 228 451" fill="none" xmlns="http://www.w3.org/2000/svg">
<path d="M44.3957 66.6348C45.8492 72.8609 45.8492 79.3397 45.8492 85.7554C45.8492 205.346 45.786 324.936 45.786 444.526C45.786 446.612 45.47 449.14 43.5425 449.899C41.3306 450.752 39.2452 448.476 37.9812 446.454C27.8698 430.62 17.7583 414.786 7.61521 398.953C5.21374 395.223 2.81226 391.399 1.48513 387.164C3.86099e-06 382.392 0 377.335 0 372.342C0 250.413 0.0316119 128.453 0.0632102 6.5237C0.0632102 4.37461 0.72678 1.2458 2.90707 0.202864C3.98141 -0.302803 4.99254 0.202864 5.7509 0.992968C6.79365 2.09911 7.52041 3.58451 8.34196 4.88028C11.881 10.4426 15.42 16.005 18.9274 21.5989C22.4664 27.1612 26.0055 32.7236 29.5129 38.3175C31.0612 40.7826 32.6095 43.2161 34.1894 45.6813C38.0128 51.7177 41.8994 57.8489 43.8585 64.707C44.0481 65.3707 44.2061 66.0344 44.3641 66.698L44.3957 66.6348Z" fill="#009934"/>
<path d="M182.638 66.6348C181.184 72.8609 181.184 79.3397 181.184 85.7554C181.184 205.346 181.248 324.936 181.248 444.526C181.248 446.612 181.564 449.14 183.491 449.899C185.703 450.752 187.789 448.476 189.052 446.454C199.164 430.62 209.275 414.786 219.418 398.953C221.82 395.223 224.221 391.399 225.549 387.164C227.034 382.392 227.034 377.335 227.034 372.342C227.034 250.413 227.002 128.453 226.97 6.5237C226.97 4.37461 226.307 1.2458 224.127 0.202864C223.052 -0.302803 222.041 0.202864 221.283 0.992968C220.24 2.09911 219.513 3.58451 218.692 4.88028C215.153 10.4426 211.614 16.005 208.106 21.5989C204.599 27.1928 201.028 32.7236 197.521 38.3175C195.973 40.7826 194.424 43.2161 192.844 45.6813C189.021 51.7177 185.134 57.8489 183.175 64.707C182.986 65.3707 182.828 66.0344 182.67 66.698L182.638 66.6348Z" fill="#009934"/>
</svg>
