<svg width="80" height="80" viewBox="0 0 80 80" fill="none" xmlns="http://www.w3.org/2000/svg">
<g clip-path="url(#clip0_363_687)">
<mask id="mask0_363_687" style="mask-type:luminance" maskUnits="userSpaceOnUse" x="0" y="0" width="80" height="80">
<path d="M0 7.62939e-06H80V80H0V7.62939e-06Z" fill="white"/>
</mask>
<g mask="url(#mask0_363_687)">
<path d="M74.4165 51.1948C72.4013 48.8783 69.4337 47.4122 66.1207 47.4122C62.8121 47.4122 59.8402 48.8783 57.8295 51.1948M60.9387 53.8966C62.1965 52.4481 64.0524 51.5314 66.1207 51.5314C68.1893 51.5314 70.0449 52.4481 71.3027 53.8966M64.0481 56.5938C64.5529 56.0136 65.2924 55.6505 66.1207 55.6505C66.949 55.6505 67.6932 56.0136 68.1937 56.5938" stroke="white" stroke-width="1.5" stroke-miterlimit="10" stroke-linecap="round" stroke-linejoin="round"/>
<path d="M78.828 45.6141V69.7263H53.418V65.9349M53.418 60.6244V38.0268C53.418 35.9676 55.1056 34.2799 57.165 34.2799H75.0809C77.1405 34.2799 78.828 35.9676 78.828 38.0268V40.3035" stroke="white" stroke-width="1.5" stroke-miterlimit="10" stroke-linecap="round" stroke-linejoin="round"/>
<path d="M78.828 69.7263H53.418V75.0809C53.418 77.1405 55.1056 78.8281 57.165 78.8281H75.0809C77.1405 78.8281 78.828 77.1405 78.828 75.0809V69.7263Z" stroke="white" stroke-width="1.5" stroke-miterlimit="10" stroke-linecap="round" stroke-linejoin="round"/>
<path d="M64.4244 74.2749H67.8215" stroke="white" stroke-width="1.5" stroke-miterlimit="10" stroke-linecap="round" stroke-linejoin="round"/>
<path d="M40.7419 29.9082H21.3999C20.0356 29.9082 18.9196 28.7921 18.9196 27.428V14.043C18.9196 12.6788 20.0356 11.5629 21.3999 11.5629H48.1739C49.5381 11.5629 50.6542 12.6788 50.6542 14.043V27.428C50.6542 28.7921 49.5381 29.9082 48.1739 29.9082H46.048" stroke="white" stroke-width="1.5" stroke-miterlimit="10" stroke-linecap="round" stroke-linejoin="round"/>
<path d="M37.4422 6.70837H42.8634C44.2276 6.70837 45.3437 7.82478 45.3437 9.18884V11.5627H24.23V9.18884C24.23 7.82478 25.3462 6.70837 26.7103 6.70837H32.1317" stroke="white" stroke-width="1.5" stroke-miterlimit="10" stroke-linecap="round" stroke-linejoin="round"/>
<path d="M32.3087 36.1885H37.265V29.908H32.3087V36.1885Z" stroke="white" stroke-width="1.5" stroke-miterlimit="10" stroke-linecap="round" stroke-linejoin="round"/>
<path d="M30.7808 36.1886H38.7975C40.4097 36.1886 41.7295 37.5085 41.7295 39.1208V47.1374C41.7295 48.7497 40.4097 50.0696 38.7975 50.0696H30.7808C29.1641 50.0696 27.8442 48.7497 27.8442 47.1374V39.1208C27.8442 37.5085 29.1641 36.1886 30.7808 36.1886Z" stroke="white" stroke-width="1.5" stroke-miterlimit="10" stroke-linecap="round" stroke-linejoin="round"/>
<path d="M34.7891 45.6494C36.1753 45.6494 37.3092 44.5154 37.3092 43.1293C37.3092 41.7386 36.1753 40.6091 34.7891 40.6091C33.3983 40.6091 32.2689 41.7386 32.2689 43.1293C32.2689 44.5154 33.3983 45.6494 34.7891 45.6494Z" stroke="white" stroke-width="1.5" stroke-miterlimit="10" stroke-linecap="round" stroke-linejoin="round"/>
<path d="M2.82397 21.4795H18.9194V14.0429H2.82397V21.4795Z" stroke="white" stroke-width="1.5" stroke-miterlimit="10" stroke-linecap="round" stroke-linejoin="round"/>
<path d="M50.6542 21.4795H66.7496V14.0429H50.6542V21.4795Z" stroke="white" stroke-width="1.5" stroke-miterlimit="10" stroke-linecap="round" stroke-linejoin="round"/>
<path d="M12.9046 21.4795C12.9046 26.0858 10.6458 29.8242 7.86429 29.8242C5.07835 29.8242 2.82397 26.0858 2.82397 21.4795H12.9046Z" stroke="white" stroke-width="1.5" stroke-miterlimit="10" stroke-linecap="round" stroke-linejoin="round"/>
<path d="M56.6689 21.4795C56.6689 26.0858 58.9279 29.8242 61.7093 29.8242C64.4952 29.8242 66.7497 26.0858 66.7497 21.4795H56.6689Z" stroke="white" stroke-width="1.5" stroke-miterlimit="10" stroke-linecap="round" stroke-linejoin="round"/>
<path d="M7.86435 6.97422C9.22841 6.97422 10.3447 8.09031 10.3447 9.45438V14.043H5.38403V9.45438C5.38403 8.09031 6.50028 6.97422 7.86435 6.97422Z" stroke="white" stroke-width="1.5" stroke-miterlimit="10" stroke-linecap="round" stroke-linejoin="round"/>
<path d="M61.7092 6.97422C60.3452 6.97422 59.2333 8.09031 59.2333 9.45438V14.043H64.1895V9.45438C64.1895 8.09031 63.0734 6.97422 61.7092 6.97422Z" stroke="white" stroke-width="1.5" stroke-miterlimit="10" stroke-linecap="round" stroke-linejoin="round"/>
<path d="M7.86438 1.17178V6.97412" stroke="white" stroke-width="1.5" stroke-miterlimit="10" stroke-linecap="round" stroke-linejoin="round"/>
<path d="M27.9638 17.8299V23.6365M32.5124 17.8299V23.6365M37.0611 17.8299V23.6365M41.6143 17.8299V23.6365M46.163 17.8299V23.6365M23.4105 17.8299V23.6365" stroke="white" stroke-width="1.5" stroke-miterlimit="10" stroke-linecap="round" stroke-linejoin="round"/>
<path d="M61.7092 1.17178V6.97412" stroke="white" stroke-width="1.5" stroke-miterlimit="10" stroke-linecap="round" stroke-linejoin="round"/>
<path d="M1.172 2.77515H14.5567" stroke="white" stroke-width="1.5" stroke-miterlimit="10" stroke-linecap="round" stroke-linejoin="round"/>
<path d="M68.4018 2.77515H55.017" stroke="white" stroke-width="1.5" stroke-miterlimit="10" stroke-linecap="round" stroke-linejoin="round"/>
</g>
</g>
<defs>
<clipPath id="clip0_363_687">
<rect width="80" height="80" fill="white"/>
</clipPath>
</defs>
</svg>
