<svg width="80" height="80" viewBox="0 0 80 80" fill="none" xmlns="http://www.w3.org/2000/svg">
<path d="M77.6562 5.74219H2.34375V63.5545H77.6562V5.74219Z" stroke="white" stroke-width="1.5" stroke-miterlimit="10"/>
<path d="M27.5 74.2578L32.1875 63.5547H47.8125L52.5 74.2578" stroke="white" stroke-width="1.5" stroke-miterlimit="10"/>
<path d="M17.9688 74.2578H62.0312" stroke="white" stroke-width="1.5" stroke-miterlimit="10"/>
<path d="M77.6562 54.1797H2.34375" stroke="white" stroke-width="1.5" stroke-miterlimit="10"/>
<path d="M64.3881 20.9212C64.3881 23.9774 61.9105 26.4551 58.8542 26.4551C55.798 26.4551 53.3203 23.9774 53.3203 20.9212V20.9382C53.3203 17.882 55.798 15.4043 58.8542 15.4043C61.9105 15.4043 64.3881 17.882 64.3881 20.9382V20.9212Z" stroke="white" stroke-width="1.5" stroke-miterlimit="10"/>
<path d="M49.4258 44.8046V35.906C49.4258 30.6996 53.6464 26.479 58.8528 26.479C64.0592 26.479 68.2798 30.6996 68.2798 35.906V44.8046H49.4258Z" stroke="white" stroke-width="1.5" stroke-miterlimit="10"/>
<path d="M26.6811 27.1712C26.6811 30.2274 24.2034 32.7051 21.1472 32.7051C18.0909 32.7051 15.6133 30.2274 15.6133 27.1712V27.1882C15.6133 24.132 18.0909 21.6543 21.1472 21.6543C24.2034 21.6543 26.6811 24.132 26.6811 27.1882V27.1712Z" stroke="white" stroke-width="1.5" stroke-miterlimit="10"/>
<path d="M11.7188 44.8046V42.156C11.7188 36.9496 15.9394 32.729 21.1458 32.729C26.3522 32.729 30.5728 36.9496 30.5728 42.156V44.8046H11.7188Z" stroke="white" stroke-width="1.5" stroke-miterlimit="10"/>
<path d="M45.5327 24.0462C45.5327 27.1024 43.055 29.5801 39.9988 29.5801C36.9425 29.5801 34.4648 27.1024 34.4648 24.0462V24.0632C34.4648 21.007 36.9425 18.5293 39.9988 18.5293C43.055 18.5293 45.5327 21.007 45.5327 24.0632V24.0462Z" stroke="white" stroke-width="1.5" stroke-miterlimit="10"/>
<path d="M30.5742 44.8046V39.031C30.5742 33.8246 34.7948 29.604 40.0012 29.604C45.2077 29.604 49.4283 33.8246 49.4283 39.031V44.8046H30.5742Z" stroke="white" stroke-width="1.5" stroke-miterlimit="10"/>
</svg>
