<svg width="80" height="80" viewBox="0 0 80 80" fill="none" xmlns="http://www.w3.org/2000/svg">
<mask id="mask0_2312_4210" style="mask-type:luminance" maskUnits="userSpaceOnUse" x="0" y="0" width="80" height="80">
<path d="M79.25 79.25V0.75H0.75V79.25H79.25Z" fill="white" stroke="white" stroke-width="1.5"/>
</mask>
<g mask="url(#mask0_2312_4210)">
<path d="M32.8817 68.4736H22.5273V78.8281H32.8817V68.4736Z" stroke="white" stroke-width="1.5" stroke-miterlimit="10" stroke-linecap="round" stroke-linejoin="round"/>
</g>
<path d="M30.2945 63.2966H25.1172V68.4741H30.2945V63.2966Z" stroke="white" stroke-width="1.5" stroke-miterlimit="10" stroke-linecap="round" stroke-linejoin="round"/>
<path d="M22.5273 72.3569H32.8816" stroke="white" stroke-width="1.5" stroke-miterlimit="10" stroke-linecap="round" stroke-linejoin="round"/>
<mask id="mask1_2312_4210" style="mask-type:luminance" maskUnits="userSpaceOnUse" x="0" y="0" width="80" height="80">
<path d="M79.25 79.25V0.75H0.75V79.25H79.25Z" fill="white" stroke="white" stroke-width="1.5"/>
</mask>
<g mask="url(#mask1_2312_4210)">
<path d="M44.5302 46.4713C44.5302 55.7638 36.997 63.2969 27.7045 63.2969C18.412 63.2969 10.8789 55.7638 10.8789 46.4713C10.8789 37.1786 18.412 29.6455 27.7045 29.6455C36.997 29.6455 44.5302 37.1786 44.5302 46.4713Z" stroke="white" stroke-width="1.5" stroke-miterlimit="10" stroke-linecap="round" stroke-linejoin="round"/>
<path d="M39.3516 46.4712C39.3516 52.9045 34.1364 58.1196 27.7031 58.1196C21.2698 58.1196 16.0547 52.9045 16.0547 46.4712C16.0547 40.0379 21.2698 34.8226 27.7031 34.8226C34.1364 34.8226 39.3516 40.0379 39.3516 46.4712Z" stroke="white" stroke-width="1.5" stroke-miterlimit="10" stroke-linecap="round" stroke-linejoin="round"/>
<path d="M27.7031 7.8877V1.17191H56.1769" stroke="white" stroke-width="1.5" stroke-miterlimit="10" stroke-linecap="round" stroke-linejoin="round"/>
<path d="M27.7031 29.6455V12.5754" stroke="white" stroke-width="1.5" stroke-miterlimit="10" stroke-linecap="round" stroke-linejoin="round"/>
<path d="M69.1222 14.1147V60.7085H36.7656" stroke="white" stroke-width="1.5" stroke-miterlimit="10" stroke-linecap="round" stroke-linejoin="round"/>
<path d="M56.1797 14.1147H69.1223L56.1797 1.17209V14.1147Z" stroke="white" stroke-width="1.5" stroke-miterlimit="10" stroke-linecap="round" stroke-linejoin="round"/>
<path d="M40.6483 14.1143H32.8828V6.34863H40.6483V14.1143Z" stroke="white" stroke-width="1.5" stroke-miterlimit="10" stroke-linecap="round" stroke-linejoin="round"/>
<path d="M63.9452 27.0566H32.8828V21.8795H63.9452V27.0566Z" stroke="white" stroke-width="1.5" stroke-miterlimit="10" stroke-linecap="round" stroke-linejoin="round"/>
<path d="M36.9531 32.2344H63.9439V37.4116H42.2656" stroke="white" stroke-width="1.5" stroke-miterlimit="10" stroke-linecap="round" stroke-linejoin="round"/>
<path d="M44.5312 42.5884H58.7681V47.7656H44.5312" stroke="white" stroke-width="1.5" stroke-miterlimit="10" stroke-linecap="round" stroke-linejoin="round"/>
</g>
</svg>
