<svg width="80" height="80" viewBox="0 0 80 80" fill="none" xmlns="http://www.w3.org/2000/svg">
<mask id="mask0_2305_2184" style="mask-type:luminance" maskUnits="userSpaceOnUse" x="0" y="0" width="80" height="80">
<path d="M0 7.62939e-06H80V80H0V7.62939e-06Z" fill="white"/>
</mask>
<g mask="url(#mask0_2305_2184)">
<path d="M20.3789 45.6939C20.5006 47.3648 20.767 48.747 21.2517 49.5312C23.4036 53.0133 28.7019 51.1044 30.6267 54.2188C32.5516 57.3331 28.038 61.005 30.6267 63.5937C33.2155 66.1825 37.413 61.005 40.0017 63.5937C42.5905 66.1825 41.5184 69.6366 40.0017 72.9688C39.4966 74.0784 37.7503 75.823 35.6456 77.6562" stroke="white" stroke-width="1.5" stroke-miterlimit="10"/>
<path d="M22.6592 77.6562C22.0087 75.8661 21.4564 74.1428 21.2486 72.9688C20.6108 69.3636 23.8375 66.1825 21.2486 63.5938C20.135 62.4802 12.2297 62.3245 5.68359 62.5089" stroke="white" stroke-width="1.5" stroke-miterlimit="10"/>
<path d="M49.0234 41.2488C51.2212 44.3113 53.5369 47.7913 54.0637 49.5313C55.1247 53.0355 51.4748 56.3176 54.0637 58.9063C56.6525 61.4952 60.8498 56.3176 63.4387 58.9063C66.0275 61.4952 60.9225 65.6219 63.4387 68.2813C65.183 70.1249 71.5586 70.031 76.6592 69.7169" stroke="white" stroke-width="1.5" stroke-miterlimit="10"/>
<path d="M45.2722 40.5241C63.4866 43.0869 77.6562 58.7352 77.6562 77.6562H2.34375C2.34375 58.7352 16.5134 43.0869 34.728 40.5241" stroke="white" stroke-width="1.5" stroke-miterlimit="10"/>
<path d="M22.6016 8.38379C27.3914 4.60254 33.4361 2.34348 39.9987 2.34348C46.5614 2.34348 52.6061 4.60254 57.3961 8.38379" stroke="white" stroke-width="1.5" stroke-miterlimit="10"/>
<path d="M29.2969 15.0801C32.3334 12.9621 36.0233 11.7188 39.9981 11.7188C43.9728 11.7188 47.6628 12.9621 50.6994 15.0801" stroke="white" stroke-width="1.5" stroke-miterlimit="10"/>
<path d="M40 21.4062C45.1777 21.4062 49.375 25.6036 49.375 30.7812C49.375 39.0189 40 43.6373 40 51.875C40 43.6373 30.625 39.0189 30.625 30.7812C30.625 25.6036 34.8223 21.4062 40 21.4062Z" stroke="white" stroke-width="1.5" stroke-miterlimit="10"/>
<path d="M37.6562 30.7812H42.3438" stroke="white" stroke-width="1.5" stroke-miterlimit="10"/>
</g>
</svg>
