<svg width="80" height="80" viewBox="0 0 80 80" fill="none" xmlns="http://www.w3.org/2000/svg">
<path d="M54.1653 73.8716C49.9062 76.0329 45.1029 77.2773 40 77.2773C34.8969 77.2773 30.0936 76.0327 25.8345 73.8713M22.8494 19.6365C14.7423 24.9421 9.2692 33.8933 8.70717 44.1652M71.2928 44.1651C70.7306 33.8933 65.2576 24.9421 57.1506 19.6365M61.8431 51.2377C57.3895 48.6665 53.0479 46.7699 49.4029 45.6772C49.3264 42.3644 47.5409 39.4816 44.8914 37.8644C45.7678 34.1613 46.2962 29.4527 46.2962 24.3096C46.2962 12.3874 43.4773 2.72241 40 2.72241C36.5226 2.72241 33.7037 12.3873 33.7037 24.3096C33.7037 29.4527 34.2322 34.1613 35.1086 37.8644C32.459 39.4815 30.6736 42.3643 30.597 45.6772C26.952 46.7699 22.6104 48.6665 18.1569 51.2377C7.83185 57.1988 0.871229 64.4726 2.60998 67.484C4.34857 70.4954 14.1281 68.1043 24.4531 62.143C28.9031 59.5738 32.7137 56.7646 35.482 54.156C36.8234 54.8913 38.3625 55.311 40.0001 55.311C41.6378 55.311 43.1769 54.8915 44.5183 54.156C47.2864 56.7646 51.0972 59.5738 55.5472 62.143C65.8722 68.1041 75.6517 70.4954 77.3903 67.484C79.1287 64.4726 72.1681 57.1988 61.8431 51.2377Z" stroke="white" stroke-width="1.5" stroke-miterlimit="10" stroke-linecap="round" stroke-linejoin="round"/>
</svg>
