<svg width="80" height="80" viewBox="0 0 80 80" fill="none" xmlns="http://www.w3.org/2000/svg">
<path d="M40 31.3535V23.4199" stroke="white" stroke-width="1.5" stroke-miterlimit="10" stroke-linecap="round" stroke-linejoin="round"/>
<path d="M40 66.9224V44.9769" stroke="white" stroke-width="1.5" stroke-miterlimit="10" stroke-linecap="round" stroke-linejoin="round"/>
<path d="M50.9728 55.9495H29.0273" stroke="white" stroke-width="1.5" stroke-miterlimit="10" stroke-linecap="round" stroke-linejoin="round"/>
<path d="M56.1292 66.9224H50.375" stroke="white" stroke-width="1.5" stroke-miterlimit="10" stroke-linecap="round" stroke-linejoin="round"/>
<mask id="mask0_1841_13298" style="mask-type:luminance" maskUnits="userSpaceOnUse" x="0" y="0" width="80" height="80">
<path d="M79.25 79.25V0.75H0.75V79.25H79.25Z" fill="white" stroke="white" stroke-width="1.5"/>
</mask>
<g mask="url(#mask0_1841_13298)">
<path d="M48.9083 55.9495C48.9083 60.8711 44.9186 64.8606 39.9972 64.8606C35.0758 64.8606 31.0859 60.8711 31.0859 55.9495C31.0859 51.0281 35.0758 47.0384 39.9972 47.0384C44.9186 47.0384 48.9083 51.0281 48.9083 55.9495Z" stroke="white" stroke-width="1.5" stroke-miterlimit="10" stroke-linecap="round" stroke-linejoin="round"/>
<path d="M11.8772 43.6482H7.3125" stroke="white" stroke-width="1.5" stroke-miterlimit="10" stroke-linecap="round" stroke-linejoin="round"/>
<path d="M11.8772 47.8618H7.3125" stroke="white" stroke-width="1.5" stroke-miterlimit="10" stroke-linecap="round" stroke-linejoin="round"/>
<path d="M11.8772 52.0754H7.3125" stroke="white" stroke-width="1.5" stroke-miterlimit="10" stroke-linecap="round" stroke-linejoin="round"/>
<path d="M72.6897 43.6482H68.125" stroke="white" stroke-width="1.5" stroke-miterlimit="10" stroke-linecap="round" stroke-linejoin="round"/>
<path d="M72.6897 47.8618H68.125" stroke="white" stroke-width="1.5" stroke-miterlimit="10" stroke-linecap="round" stroke-linejoin="round"/>
<path d="M72.6897 52.0754H68.125" stroke="white" stroke-width="1.5" stroke-miterlimit="10" stroke-linecap="round" stroke-linejoin="round"/>
<path d="M42.6383 20.6992C42.6383 22.1569 41.4566 23.3386 39.9987 23.3386C38.5411 23.3386 37.3594 22.1569 37.3594 20.6992C37.3594 19.2414 38.5411 18.0597 39.9987 18.0597C41.4566 18.0597 42.6383 19.2414 42.6383 20.6992Z" stroke="white" stroke-width="1.5" stroke-miterlimit="10" stroke-linecap="round" stroke-linejoin="round"/>
<path d="M29.6016 6.65771C35.3456 0.913652 44.6586 0.913652 50.4027 6.65771" stroke="white" stroke-width="1.5" stroke-miterlimit="10" stroke-linecap="round" stroke-linejoin="round"/>
<path d="M33.3281 10.251C37.0111 6.56801 42.9825 6.56801 46.6655 10.251" stroke="white" stroke-width="1.5" stroke-miterlimit="10" stroke-linecap="round" stroke-linejoin="round"/>
<path d="M35.9141 14.4836C38.1716 12.2261 41.8316 12.2261 44.0891 14.4836" stroke="white" stroke-width="1.5" stroke-miterlimit="10" stroke-linecap="round" stroke-linejoin="round"/>
<path d="M74.2522 66.6155C74.2522 68.739 72.5306 70.4602 70.4073 70.4602C68.2841 70.4602 66.5625 68.739 66.5625 66.6155C66.5625 64.4921 68.2841 62.7708 70.4073 62.7708C72.5306 62.7708 74.2522 64.4921 74.2522 66.6155Z" stroke="white" stroke-width="1.5" stroke-miterlimit="10" stroke-linecap="round" stroke-linejoin="round"/>
<path d="M13.4358 66.6155C13.4358 68.739 11.7142 70.4602 9.59109 70.4602C7.46766 70.4602 5.74609 68.739 5.74609 66.6155C5.74609 64.4921 7.46766 62.7708 9.59109 62.7708C11.7142 62.7708 13.4358 64.4921 13.4358 66.6155Z" stroke="white" stroke-width="1.5" stroke-miterlimit="10" stroke-linecap="round" stroke-linejoin="round"/>
<path d="M18.6172 73.1929H61.4747" stroke="white" stroke-width="1.5" stroke-miterlimit="10" stroke-linecap="round" stroke-linejoin="round"/>
<path d="M61.2425 38.7061H18.6172" stroke="white" stroke-width="1.5" stroke-miterlimit="10" stroke-linecap="round" stroke-linejoin="round"/>
<path d="M61.9844 60.5676V76.0879C61.9844 76.9509 62.6841 77.6504 63.5469 77.6504H74.9194C77.0767 77.6504 78.8256 75.9016 78.8256 73.7441V38.1548C78.8256 35.9973 77.0767 34.2485 74.9194 34.2485H63.5469C62.6841 34.2485 61.9844 34.948 61.9844 35.811V55.4602" stroke="white" stroke-width="1.5" stroke-miterlimit="10" stroke-linecap="round" stroke-linejoin="round"/>
<path d="M44.3784 31.3534H27.1328C25.8384 31.3534 24.7891 32.4028 24.7891 33.6971V38.7061" stroke="white" stroke-width="1.5" stroke-miterlimit="10" stroke-linecap="round" stroke-linejoin="round"/>
<path d="M55.2052 38.7061V33.6971C55.2052 32.4028 54.1558 31.3534 52.8614 31.3534H49.4844" stroke="white" stroke-width="1.5" stroke-miterlimit="10" stroke-linecap="round" stroke-linejoin="round"/>
<path d="M1.17188 69.169V73.7441C1.17188 75.9016 2.92078 77.6504 5.07812 77.6504H16.4506C17.3136 77.6504 18.0131 76.9509 18.0131 76.0879V35.811C18.0131 34.948 17.3136 34.2485 16.4506 34.2485H5.07812C2.92078 34.2485 1.17188 35.9974 1.17188 38.1548V64.0618" stroke="white" stroke-width="1.5" stroke-miterlimit="10" stroke-linecap="round" stroke-linejoin="round"/>
</g>
</svg>
